G04 #@! TF.FileFunction,Legend,Top*
%FSLAX46Y46*%
G04 Gerber Fmt 4.6, Leading zero omitted, Abs format (unit mm)*
G04 Created by KiCad (PCBNEW 4.1.0-alpha+201605091531+6781~44~ubuntu15.10.1-product) date Mon 19 Sep 2016 03:19:41 PM CEST*
%MOMM*%
%LPD*%
G01*
G04 APERTURE LIST*
%ADD10C,0.150000*%
%ADD11C,0.152400*%
%ADD12C,0.190500*%
%ADD13C,0.149860*%
%ADD14C,0.200660*%
%ADD15C,0.203200*%
%ADD16C,0.127000*%
%ADD17C,0.304800*%
%ADD18C,0.381000*%
%ADD19C,0.250190*%
G04 APERTURE END LIST*
D10*
D11*
X175652539Y-94318651D02*
X175652539Y-93883222D01*
X176668539Y-94100937D02*
X175652539Y-94100937D01*
X175652539Y-93701794D02*
X176668539Y-93193794D01*
X175652539Y-93193794D02*
X176668539Y-93701794D01*
X174392699Y-93854920D02*
X173908889Y-94108920D01*
X174392699Y-94290348D02*
X173376699Y-94290348D01*
X173376699Y-94000062D01*
X173425080Y-93927491D01*
X173473460Y-93891205D01*
X173570222Y-93854920D01*
X173715365Y-93854920D01*
X173812127Y-93891205D01*
X173860508Y-93927491D01*
X173908889Y-94000062D01*
X173908889Y-94290348D01*
X173376699Y-93600920D02*
X174392699Y-93092920D01*
X173376699Y-93092920D02*
X174392699Y-93600920D01*
D12*
X166601188Y-119371348D02*
X166855188Y-119371348D01*
X166964045Y-119903539D02*
X166601188Y-119903539D01*
X166601188Y-118887539D01*
X166964045Y-118887539D01*
X167290617Y-119903539D02*
X167290617Y-119226205D01*
X167290617Y-119419729D02*
X167326902Y-119322967D01*
X167363188Y-119274586D01*
X167435760Y-119226205D01*
X167508331Y-119226205D01*
X167762331Y-119903539D02*
X167762331Y-119226205D01*
X167762331Y-119419729D02*
X167798617Y-119322967D01*
X167834902Y-119274586D01*
X167907474Y-119226205D01*
X167980045Y-119226205D01*
X168342902Y-119903539D02*
X168270331Y-119855158D01*
X168234045Y-119806777D01*
X168197760Y-119710015D01*
X168197760Y-119419729D01*
X168234045Y-119322967D01*
X168270331Y-119274586D01*
X168342902Y-119226205D01*
X168451760Y-119226205D01*
X168524331Y-119274586D01*
X168560617Y-119322967D01*
X168596902Y-119419729D01*
X168596902Y-119710015D01*
X168560617Y-119806777D01*
X168524331Y-119855158D01*
X168451760Y-119903539D01*
X168342902Y-119903539D01*
X168923474Y-119903539D02*
X168923474Y-119226205D01*
X168923474Y-119419729D02*
X168959760Y-119322967D01*
X168996045Y-119274586D01*
X169068617Y-119226205D01*
X169141188Y-119226205D01*
X166483622Y-117663259D02*
X166483622Y-116647259D01*
X166773908Y-116647259D01*
X166846480Y-116695640D01*
X166882765Y-116744020D01*
X166919051Y-116840782D01*
X166919051Y-116985925D01*
X166882765Y-117082687D01*
X166846480Y-117131068D01*
X166773908Y-117179449D01*
X166483622Y-117179449D01*
X167354480Y-117663259D02*
X167281908Y-117614878D01*
X167245622Y-117566497D01*
X167209337Y-117469735D01*
X167209337Y-117179449D01*
X167245622Y-117082687D01*
X167281908Y-117034306D01*
X167354480Y-116985925D01*
X167463337Y-116985925D01*
X167535908Y-117034306D01*
X167572194Y-117082687D01*
X167608480Y-117179449D01*
X167608480Y-117469735D01*
X167572194Y-117566497D01*
X167535908Y-117614878D01*
X167463337Y-117663259D01*
X167354480Y-117663259D01*
X167862480Y-116985925D02*
X168007622Y-117663259D01*
X168152765Y-117179449D01*
X168297908Y-117663259D01*
X168443051Y-116985925D01*
X169023622Y-117614878D02*
X168951051Y-117663259D01*
X168805908Y-117663259D01*
X168733337Y-117614878D01*
X168697051Y-117518116D01*
X168697051Y-117131068D01*
X168733337Y-117034306D01*
X168805908Y-116985925D01*
X168951051Y-116985925D01*
X169023622Y-117034306D01*
X169059908Y-117131068D01*
X169059908Y-117227830D01*
X168697051Y-117324592D01*
X169386480Y-117663259D02*
X169386480Y-116985925D01*
X169386480Y-117179449D02*
X169422765Y-117082687D01*
X169459051Y-117034306D01*
X169531622Y-116985925D01*
X169604194Y-116985925D01*
X159121928Y-124550714D02*
X159121928Y-125131285D01*
X158734880Y-124841000D02*
X159508976Y-124841000D01*
D11*
X126873000Y-123875800D02*
X126800428Y-123827419D01*
X126691571Y-123827419D01*
X126582714Y-123875800D01*
X126510142Y-123972561D01*
X126473857Y-124069323D01*
X126437571Y-124262847D01*
X126437571Y-124407990D01*
X126473857Y-124601514D01*
X126510142Y-124698276D01*
X126582714Y-124795038D01*
X126691571Y-124843419D01*
X126764142Y-124843419D01*
X126873000Y-124795038D01*
X126909285Y-124746657D01*
X126909285Y-124407990D01*
X126764142Y-124407990D01*
X127235857Y-124843419D02*
X127235857Y-123827419D01*
X127526142Y-123827419D01*
X127598714Y-123875800D01*
X127635000Y-123924180D01*
X127671285Y-124020942D01*
X127671285Y-124166085D01*
X127635000Y-124262847D01*
X127598714Y-124311228D01*
X127526142Y-124359609D01*
X127235857Y-124359609D01*
X127997857Y-124843419D02*
X127997857Y-123827419D01*
X128614714Y-124311228D02*
X128723571Y-124359609D01*
X128759857Y-124407990D01*
X128796142Y-124504752D01*
X128796142Y-124649895D01*
X128759857Y-124746657D01*
X128723571Y-124795038D01*
X128651000Y-124843419D01*
X128360714Y-124843419D01*
X128360714Y-123827419D01*
X128614714Y-123827419D01*
X128687285Y-123875800D01*
X128723571Y-123924180D01*
X128759857Y-124020942D01*
X128759857Y-124117704D01*
X128723571Y-124214466D01*
X128687285Y-124262847D01*
X128614714Y-124311228D01*
X128360714Y-124311228D01*
X129122714Y-123827419D02*
X129122714Y-124649895D01*
X129159000Y-124746657D01*
X129195285Y-124795038D01*
X129267857Y-124843419D01*
X129413000Y-124843419D01*
X129485571Y-124795038D01*
X129521857Y-124746657D01*
X129558142Y-124649895D01*
X129558142Y-123827419D01*
X129884714Y-124795038D02*
X129993571Y-124843419D01*
X130175000Y-124843419D01*
X130247571Y-124795038D01*
X130283857Y-124746657D01*
X130320142Y-124649895D01*
X130320142Y-124553133D01*
X130283857Y-124456371D01*
X130247571Y-124407990D01*
X130175000Y-124359609D01*
X130029857Y-124311228D01*
X129957285Y-124262847D01*
X129921000Y-124214466D01*
X129884714Y-124117704D01*
X129884714Y-124020942D01*
X129921000Y-123924180D01*
X129957285Y-123875800D01*
X130029857Y-123827419D01*
X130211285Y-123827419D01*
X130320142Y-123875800D01*
X130900714Y-124311228D02*
X131009571Y-124359609D01*
X131045857Y-124407990D01*
X131082142Y-124504752D01*
X131082142Y-124649895D01*
X131045857Y-124746657D01*
X131009571Y-124795038D01*
X130937000Y-124843419D01*
X130646714Y-124843419D01*
X130646714Y-123827419D01*
X130900714Y-123827419D01*
X130973285Y-123875800D01*
X131009571Y-123924180D01*
X131045857Y-124020942D01*
X131045857Y-124117704D01*
X131009571Y-124214466D01*
X130973285Y-124262847D01*
X130900714Y-124311228D01*
X130646714Y-124311228D01*
X131953000Y-124553133D02*
X132315857Y-124553133D01*
X131880428Y-124843419D02*
X132134428Y-123827419D01*
X132388428Y-124843419D01*
X132969000Y-124843419D02*
X132969000Y-123827419D01*
X132969000Y-124795038D02*
X132896428Y-124843419D01*
X132751285Y-124843419D01*
X132678714Y-124795038D01*
X132642428Y-124746657D01*
X132606142Y-124649895D01*
X132606142Y-124359609D01*
X132642428Y-124262847D01*
X132678714Y-124214466D01*
X132751285Y-124166085D01*
X132896428Y-124166085D01*
X132969000Y-124214466D01*
X133658428Y-124843419D02*
X133658428Y-124311228D01*
X133622142Y-124214466D01*
X133549571Y-124166085D01*
X133404428Y-124166085D01*
X133331857Y-124214466D01*
X133658428Y-124795038D02*
X133585857Y-124843419D01*
X133404428Y-124843419D01*
X133331857Y-124795038D01*
X133295571Y-124698276D01*
X133295571Y-124601514D01*
X133331857Y-124504752D01*
X133404428Y-124456371D01*
X133585857Y-124456371D01*
X133658428Y-124407990D01*
X134021285Y-124166085D02*
X134021285Y-125182085D01*
X134021285Y-124214466D02*
X134093857Y-124166085D01*
X134239000Y-124166085D01*
X134311571Y-124214466D01*
X134347857Y-124262847D01*
X134384142Y-124359609D01*
X134384142Y-124649895D01*
X134347857Y-124746657D01*
X134311571Y-124795038D01*
X134239000Y-124843419D01*
X134093857Y-124843419D01*
X134021285Y-124795038D01*
X134601857Y-124166085D02*
X134892142Y-124166085D01*
X134710714Y-123827419D02*
X134710714Y-124698276D01*
X134747000Y-124795038D01*
X134819571Y-124843419D01*
X134892142Y-124843419D01*
X135436428Y-124795038D02*
X135363857Y-124843419D01*
X135218714Y-124843419D01*
X135146142Y-124795038D01*
X135109857Y-124698276D01*
X135109857Y-124311228D01*
X135146142Y-124214466D01*
X135218714Y-124166085D01*
X135363857Y-124166085D01*
X135436428Y-124214466D01*
X135472714Y-124311228D01*
X135472714Y-124407990D01*
X135109857Y-124504752D01*
X135799285Y-124843419D02*
X135799285Y-124166085D01*
X135799285Y-124359609D02*
X135835571Y-124262847D01*
X135871857Y-124214466D01*
X135944428Y-124166085D01*
X136017000Y-124166085D01*
X124822857Y-125552200D02*
X124750285Y-125503819D01*
X124641428Y-125503819D01*
X124532571Y-125552200D01*
X124460000Y-125648961D01*
X124423714Y-125745723D01*
X124387428Y-125939247D01*
X124387428Y-126084390D01*
X124423714Y-126277914D01*
X124460000Y-126374676D01*
X124532571Y-126471438D01*
X124641428Y-126519819D01*
X124714000Y-126519819D01*
X124822857Y-126471438D01*
X124859142Y-126423057D01*
X124859142Y-126084390D01*
X124714000Y-126084390D01*
X125512285Y-126519819D02*
X125512285Y-125987628D01*
X125476000Y-125890866D01*
X125403428Y-125842485D01*
X125258285Y-125842485D01*
X125185714Y-125890866D01*
X125512285Y-126471438D02*
X125439714Y-126519819D01*
X125258285Y-126519819D01*
X125185714Y-126471438D01*
X125149428Y-126374676D01*
X125149428Y-126277914D01*
X125185714Y-126181152D01*
X125258285Y-126132771D01*
X125439714Y-126132771D01*
X125512285Y-126084390D01*
X125984000Y-126519819D02*
X125911428Y-126471438D01*
X125875142Y-126374676D01*
X125875142Y-125503819D01*
X126201714Y-125842485D02*
X126383142Y-126519819D01*
X126564571Y-125842485D01*
X127181428Y-126519819D02*
X127181428Y-125987628D01*
X127145142Y-125890866D01*
X127072571Y-125842485D01*
X126927428Y-125842485D01*
X126854857Y-125890866D01*
X127181428Y-126471438D02*
X127108857Y-126519819D01*
X126927428Y-126519819D01*
X126854857Y-126471438D01*
X126818571Y-126374676D01*
X126818571Y-126277914D01*
X126854857Y-126181152D01*
X126927428Y-126132771D01*
X127108857Y-126132771D01*
X127181428Y-126084390D01*
X127544285Y-125842485D02*
X127544285Y-126519819D01*
X127544285Y-125939247D02*
X127580571Y-125890866D01*
X127653142Y-125842485D01*
X127762000Y-125842485D01*
X127834571Y-125890866D01*
X127870857Y-125987628D01*
X127870857Y-126519819D01*
X128124857Y-125842485D02*
X128415142Y-125842485D01*
X128233714Y-125503819D02*
X128233714Y-126374676D01*
X128270000Y-126471438D01*
X128342571Y-126519819D01*
X128415142Y-126519819D01*
X129249714Y-126519819D02*
X129249714Y-125503819D01*
X129612571Y-125842485D02*
X129612571Y-126519819D01*
X129612571Y-125939247D02*
X129648857Y-125890866D01*
X129721428Y-125842485D01*
X129830285Y-125842485D01*
X129902857Y-125890866D01*
X129939142Y-125987628D01*
X129939142Y-126519819D01*
X130628571Y-126519819D02*
X130628571Y-125503819D01*
X130628571Y-126471438D02*
X130556000Y-126519819D01*
X130410857Y-126519819D01*
X130338285Y-126471438D01*
X130302000Y-126423057D01*
X130265714Y-126326295D01*
X130265714Y-126036009D01*
X130302000Y-125939247D01*
X130338285Y-125890866D01*
X130410857Y-125842485D01*
X130556000Y-125842485D01*
X130628571Y-125890866D01*
X131318000Y-125842485D02*
X131318000Y-126519819D01*
X130991428Y-125842485D02*
X130991428Y-126374676D01*
X131027714Y-126471438D01*
X131100285Y-126519819D01*
X131209142Y-126519819D01*
X131281714Y-126471438D01*
X131318000Y-126423057D01*
X131644571Y-126471438D02*
X131717142Y-126519819D01*
X131862285Y-126519819D01*
X131934857Y-126471438D01*
X131971142Y-126374676D01*
X131971142Y-126326295D01*
X131934857Y-126229533D01*
X131862285Y-126181152D01*
X131753428Y-126181152D01*
X131680857Y-126132771D01*
X131644571Y-126036009D01*
X131644571Y-125987628D01*
X131680857Y-125890866D01*
X131753428Y-125842485D01*
X131862285Y-125842485D01*
X131934857Y-125890866D01*
X132188857Y-125842485D02*
X132479142Y-125842485D01*
X132297714Y-125503819D02*
X132297714Y-126374676D01*
X132334000Y-126471438D01*
X132406571Y-126519819D01*
X132479142Y-126519819D01*
X132733142Y-126519819D02*
X132733142Y-125842485D01*
X132733142Y-126036009D02*
X132769428Y-125939247D01*
X132805714Y-125890866D01*
X132878285Y-125842485D01*
X132950857Y-125842485D01*
X133204857Y-126519819D02*
X133204857Y-125842485D01*
X133204857Y-125503819D02*
X133168571Y-125552200D01*
X133204857Y-125600580D01*
X133241142Y-125552200D01*
X133204857Y-125503819D01*
X133204857Y-125600580D01*
X133858000Y-126471438D02*
X133785428Y-126519819D01*
X133640285Y-126519819D01*
X133567714Y-126471438D01*
X133531428Y-126374676D01*
X133531428Y-125987628D01*
X133567714Y-125890866D01*
X133640285Y-125842485D01*
X133785428Y-125842485D01*
X133858000Y-125890866D01*
X133894285Y-125987628D01*
X133894285Y-126084390D01*
X133531428Y-126181152D01*
X134184571Y-126471438D02*
X134257142Y-126519819D01*
X134402285Y-126519819D01*
X134474857Y-126471438D01*
X134511142Y-126374676D01*
X134511142Y-126326295D01*
X134474857Y-126229533D01*
X134402285Y-126181152D01*
X134293428Y-126181152D01*
X134220857Y-126132771D01*
X134184571Y-126036009D01*
X134184571Y-125987628D01*
X134220857Y-125890866D01*
X134293428Y-125842485D01*
X134402285Y-125842485D01*
X134474857Y-125890866D01*
X135382000Y-125600580D02*
X135418285Y-125552200D01*
X135490857Y-125503819D01*
X135672285Y-125503819D01*
X135744857Y-125552200D01*
X135781142Y-125600580D01*
X135817428Y-125697342D01*
X135817428Y-125794104D01*
X135781142Y-125939247D01*
X135345714Y-126519819D01*
X135817428Y-126519819D01*
X136289142Y-125503819D02*
X136361714Y-125503819D01*
X136434285Y-125552200D01*
X136470571Y-125600580D01*
X136506857Y-125697342D01*
X136543142Y-125890866D01*
X136543142Y-126132771D01*
X136506857Y-126326295D01*
X136470571Y-126423057D01*
X136434285Y-126471438D01*
X136361714Y-126519819D01*
X136289142Y-126519819D01*
X136216571Y-126471438D01*
X136180285Y-126423057D01*
X136144000Y-126326295D01*
X136107714Y-126132771D01*
X136107714Y-125890866D01*
X136144000Y-125697342D01*
X136180285Y-125600580D01*
X136216571Y-125552200D01*
X136289142Y-125503819D01*
X137268857Y-126519819D02*
X136833428Y-126519819D01*
X137051142Y-126519819D02*
X137051142Y-125503819D01*
X136978571Y-125648961D01*
X136906000Y-125745723D01*
X136833428Y-125794104D01*
X137922000Y-125842485D02*
X137922000Y-126519819D01*
X137740571Y-125455438D02*
X137559142Y-126181152D01*
X138030857Y-126181152D01*
D12*
X132874657Y-121115969D02*
X132620657Y-120632159D01*
X132439228Y-121115969D02*
X132439228Y-120099969D01*
X132729514Y-120099969D01*
X132802085Y-120148350D01*
X132838371Y-120196730D01*
X132874657Y-120293492D01*
X132874657Y-120438635D01*
X132838371Y-120535397D01*
X132802085Y-120583778D01*
X132729514Y-120632159D01*
X132439228Y-120632159D01*
X133491514Y-121067588D02*
X133418942Y-121115969D01*
X133273800Y-121115969D01*
X133201228Y-121067588D01*
X133164942Y-120970826D01*
X133164942Y-120583778D01*
X133201228Y-120487016D01*
X133273800Y-120438635D01*
X133418942Y-120438635D01*
X133491514Y-120487016D01*
X133527800Y-120583778D01*
X133527800Y-120680540D01*
X133164942Y-120777302D01*
X133781800Y-120438635D02*
X133963228Y-121115969D01*
X134144657Y-120438635D01*
X135342085Y-120438635D02*
X135342085Y-121115969D01*
X135160657Y-120051588D02*
X134979228Y-120777302D01*
X135450942Y-120777302D01*
X132638800Y-121814469D02*
X132783942Y-121814469D01*
X132856514Y-121862850D01*
X132929085Y-121959611D01*
X132965371Y-122153135D01*
X132965371Y-122491802D01*
X132929085Y-122685326D01*
X132856514Y-122782088D01*
X132783942Y-122830469D01*
X132638800Y-122830469D01*
X132566228Y-122782088D01*
X132493657Y-122685326D01*
X132457371Y-122491802D01*
X132457371Y-122153135D01*
X132493657Y-121959611D01*
X132566228Y-121862850D01*
X132638800Y-121814469D01*
X133255657Y-122782088D02*
X133364514Y-122830469D01*
X133545942Y-122830469D01*
X133618514Y-122782088D01*
X133654800Y-122733707D01*
X133691085Y-122636945D01*
X133691085Y-122540183D01*
X133654800Y-122443421D01*
X133618514Y-122395040D01*
X133545942Y-122346659D01*
X133400800Y-122298278D01*
X133328228Y-122249897D01*
X133291942Y-122201516D01*
X133255657Y-122104754D01*
X133255657Y-122007992D01*
X133291942Y-121911230D01*
X133328228Y-121862850D01*
X133400800Y-121814469D01*
X133582228Y-121814469D01*
X133691085Y-121862850D01*
X134017657Y-122830469D02*
X134017657Y-121814469D01*
X134017657Y-122298278D02*
X134453085Y-122298278D01*
X134453085Y-122830469D02*
X134453085Y-121814469D01*
X134743371Y-121814469D02*
X134924800Y-122830469D01*
X135069942Y-122104754D01*
X135215085Y-122830469D01*
X135396514Y-121814469D01*
D13*
X166785400Y-96457840D02*
X166785400Y-100938400D01*
X167283240Y-95960000D02*
X171763800Y-95960000D01*
X167283240Y-95960000D02*
X166785400Y-96457840D01*
D14*
X167532160Y-96457840D02*
X167283240Y-96457840D01*
X167283240Y-96457840D02*
X167283240Y-96706760D01*
X171265960Y-96706760D02*
X171265960Y-96457840D01*
X171265960Y-96457840D02*
X171017040Y-96457840D01*
X171017040Y-100440560D02*
X171265960Y-100440560D01*
X171265960Y-100440560D02*
X171265960Y-100191640D01*
X167283240Y-100191640D02*
X167283240Y-100440560D01*
X167283240Y-100440560D02*
X167532160Y-100440560D01*
D13*
X171763800Y-100938400D02*
X171763800Y-95960000D01*
X166785400Y-100938400D02*
X171763800Y-100938400D01*
D15*
X133435000Y-100400000D02*
X133435000Y-93600000D01*
X148675000Y-100400000D02*
X148675000Y-93600000D01*
X133435000Y-100400000D02*
X148675000Y-100400000D01*
X148675000Y-97635000D02*
X147405000Y-97635000D01*
X147405000Y-97635000D02*
X147405000Y-96365000D01*
X147405000Y-96365000D02*
X148675000Y-96365000D01*
X148675000Y-93600000D02*
X133435000Y-93600000D01*
D16*
X163999610Y-94485400D02*
G75*
G03X163999610Y-94485400I-359210J0D01*
G01*
X164656400Y-97736600D02*
X163894400Y-97736600D01*
X163894400Y-97736600D02*
X163894400Y-96466600D01*
X163894400Y-96466600D02*
X164656400Y-96466600D01*
X151100000Y-93600000D02*
X164700000Y-93600000D01*
X164700000Y-100400000D02*
X151100000Y-100400000D01*
X164700000Y-100400000D02*
X164700000Y-93600000D01*
X151100000Y-100400000D02*
X151100000Y-93600000D01*
D17*
X143996200Y-115503800D02*
X143996200Y-105496200D01*
X143996200Y-105496200D02*
X154003800Y-105496200D01*
X154003800Y-115021200D02*
X154003800Y-105496200D01*
X153521200Y-115503800D02*
X143996200Y-115503800D01*
X154003800Y-115021200D02*
X153521200Y-115503800D01*
D15*
X153445000Y-114310000D02*
G75*
G03X153445000Y-114310000I-635000J0D01*
G01*
D10*
X167149360Y-117599180D02*
X174850640Y-117599180D01*
X167149360Y-118599940D02*
X174850640Y-118599940D01*
X174850640Y-118599940D02*
X174850640Y-109400060D01*
X174850640Y-109400060D02*
X167149360Y-109400060D01*
X167149360Y-109400060D02*
X167149360Y-118599940D01*
X172000000Y-95175000D02*
X171000000Y-95175000D01*
X171000000Y-93825000D02*
X172000000Y-93825000D01*
X125500000Y-97425000D02*
X126500000Y-97425000D01*
X126500000Y-98775000D02*
X125500000Y-98775000D01*
X125450000Y-91925000D02*
X126450000Y-91925000D01*
X126450000Y-93275000D02*
X125450000Y-93275000D01*
X170675000Y-103500000D02*
X170675000Y-104500000D01*
X169325000Y-104500000D02*
X169325000Y-103500000D01*
X169175000Y-102750000D02*
X169175000Y-103750000D01*
X167825000Y-103750000D02*
X167825000Y-102750000D01*
X164100000Y-109650000D02*
X164100000Y-110350000D01*
X162900000Y-110350000D02*
X162900000Y-109650000D01*
X137800000Y-112450000D02*
X137800000Y-113150000D01*
X136600000Y-113150000D02*
X136600000Y-112450000D01*
X137800000Y-115950000D02*
X137800000Y-116650000D01*
X136600000Y-116650000D02*
X136600000Y-115950000D01*
X139900000Y-109900000D02*
X140600000Y-109900000D01*
X140600000Y-111100000D02*
X139900000Y-111100000D01*
X174100000Y-101150000D02*
X174100000Y-101850000D01*
X172900000Y-101850000D02*
X172900000Y-101150000D01*
X162375000Y-112300000D02*
X162375000Y-110300000D01*
X159425000Y-110300000D02*
X159425000Y-112300000D01*
X149400000Y-101350000D02*
X149400000Y-100650000D01*
X150600000Y-100650000D02*
X150600000Y-101350000D01*
X166550000Y-94350000D02*
X166550000Y-93650000D01*
X167750000Y-93650000D02*
X167750000Y-94350000D01*
X165000000Y-101950000D02*
X165000000Y-101250000D01*
X166200000Y-101250000D02*
X166200000Y-101950000D01*
X166850000Y-105600000D02*
X166150000Y-105600000D01*
X166150000Y-104400000D02*
X166850000Y-104400000D01*
X157150000Y-109400000D02*
X157850000Y-109400000D01*
X157850000Y-110600000D02*
X157150000Y-110600000D01*
X169350000Y-107100000D02*
X168650000Y-107100000D01*
X168650000Y-105900000D02*
X169350000Y-105900000D01*
X127903500Y-93528000D02*
X125203500Y-93528000D01*
X127903500Y-95028000D02*
X125203500Y-95028000D01*
X126403500Y-94128000D02*
X126403500Y-94378000D01*
X126403500Y-94378000D02*
X126553500Y-94228000D01*
X126653500Y-94628000D02*
X126653500Y-93928000D01*
X126303500Y-94278000D02*
X125953500Y-94278000D01*
X126653500Y-94278000D02*
X126303500Y-94628000D01*
X126303500Y-94628000D02*
X126303500Y-93928000D01*
X126303500Y-93928000D02*
X126653500Y-94278000D01*
X127903500Y-95687000D02*
X125203500Y-95687000D01*
X127903500Y-97187000D02*
X125203500Y-97187000D01*
X126403500Y-96287000D02*
X126403500Y-96537000D01*
X126403500Y-96537000D02*
X126553500Y-96387000D01*
X126653500Y-96787000D02*
X126653500Y-96087000D01*
X126303500Y-96437000D02*
X125953500Y-96437000D01*
X126653500Y-96437000D02*
X126303500Y-96787000D01*
X126303500Y-96787000D02*
X126303500Y-96087000D01*
X126303500Y-96087000D02*
X126653500Y-96437000D01*
X175379240Y-95331240D02*
X175379240Y-98031240D01*
X176879240Y-95331240D02*
X176879240Y-98031240D01*
X175979240Y-96831240D02*
X176229240Y-96831240D01*
X176229240Y-96831240D02*
X176079240Y-96681240D01*
X176479240Y-96581240D02*
X175779240Y-96581240D01*
X176129240Y-96931240D02*
X176129240Y-97281240D01*
X176129240Y-96581240D02*
X176479240Y-96931240D01*
X176479240Y-96931240D02*
X175779240Y-96931240D01*
X175779240Y-96931240D02*
X176129240Y-96581240D01*
X174593240Y-98485520D02*
X174593240Y-95785520D01*
X173093240Y-98485520D02*
X173093240Y-95785520D01*
X173993240Y-96985520D02*
X173743240Y-96985520D01*
X173743240Y-96985520D02*
X173893240Y-97135520D01*
X173493240Y-97235520D02*
X174193240Y-97235520D01*
X173843240Y-96885520D02*
X173843240Y-96535520D01*
X173843240Y-97235520D02*
X173493240Y-96885520D01*
X173493240Y-96885520D02*
X174193240Y-96885520D01*
X174193240Y-96885520D02*
X173843240Y-97235520D01*
X166500000Y-108175000D02*
X165500000Y-108175000D01*
X165500000Y-106825000D02*
X166500000Y-106825000D01*
D18*
X178054000Y-73660000D02*
X178054000Y-90043000D01*
X178054000Y-90043000D02*
X123444000Y-90043000D01*
X123444000Y-90043000D02*
X123444000Y-73660000D01*
X178054000Y-73660000D02*
X123444000Y-73660000D01*
D10*
X127050000Y-115040000D02*
X127050000Y-116590000D01*
X127050000Y-116590000D02*
X123950000Y-116590000D01*
X123950000Y-116590000D02*
X123950000Y-115040000D01*
X124230000Y-113770000D02*
X124230000Y-103610000D01*
X124230000Y-103610000D02*
X126770000Y-103610000D01*
X126770000Y-103610000D02*
X126770000Y-113770000D01*
X124230000Y-113770000D02*
X126770000Y-113770000D01*
X127825000Y-106250000D02*
X127825000Y-105250000D01*
X129175000Y-105250000D02*
X129175000Y-106250000D01*
X176675000Y-101000000D02*
X176675000Y-102000000D01*
X175325000Y-102000000D02*
X175325000Y-101000000D01*
X138300000Y-117100000D02*
X138600000Y-117100000D01*
X138300000Y-111900000D02*
X138600000Y-111900000D01*
X141700000Y-111900000D02*
X141400000Y-111900000D01*
X141700000Y-117100000D02*
X141400000Y-117100000D01*
X141700000Y-111900000D02*
X141700000Y-117100000D01*
X138300000Y-111900000D02*
X138300000Y-117100000D01*
D19*
X164941964Y-99262483D02*
X165752103Y-99262483D01*
X165847414Y-99214828D01*
X165895069Y-99167173D01*
X165942724Y-99071862D01*
X165942724Y-98881241D01*
X165895069Y-98785931D01*
X165847414Y-98738276D01*
X165752103Y-98690620D01*
X164941964Y-98690620D01*
X165275551Y-97785171D02*
X165942724Y-97785171D01*
X164894309Y-98023447D02*
X165609138Y-98261723D01*
X165609138Y-97642205D01*
D17*
D15*
X140280904Y-97967619D02*
X140280904Y-98790095D01*
X140329285Y-98886857D01*
X140377666Y-98935238D01*
X140474428Y-98983619D01*
X140667952Y-98983619D01*
X140764714Y-98935238D01*
X140813095Y-98886857D01*
X140861476Y-98790095D01*
X140861476Y-97967619D01*
X141248523Y-97967619D02*
X141877476Y-97967619D01*
X141538809Y-98354666D01*
X141683952Y-98354666D01*
X141780714Y-98403047D01*
X141829095Y-98451428D01*
X141877476Y-98548190D01*
X141877476Y-98790095D01*
X141829095Y-98886857D01*
X141780714Y-98935238D01*
X141683952Y-98983619D01*
X141393666Y-98983619D01*
X141296904Y-98935238D01*
X141248523Y-98886857D01*
X137305476Y-96268238D02*
X137450619Y-96316619D01*
X137692523Y-96316619D01*
X137789285Y-96268238D01*
X137837666Y-96219857D01*
X137886047Y-96123095D01*
X137886047Y-96026333D01*
X137837666Y-95929571D01*
X137789285Y-95881190D01*
X137692523Y-95832809D01*
X137499000Y-95784428D01*
X137402238Y-95736047D01*
X137353857Y-95687666D01*
X137305476Y-95590904D01*
X137305476Y-95494142D01*
X137353857Y-95397380D01*
X137402238Y-95349000D01*
X137499000Y-95300619D01*
X137740904Y-95300619D01*
X137886047Y-95349000D01*
X138321476Y-96316619D02*
X138321476Y-95300619D01*
X138902047Y-96316619D01*
X138902047Y-95300619D01*
X139289095Y-95300619D02*
X139966428Y-95300619D01*
X139531000Y-96316619D01*
X140837285Y-95300619D02*
X140353476Y-95300619D01*
X140305095Y-95784428D01*
X140353476Y-95736047D01*
X140450238Y-95687666D01*
X140692142Y-95687666D01*
X140788904Y-95736047D01*
X140837285Y-95784428D01*
X140885666Y-95881190D01*
X140885666Y-96123095D01*
X140837285Y-96219857D01*
X140788904Y-96268238D01*
X140692142Y-96316619D01*
X140450238Y-96316619D01*
X140353476Y-96268238D01*
X140305095Y-96219857D01*
X141853285Y-96316619D02*
X141272714Y-96316619D01*
X141563000Y-96316619D02*
X141563000Y-95300619D01*
X141466238Y-95445761D01*
X141369476Y-95542523D01*
X141272714Y-95590904D01*
X142724142Y-95300619D02*
X142530619Y-95300619D01*
X142433857Y-95349000D01*
X142385476Y-95397380D01*
X142288714Y-95542523D01*
X142240333Y-95736047D01*
X142240333Y-96123095D01*
X142288714Y-96219857D01*
X142337095Y-96268238D01*
X142433857Y-96316619D01*
X142627380Y-96316619D01*
X142724142Y-96268238D01*
X142772523Y-96219857D01*
X142820904Y-96123095D01*
X142820904Y-95881190D01*
X142772523Y-95784428D01*
X142724142Y-95736047D01*
X142627380Y-95687666D01*
X142433857Y-95687666D01*
X142337095Y-95736047D01*
X142288714Y-95784428D01*
X142240333Y-95881190D01*
X143207952Y-95397380D02*
X143256333Y-95349000D01*
X143353095Y-95300619D01*
X143595000Y-95300619D01*
X143691761Y-95349000D01*
X143740142Y-95397380D01*
X143788523Y-95494142D01*
X143788523Y-95590904D01*
X143740142Y-95736047D01*
X143159571Y-96316619D01*
X143788523Y-96316619D01*
X144562619Y-95784428D02*
X144707761Y-95832809D01*
X144756142Y-95881190D01*
X144804523Y-95977952D01*
X144804523Y-96123095D01*
X144756142Y-96219857D01*
X144707761Y-96268238D01*
X144611000Y-96316619D01*
X144223952Y-96316619D01*
X144223952Y-95300619D01*
X144562619Y-95300619D01*
X144659380Y-95349000D01*
X144707761Y-95397380D01*
X144756142Y-95494142D01*
X144756142Y-95590904D01*
X144707761Y-95687666D01*
X144659380Y-95736047D01*
X144562619Y-95784428D01*
X144223952Y-95784428D01*
D16*
X157192428Y-98106714D02*
X157192428Y-98723571D01*
X157228714Y-98796142D01*
X157265000Y-98832428D01*
X157337571Y-98868714D01*
X157482714Y-98868714D01*
X157555285Y-98832428D01*
X157591571Y-98796142D01*
X157627857Y-98723571D01*
X157627857Y-98106714D01*
X157954428Y-98179285D02*
X157990714Y-98143000D01*
X158063285Y-98106714D01*
X158244714Y-98106714D01*
X158317285Y-98143000D01*
X158353571Y-98179285D01*
X158389857Y-98251857D01*
X158389857Y-98324428D01*
X158353571Y-98433285D01*
X157918142Y-98868714D01*
X158389857Y-98868714D01*
X155087857Y-96165428D02*
X155196714Y-96201714D01*
X155378142Y-96201714D01*
X155450714Y-96165428D01*
X155487000Y-96129142D01*
X155523285Y-96056571D01*
X155523285Y-95984000D01*
X155487000Y-95911428D01*
X155450714Y-95875142D01*
X155378142Y-95838857D01*
X155233000Y-95802571D01*
X155160428Y-95766285D01*
X155124142Y-95730000D01*
X155087857Y-95657428D01*
X155087857Y-95584857D01*
X155124142Y-95512285D01*
X155160428Y-95476000D01*
X155233000Y-95439714D01*
X155414428Y-95439714D01*
X155523285Y-95476000D01*
X155849857Y-96201714D02*
X155849857Y-95439714D01*
X156285285Y-96201714D01*
X156285285Y-95439714D01*
X156575571Y-95439714D02*
X157083571Y-95439714D01*
X156757000Y-96201714D01*
X157736714Y-95439714D02*
X157373857Y-95439714D01*
X157337571Y-95802571D01*
X157373857Y-95766285D01*
X157446428Y-95730000D01*
X157627857Y-95730000D01*
X157700428Y-95766285D01*
X157736714Y-95802571D01*
X157773000Y-95875142D01*
X157773000Y-96056571D01*
X157736714Y-96129142D01*
X157700428Y-96165428D01*
X157627857Y-96201714D01*
X157446428Y-96201714D01*
X157373857Y-96165428D01*
X157337571Y-96129142D01*
X158498714Y-96201714D02*
X158063285Y-96201714D01*
X158281000Y-96201714D02*
X158281000Y-95439714D01*
X158208428Y-95548571D01*
X158135857Y-95621142D01*
X158063285Y-95657428D01*
X159151857Y-95439714D02*
X159006714Y-95439714D01*
X158934142Y-95476000D01*
X158897857Y-95512285D01*
X158825285Y-95621142D01*
X158789000Y-95766285D01*
X158789000Y-96056571D01*
X158825285Y-96129142D01*
X158861571Y-96165428D01*
X158934142Y-96201714D01*
X159079285Y-96201714D01*
X159151857Y-96165428D01*
X159188142Y-96129142D01*
X159224428Y-96056571D01*
X159224428Y-95875142D01*
X159188142Y-95802571D01*
X159151857Y-95766285D01*
X159079285Y-95730000D01*
X158934142Y-95730000D01*
X158861571Y-95766285D01*
X158825285Y-95802571D01*
X158789000Y-95875142D01*
X159696142Y-95439714D02*
X159768714Y-95439714D01*
X159841285Y-95476000D01*
X159877571Y-95512285D01*
X159913857Y-95584857D01*
X159950142Y-95730000D01*
X159950142Y-95911428D01*
X159913857Y-96056571D01*
X159877571Y-96129142D01*
X159841285Y-96165428D01*
X159768714Y-96201714D01*
X159696142Y-96201714D01*
X159623571Y-96165428D01*
X159587285Y-96129142D01*
X159551000Y-96056571D01*
X159514714Y-95911428D01*
X159514714Y-95730000D01*
X159551000Y-95584857D01*
X159587285Y-95512285D01*
X159623571Y-95476000D01*
X159696142Y-95439714D01*
X160530714Y-95802571D02*
X160639571Y-95838857D01*
X160675857Y-95875142D01*
X160712142Y-95947714D01*
X160712142Y-96056571D01*
X160675857Y-96129142D01*
X160639571Y-96165428D01*
X160567000Y-96201714D01*
X160276714Y-96201714D01*
X160276714Y-95439714D01*
X160530714Y-95439714D01*
X160603285Y-95476000D01*
X160639571Y-95512285D01*
X160675857Y-95584857D01*
X160675857Y-95657428D01*
X160639571Y-95730000D01*
X160603285Y-95766285D01*
X160530714Y-95802571D01*
X160276714Y-95802571D01*
D15*
X154250784Y-115814768D02*
X154250784Y-117048482D01*
X154299165Y-117193625D01*
X154347546Y-117266197D01*
X154444308Y-117338768D01*
X154637832Y-117338768D01*
X154734594Y-117266197D01*
X154782975Y-117193625D01*
X154831356Y-117048482D01*
X154831356Y-115814768D01*
X155847356Y-117338768D02*
X155266784Y-117338768D01*
X155557070Y-117338768D02*
X155557070Y-115814768D01*
X155460308Y-116032482D01*
X155363546Y-116177625D01*
X155266784Y-116250197D01*
D12*
X147734285Y-119074523D02*
X147734285Y-117804523D01*
X148024571Y-117804523D01*
X148097142Y-117865000D01*
X148133428Y-117925476D01*
X148169714Y-118046428D01*
X148169714Y-118227857D01*
X148133428Y-118348809D01*
X148097142Y-118409285D01*
X148024571Y-118469761D01*
X147734285Y-118469761D01*
X148496285Y-119074523D02*
X148496285Y-117804523D01*
X149294571Y-118953571D02*
X149258285Y-119014047D01*
X149149428Y-119074523D01*
X149076857Y-119074523D01*
X148968000Y-119014047D01*
X148895428Y-118893095D01*
X148859142Y-118772142D01*
X148822857Y-118530238D01*
X148822857Y-118348809D01*
X148859142Y-118106904D01*
X148895428Y-117985952D01*
X148968000Y-117865000D01*
X149076857Y-117804523D01*
X149149428Y-117804523D01*
X149258285Y-117865000D01*
X149294571Y-117925476D01*
X150020285Y-119074523D02*
X149584857Y-119074523D01*
X149802571Y-119074523D02*
X149802571Y-117804523D01*
X149730000Y-117985952D01*
X149657428Y-118106904D01*
X149584857Y-118167380D01*
X150455714Y-118348809D02*
X150383142Y-118288333D01*
X150346857Y-118227857D01*
X150310571Y-118106904D01*
X150310571Y-118046428D01*
X150346857Y-117925476D01*
X150383142Y-117865000D01*
X150455714Y-117804523D01*
X150600857Y-117804523D01*
X150673428Y-117865000D01*
X150709714Y-117925476D01*
X150746000Y-118046428D01*
X150746000Y-118106904D01*
X150709714Y-118227857D01*
X150673428Y-118288333D01*
X150600857Y-118348809D01*
X150455714Y-118348809D01*
X150383142Y-118409285D01*
X150346857Y-118469761D01*
X150310571Y-118590714D01*
X150310571Y-118832619D01*
X150346857Y-118953571D01*
X150383142Y-119014047D01*
X150455714Y-119074523D01*
X150600857Y-119074523D01*
X150673428Y-119014047D01*
X150709714Y-118953571D01*
X150746000Y-118832619D01*
X150746000Y-118590714D01*
X150709714Y-118469761D01*
X150673428Y-118409285D01*
X150600857Y-118348809D01*
X151326571Y-118409285D02*
X151072571Y-118409285D01*
X151072571Y-119074523D02*
X151072571Y-117804523D01*
X151435428Y-117804523D01*
X152052285Y-118227857D02*
X152052285Y-119074523D01*
X151870857Y-117744047D02*
X151689428Y-118651190D01*
X152161142Y-118651190D01*
X152814285Y-117804523D02*
X152451428Y-117804523D01*
X152415142Y-118409285D01*
X152451428Y-118348809D01*
X152524000Y-118288333D01*
X152705428Y-118288333D01*
X152778000Y-118348809D01*
X152814285Y-118409285D01*
X152850571Y-118530238D01*
X152850571Y-118832619D01*
X152814285Y-118953571D01*
X152778000Y-119014047D01*
X152705428Y-119074523D01*
X152524000Y-119074523D01*
X152451428Y-119014047D01*
X152415142Y-118953571D01*
X153140857Y-117925476D02*
X153177142Y-117865000D01*
X153249714Y-117804523D01*
X153431142Y-117804523D01*
X153503714Y-117865000D01*
X153540000Y-117925476D01*
X153576285Y-118046428D01*
X153576285Y-118167380D01*
X153540000Y-118348809D01*
X153104571Y-119074523D01*
X153576285Y-119074523D01*
X154048000Y-117804523D02*
X154120571Y-117804523D01*
X154193142Y-117865000D01*
X154229428Y-117925476D01*
X154265714Y-118046428D01*
X154302000Y-118288333D01*
X154302000Y-118590714D01*
X154265714Y-118832619D01*
X154229428Y-118953571D01*
X154193142Y-119014047D01*
X154120571Y-119074523D01*
X154048000Y-119074523D01*
X153975428Y-119014047D01*
X153939142Y-118953571D01*
X153902857Y-118832619D01*
X153866571Y-118590714D01*
X153866571Y-118288333D01*
X153902857Y-118046428D01*
X153939142Y-117925476D01*
X153975428Y-117865000D01*
X154048000Y-117804523D01*
D10*
X174761904Y-108452380D02*
X174761904Y-107452380D01*
X175142857Y-107452380D01*
X175238095Y-107500000D01*
X175285714Y-107547619D01*
X175333333Y-107642857D01*
X175333333Y-107785714D01*
X175285714Y-107880952D01*
X175238095Y-107928571D01*
X175142857Y-107976190D01*
X174761904Y-107976190D01*
X176238095Y-107452380D02*
X175761904Y-107452380D01*
X175714285Y-107928571D01*
X175761904Y-107880952D01*
X175857142Y-107833333D01*
X176095238Y-107833333D01*
X176190476Y-107880952D01*
X176238095Y-107928571D01*
X176285714Y-108023809D01*
X176285714Y-108261904D01*
X176238095Y-108357142D01*
X176190476Y-108404761D01*
X176095238Y-108452380D01*
X175857142Y-108452380D01*
X175761904Y-108404761D01*
X175714285Y-108357142D01*
X171433333Y-93652380D02*
X171100000Y-93176190D01*
X170861904Y-93652380D02*
X170861904Y-92652380D01*
X171242857Y-92652380D01*
X171338095Y-92700000D01*
X171385714Y-92747619D01*
X171433333Y-92842857D01*
X171433333Y-92985714D01*
X171385714Y-93080952D01*
X171338095Y-93128571D01*
X171242857Y-93176190D01*
X170861904Y-93176190D01*
X171766666Y-92652380D02*
X172385714Y-92652380D01*
X172052380Y-93033333D01*
X172195238Y-93033333D01*
X172290476Y-93080952D01*
X172338095Y-93128571D01*
X172385714Y-93223809D01*
X172385714Y-93461904D01*
X172338095Y-93557142D01*
X172290476Y-93604761D01*
X172195238Y-93652380D01*
X171909523Y-93652380D01*
X171814285Y-93604761D01*
X171766666Y-93557142D01*
X125833333Y-100452380D02*
X125500000Y-99976190D01*
X125261904Y-100452380D02*
X125261904Y-99452380D01*
X125642857Y-99452380D01*
X125738095Y-99500000D01*
X125785714Y-99547619D01*
X125833333Y-99642857D01*
X125833333Y-99785714D01*
X125785714Y-99880952D01*
X125738095Y-99928571D01*
X125642857Y-99976190D01*
X125261904Y-99976190D01*
X126690476Y-99785714D02*
X126690476Y-100452380D01*
X126452380Y-99404761D02*
X126214285Y-100119047D01*
X126833333Y-100119047D01*
X128133333Y-93052380D02*
X127800000Y-92576190D01*
X127561904Y-93052380D02*
X127561904Y-92052380D01*
X127942857Y-92052380D01*
X128038095Y-92100000D01*
X128085714Y-92147619D01*
X128133333Y-92242857D01*
X128133333Y-92385714D01*
X128085714Y-92480952D01*
X128038095Y-92528571D01*
X127942857Y-92576190D01*
X127561904Y-92576190D01*
X129038095Y-92052380D02*
X128561904Y-92052380D01*
X128514285Y-92528571D01*
X128561904Y-92480952D01*
X128657142Y-92433333D01*
X128895238Y-92433333D01*
X128990476Y-92480952D01*
X129038095Y-92528571D01*
X129085714Y-92623809D01*
X129085714Y-92861904D01*
X129038095Y-92957142D01*
X128990476Y-93004761D01*
X128895238Y-93052380D01*
X128657142Y-93052380D01*
X128561904Y-93004761D01*
X128514285Y-92957142D01*
X169933333Y-102602380D02*
X169600000Y-102126190D01*
X169361904Y-102602380D02*
X169361904Y-101602380D01*
X169742857Y-101602380D01*
X169838095Y-101650000D01*
X169885714Y-101697619D01*
X169933333Y-101792857D01*
X169933333Y-101935714D01*
X169885714Y-102030952D01*
X169838095Y-102078571D01*
X169742857Y-102126190D01*
X169361904Y-102126190D01*
X170790476Y-101602380D02*
X170600000Y-101602380D01*
X170504761Y-101650000D01*
X170457142Y-101697619D01*
X170361904Y-101840476D01*
X170314285Y-102030952D01*
X170314285Y-102411904D01*
X170361904Y-102507142D01*
X170409523Y-102554761D01*
X170504761Y-102602380D01*
X170695238Y-102602380D01*
X170790476Y-102554761D01*
X170838095Y-102507142D01*
X170885714Y-102411904D01*
X170885714Y-102173809D01*
X170838095Y-102078571D01*
X170790476Y-102030952D01*
X170695238Y-101983333D01*
X170504761Y-101983333D01*
X170409523Y-102030952D01*
X170361904Y-102078571D01*
X170314285Y-102173809D01*
X167652380Y-102316666D02*
X167176190Y-102650000D01*
X167652380Y-102888095D02*
X166652380Y-102888095D01*
X166652380Y-102507142D01*
X166700000Y-102411904D01*
X166747619Y-102364285D01*
X166842857Y-102316666D01*
X166985714Y-102316666D01*
X167080952Y-102364285D01*
X167128571Y-102411904D01*
X167176190Y-102507142D01*
X167176190Y-102888095D01*
X166652380Y-101983333D02*
X166652380Y-101316666D01*
X167652380Y-101745238D01*
X163857142Y-112666666D02*
X163904761Y-112714285D01*
X163952380Y-112857142D01*
X163952380Y-112952380D01*
X163904761Y-113095238D01*
X163809523Y-113190476D01*
X163714285Y-113238095D01*
X163523809Y-113285714D01*
X163380952Y-113285714D01*
X163190476Y-113238095D01*
X163095238Y-113190476D01*
X163000000Y-113095238D01*
X162952380Y-112952380D01*
X162952380Y-112857142D01*
X163000000Y-112714285D01*
X163047619Y-112666666D01*
X163952380Y-111714285D02*
X163952380Y-112285714D01*
X163952380Y-112000000D02*
X162952380Y-112000000D01*
X163095238Y-112095238D01*
X163190476Y-112190476D01*
X163238095Y-112285714D01*
X135657142Y-112966666D02*
X135704761Y-113014285D01*
X135752380Y-113157142D01*
X135752380Y-113252380D01*
X135704761Y-113395238D01*
X135609523Y-113490476D01*
X135514285Y-113538095D01*
X135323809Y-113585714D01*
X135180952Y-113585714D01*
X134990476Y-113538095D01*
X134895238Y-113490476D01*
X134800000Y-113395238D01*
X134752380Y-113252380D01*
X134752380Y-113157142D01*
X134800000Y-113014285D01*
X134847619Y-112966666D01*
X134847619Y-112585714D02*
X134800000Y-112538095D01*
X134752380Y-112442857D01*
X134752380Y-112204761D01*
X134800000Y-112109523D01*
X134847619Y-112061904D01*
X134942857Y-112014285D01*
X135038095Y-112014285D01*
X135180952Y-112061904D01*
X135752380Y-112633333D01*
X135752380Y-112014285D01*
X135757142Y-116466666D02*
X135804761Y-116514285D01*
X135852380Y-116657142D01*
X135852380Y-116752380D01*
X135804761Y-116895238D01*
X135709523Y-116990476D01*
X135614285Y-117038095D01*
X135423809Y-117085714D01*
X135280952Y-117085714D01*
X135090476Y-117038095D01*
X134995238Y-116990476D01*
X134900000Y-116895238D01*
X134852380Y-116752380D01*
X134852380Y-116657142D01*
X134900000Y-116514285D01*
X134947619Y-116466666D01*
X134852380Y-116133333D02*
X134852380Y-115514285D01*
X135233333Y-115847619D01*
X135233333Y-115704761D01*
X135280952Y-115609523D01*
X135328571Y-115561904D01*
X135423809Y-115514285D01*
X135661904Y-115514285D01*
X135757142Y-115561904D01*
X135804761Y-115609523D01*
X135852380Y-115704761D01*
X135852380Y-115990476D01*
X135804761Y-116085714D01*
X135757142Y-116133333D01*
X140083333Y-108957142D02*
X140035714Y-109004761D01*
X139892857Y-109052380D01*
X139797619Y-109052380D01*
X139654761Y-109004761D01*
X139559523Y-108909523D01*
X139511904Y-108814285D01*
X139464285Y-108623809D01*
X139464285Y-108480952D01*
X139511904Y-108290476D01*
X139559523Y-108195238D01*
X139654761Y-108100000D01*
X139797619Y-108052380D01*
X139892857Y-108052380D01*
X140035714Y-108100000D01*
X140083333Y-108147619D01*
X140940476Y-108385714D02*
X140940476Y-109052380D01*
X140702380Y-108004761D02*
X140464285Y-108719047D01*
X141083333Y-108719047D01*
X173857142Y-104166666D02*
X173904761Y-104214285D01*
X173952380Y-104357142D01*
X173952380Y-104452380D01*
X173904761Y-104595238D01*
X173809523Y-104690476D01*
X173714285Y-104738095D01*
X173523809Y-104785714D01*
X173380952Y-104785714D01*
X173190476Y-104738095D01*
X173095238Y-104690476D01*
X173000000Y-104595238D01*
X172952380Y-104452380D01*
X172952380Y-104357142D01*
X173000000Y-104214285D01*
X173047619Y-104166666D01*
X172952380Y-103261904D02*
X172952380Y-103738095D01*
X173428571Y-103785714D01*
X173380952Y-103738095D01*
X173333333Y-103642857D01*
X173333333Y-103404761D01*
X173380952Y-103309523D01*
X173428571Y-103261904D01*
X173523809Y-103214285D01*
X173761904Y-103214285D01*
X173857142Y-103261904D01*
X173904761Y-103309523D01*
X173952380Y-103404761D01*
X173952380Y-103642857D01*
X173904761Y-103738095D01*
X173857142Y-103785714D01*
X158557142Y-111566666D02*
X158604761Y-111614285D01*
X158652380Y-111757142D01*
X158652380Y-111852380D01*
X158604761Y-111995238D01*
X158509523Y-112090476D01*
X158414285Y-112138095D01*
X158223809Y-112185714D01*
X158080952Y-112185714D01*
X157890476Y-112138095D01*
X157795238Y-112090476D01*
X157700000Y-111995238D01*
X157652380Y-111852380D01*
X157652380Y-111757142D01*
X157700000Y-111614285D01*
X157747619Y-111566666D01*
X157652380Y-110709523D02*
X157652380Y-110900000D01*
X157700000Y-110995238D01*
X157747619Y-111042857D01*
X157890476Y-111138095D01*
X158080952Y-111185714D01*
X158461904Y-111185714D01*
X158557142Y-111138095D01*
X158604761Y-111090476D01*
X158652380Y-110995238D01*
X158652380Y-110804761D01*
X158604761Y-110709523D01*
X158557142Y-110661904D01*
X158461904Y-110614285D01*
X158223809Y-110614285D01*
X158128571Y-110661904D01*
X158080952Y-110709523D01*
X158033333Y-110804761D01*
X158033333Y-110995238D01*
X158080952Y-111090476D01*
X158128571Y-111138095D01*
X158223809Y-111185714D01*
X148457142Y-101166666D02*
X148504761Y-101214285D01*
X148552380Y-101357142D01*
X148552380Y-101452380D01*
X148504761Y-101595238D01*
X148409523Y-101690476D01*
X148314285Y-101738095D01*
X148123809Y-101785714D01*
X147980952Y-101785714D01*
X147790476Y-101738095D01*
X147695238Y-101690476D01*
X147600000Y-101595238D01*
X147552380Y-101452380D01*
X147552380Y-101357142D01*
X147600000Y-101214285D01*
X147647619Y-101166666D01*
X147552380Y-100833333D02*
X147552380Y-100166666D01*
X148552380Y-100595238D01*
X168807142Y-94316666D02*
X168854761Y-94364285D01*
X168902380Y-94507142D01*
X168902380Y-94602380D01*
X168854761Y-94745238D01*
X168759523Y-94840476D01*
X168664285Y-94888095D01*
X168473809Y-94935714D01*
X168330952Y-94935714D01*
X168140476Y-94888095D01*
X168045238Y-94840476D01*
X167950000Y-94745238D01*
X167902380Y-94602380D01*
X167902380Y-94507142D01*
X167950000Y-94364285D01*
X167997619Y-94316666D01*
X168330952Y-93745238D02*
X168283333Y-93840476D01*
X168235714Y-93888095D01*
X168140476Y-93935714D01*
X168092857Y-93935714D01*
X167997619Y-93888095D01*
X167950000Y-93840476D01*
X167902380Y-93745238D01*
X167902380Y-93554761D01*
X167950000Y-93459523D01*
X167997619Y-93411904D01*
X168092857Y-93364285D01*
X168140476Y-93364285D01*
X168235714Y-93411904D01*
X168283333Y-93459523D01*
X168330952Y-93554761D01*
X168330952Y-93745238D01*
X168378571Y-93840476D01*
X168426190Y-93888095D01*
X168521428Y-93935714D01*
X168711904Y-93935714D01*
X168807142Y-93888095D01*
X168854761Y-93840476D01*
X168902380Y-93745238D01*
X168902380Y-93554761D01*
X168854761Y-93459523D01*
X168807142Y-93411904D01*
X168711904Y-93364285D01*
X168521428Y-93364285D01*
X168426190Y-93411904D01*
X168378571Y-93459523D01*
X168330952Y-93554761D01*
X165557142Y-104366666D02*
X165604761Y-104414285D01*
X165652380Y-104557142D01*
X165652380Y-104652380D01*
X165604761Y-104795238D01*
X165509523Y-104890476D01*
X165414285Y-104938095D01*
X165223809Y-104985714D01*
X165080952Y-104985714D01*
X164890476Y-104938095D01*
X164795238Y-104890476D01*
X164700000Y-104795238D01*
X164652380Y-104652380D01*
X164652380Y-104557142D01*
X164700000Y-104414285D01*
X164747619Y-104366666D01*
X165652380Y-103890476D02*
X165652380Y-103700000D01*
X165604761Y-103604761D01*
X165557142Y-103557142D01*
X165414285Y-103461904D01*
X165223809Y-103414285D01*
X164842857Y-103414285D01*
X164747619Y-103461904D01*
X164700000Y-103509523D01*
X164652380Y-103604761D01*
X164652380Y-103795238D01*
X164700000Y-103890476D01*
X164747619Y-103938095D01*
X164842857Y-103985714D01*
X165080952Y-103985714D01*
X165176190Y-103938095D01*
X165223809Y-103890476D01*
X165271428Y-103795238D01*
X165271428Y-103604761D01*
X165223809Y-103509523D01*
X165176190Y-103461904D01*
X165080952Y-103414285D01*
X165857142Y-103857142D02*
X165809523Y-103904761D01*
X165666666Y-103952380D01*
X165571428Y-103952380D01*
X165428571Y-103904761D01*
X165333333Y-103809523D01*
X165285714Y-103714285D01*
X165238095Y-103523809D01*
X165238095Y-103380952D01*
X165285714Y-103190476D01*
X165333333Y-103095238D01*
X165428571Y-103000000D01*
X165571428Y-102952380D01*
X165666666Y-102952380D01*
X165809523Y-103000000D01*
X165857142Y-103047619D01*
X166809523Y-103952380D02*
X166238095Y-103952380D01*
X166523809Y-103952380D02*
X166523809Y-102952380D01*
X166428571Y-103095238D01*
X166333333Y-103190476D01*
X166238095Y-103238095D01*
X167428571Y-102952380D02*
X167523809Y-102952380D01*
X167619047Y-103000000D01*
X167666666Y-103047619D01*
X167714285Y-103142857D01*
X167761904Y-103333333D01*
X167761904Y-103571428D01*
X167714285Y-103761904D01*
X167666666Y-103857142D01*
X167619047Y-103904761D01*
X167523809Y-103952380D01*
X167428571Y-103952380D01*
X167333333Y-103904761D01*
X167285714Y-103857142D01*
X167238095Y-103761904D01*
X167190476Y-103571428D01*
X167190476Y-103333333D01*
X167238095Y-103142857D01*
X167285714Y-103047619D01*
X167333333Y-103000000D01*
X167428571Y-102952380D01*
X156857142Y-108457142D02*
X156809523Y-108504761D01*
X156666666Y-108552380D01*
X156571428Y-108552380D01*
X156428571Y-108504761D01*
X156333333Y-108409523D01*
X156285714Y-108314285D01*
X156238095Y-108123809D01*
X156238095Y-107980952D01*
X156285714Y-107790476D01*
X156333333Y-107695238D01*
X156428571Y-107600000D01*
X156571428Y-107552380D01*
X156666666Y-107552380D01*
X156809523Y-107600000D01*
X156857142Y-107647619D01*
X157809523Y-108552380D02*
X157238095Y-108552380D01*
X157523809Y-108552380D02*
X157523809Y-107552380D01*
X157428571Y-107695238D01*
X157333333Y-107790476D01*
X157238095Y-107838095D01*
X158761904Y-108552380D02*
X158190476Y-108552380D01*
X158476190Y-108552380D02*
X158476190Y-107552380D01*
X158380952Y-107695238D01*
X158285714Y-107790476D01*
X158190476Y-107838095D01*
X171357142Y-106857142D02*
X171309523Y-106904761D01*
X171166666Y-106952380D01*
X171071428Y-106952380D01*
X170928571Y-106904761D01*
X170833333Y-106809523D01*
X170785714Y-106714285D01*
X170738095Y-106523809D01*
X170738095Y-106380952D01*
X170785714Y-106190476D01*
X170833333Y-106095238D01*
X170928571Y-106000000D01*
X171071428Y-105952380D01*
X171166666Y-105952380D01*
X171309523Y-106000000D01*
X171357142Y-106047619D01*
X172309523Y-106952380D02*
X171738095Y-106952380D01*
X172023809Y-106952380D02*
X172023809Y-105952380D01*
X171928571Y-106095238D01*
X171833333Y-106190476D01*
X171738095Y-106238095D01*
X172690476Y-106047619D02*
X172738095Y-106000000D01*
X172833333Y-105952380D01*
X173071428Y-105952380D01*
X173166666Y-106000000D01*
X173214285Y-106047619D01*
X173261904Y-106142857D01*
X173261904Y-106238095D01*
X173214285Y-106380952D01*
X172642857Y-106952380D01*
X173261904Y-106952380D01*
X128361904Y-94652380D02*
X128361904Y-93652380D01*
X128600000Y-93652380D01*
X128742857Y-93700000D01*
X128838095Y-93795238D01*
X128885714Y-93890476D01*
X128933333Y-94080952D01*
X128933333Y-94223809D01*
X128885714Y-94414285D01*
X128838095Y-94509523D01*
X128742857Y-94604761D01*
X128600000Y-94652380D01*
X128361904Y-94652380D01*
X129885714Y-94652380D02*
X129314285Y-94652380D01*
X129600000Y-94652380D02*
X129600000Y-93652380D01*
X129504761Y-93795238D01*
X129409523Y-93890476D01*
X129314285Y-93938095D01*
X128561904Y-96752380D02*
X128561904Y-95752380D01*
X128800000Y-95752380D01*
X128942857Y-95800000D01*
X129038095Y-95895238D01*
X129085714Y-95990476D01*
X129133333Y-96180952D01*
X129133333Y-96323809D01*
X129085714Y-96514285D01*
X129038095Y-96609523D01*
X128942857Y-96704761D01*
X128800000Y-96752380D01*
X128561904Y-96752380D01*
X129514285Y-95847619D02*
X129561904Y-95800000D01*
X129657142Y-95752380D01*
X129895238Y-95752380D01*
X129990476Y-95800000D01*
X130038095Y-95847619D01*
X130085714Y-95942857D01*
X130085714Y-96038095D01*
X130038095Y-96180952D01*
X129466666Y-96752380D01*
X130085714Y-96752380D01*
X175261904Y-99952380D02*
X175261904Y-98952380D01*
X175500000Y-98952380D01*
X175642857Y-99000000D01*
X175738095Y-99095238D01*
X175785714Y-99190476D01*
X175833333Y-99380952D01*
X175833333Y-99523809D01*
X175785714Y-99714285D01*
X175738095Y-99809523D01*
X175642857Y-99904761D01*
X175500000Y-99952380D01*
X175261904Y-99952380D01*
X176166666Y-98952380D02*
X176785714Y-98952380D01*
X176452380Y-99333333D01*
X176595238Y-99333333D01*
X176690476Y-99380952D01*
X176738095Y-99428571D01*
X176785714Y-99523809D01*
X176785714Y-99761904D01*
X176738095Y-99857142D01*
X176690476Y-99904761D01*
X176595238Y-99952380D01*
X176309523Y-99952380D01*
X176214285Y-99904761D01*
X176166666Y-99857142D01*
X173061904Y-99952380D02*
X173061904Y-98952380D01*
X173300000Y-98952380D01*
X173442857Y-99000000D01*
X173538095Y-99095238D01*
X173585714Y-99190476D01*
X173633333Y-99380952D01*
X173633333Y-99523809D01*
X173585714Y-99714285D01*
X173538095Y-99809523D01*
X173442857Y-99904761D01*
X173300000Y-99952380D01*
X173061904Y-99952380D01*
X174490476Y-99285714D02*
X174490476Y-99952380D01*
X174252380Y-98904761D02*
X174014285Y-99619047D01*
X174633333Y-99619047D01*
X163633333Y-107952380D02*
X163157142Y-107952380D01*
X163157142Y-106952380D01*
X164490476Y-107952380D02*
X163919047Y-107952380D01*
X164204761Y-107952380D02*
X164204761Y-106952380D01*
X164109523Y-107095238D01*
X164014285Y-107190476D01*
X163919047Y-107238095D01*
D17*
X137432142Y-92764428D02*
X137432142Y-91240428D01*
X138012714Y-91240428D01*
X138157857Y-91313000D01*
X138230428Y-91385571D01*
X138303000Y-91530714D01*
X138303000Y-91748428D01*
X138230428Y-91893571D01*
X138157857Y-91966142D01*
X138012714Y-92038714D01*
X137432142Y-92038714D01*
X139754428Y-92764428D02*
X138883571Y-92764428D01*
X139319000Y-92764428D02*
X139319000Y-91240428D01*
X139173857Y-91458142D01*
X139028714Y-91603285D01*
X138883571Y-91675857D01*
X165293428Y-89344285D02*
X165220857Y-89416857D01*
X165003142Y-89489428D01*
X164858000Y-89489428D01*
X164640285Y-89416857D01*
X164495142Y-89271714D01*
X164422571Y-89126571D01*
X164350000Y-88836285D01*
X164350000Y-88618571D01*
X164422571Y-88328285D01*
X164495142Y-88183142D01*
X164640285Y-88038000D01*
X164858000Y-87965428D01*
X165003142Y-87965428D01*
X165220857Y-88038000D01*
X165293428Y-88110571D01*
X166236857Y-87965428D02*
X166527142Y-87965428D01*
X166672285Y-88038000D01*
X166817428Y-88183142D01*
X166890000Y-88473428D01*
X166890000Y-88981428D01*
X166817428Y-89271714D01*
X166672285Y-89416857D01*
X166527142Y-89489428D01*
X166236857Y-89489428D01*
X166091714Y-89416857D01*
X165946571Y-89271714D01*
X165874000Y-88981428D01*
X165874000Y-88473428D01*
X165946571Y-88183142D01*
X166091714Y-88038000D01*
X166236857Y-87965428D01*
X167543142Y-89489428D02*
X167543142Y-87965428D01*
X168414000Y-89489428D01*
X168414000Y-87965428D01*
X169139714Y-89489428D02*
X169139714Y-87965428D01*
X170010571Y-89489428D01*
X170010571Y-87965428D01*
X170373428Y-89634571D02*
X171534571Y-89634571D01*
X172695714Y-89489428D02*
X171824857Y-89489428D01*
X172260285Y-89489428D02*
X172260285Y-87965428D01*
X172115142Y-88183142D01*
X171970000Y-88328285D01*
X171824857Y-88400857D01*
X173276285Y-88110571D02*
X173348857Y-88038000D01*
X173494000Y-87965428D01*
X173856857Y-87965428D01*
X174002000Y-88038000D01*
X174074571Y-88110571D01*
X174147142Y-88255714D01*
X174147142Y-88400857D01*
X174074571Y-88618571D01*
X173203714Y-89489428D01*
X174147142Y-89489428D01*
X174655142Y-87965428D02*
X175671142Y-89489428D01*
X175671142Y-87965428D02*
X174655142Y-89489428D01*
X176179142Y-88110571D02*
X176251714Y-88038000D01*
X176396857Y-87965428D01*
X176759714Y-87965428D01*
X176904857Y-88038000D01*
X176977428Y-88110571D01*
X177050000Y-88255714D01*
X177050000Y-88400857D01*
X176977428Y-88618571D01*
X176106571Y-89489428D01*
X177050000Y-89489428D01*
D10*
X124761904Y-120592380D02*
X124761904Y-119592380D01*
X125142857Y-119592380D01*
X125238095Y-119640000D01*
X125285714Y-119687619D01*
X125333333Y-119782857D01*
X125333333Y-119925714D01*
X125285714Y-120020952D01*
X125238095Y-120068571D01*
X125142857Y-120116190D01*
X124761904Y-120116190D01*
X125714285Y-119687619D02*
X125761904Y-119640000D01*
X125857142Y-119592380D01*
X126095238Y-119592380D01*
X126190476Y-119640000D01*
X126238095Y-119687619D01*
X126285714Y-119782857D01*
X126285714Y-119878095D01*
X126238095Y-120020952D01*
X125666666Y-120592380D01*
X126285714Y-120592380D01*
X127452380Y-105916666D02*
X126976190Y-106250000D01*
X127452380Y-106488095D02*
X126452380Y-106488095D01*
X126452380Y-106107142D01*
X126500000Y-106011904D01*
X126547619Y-105964285D01*
X126642857Y-105916666D01*
X126785714Y-105916666D01*
X126880952Y-105964285D01*
X126928571Y-106011904D01*
X126976190Y-106107142D01*
X126976190Y-106488095D01*
X127452380Y-104964285D02*
X127452380Y-105535714D01*
X127452380Y-105250000D02*
X126452380Y-105250000D01*
X126595238Y-105345238D01*
X126690476Y-105440476D01*
X126738095Y-105535714D01*
X176452380Y-104166666D02*
X175976190Y-104500000D01*
X176452380Y-104738095D02*
X175452380Y-104738095D01*
X175452380Y-104357142D01*
X175500000Y-104261904D01*
X175547619Y-104214285D01*
X175642857Y-104166666D01*
X175785714Y-104166666D01*
X175880952Y-104214285D01*
X175928571Y-104261904D01*
X175976190Y-104357142D01*
X175976190Y-104738095D01*
X175547619Y-103785714D02*
X175500000Y-103738095D01*
X175452380Y-103642857D01*
X175452380Y-103404761D01*
X175500000Y-103309523D01*
X175547619Y-103261904D01*
X175642857Y-103214285D01*
X175738095Y-103214285D01*
X175880952Y-103261904D01*
X176452380Y-103833333D01*
X176452380Y-103214285D01*
X142452380Y-115309523D02*
X143452380Y-114642857D01*
X142452380Y-114642857D02*
X143452380Y-115309523D01*
X143452380Y-113738095D02*
X143452380Y-114309523D01*
X143452380Y-114023809D02*
X142452380Y-114023809D01*
X142595238Y-114119047D01*
X142690476Y-114214285D01*
X142738095Y-114309523D01*
M02*
