M48
;DRILL file {KiCad 4.1.0-alpha+201605091531+6781~44~ubuntu15.10.1-product} date Mon 19 Sep 2016 03:19:49 PM CEST
;FORMAT={-:-/ absolute / metric / decimal}
FMAT,2
METRIC,TZ
T1C0.635
T2C1.016
T3C3.200
%
G90
G05
M71
T1
X126.7Y-91.3
X126.7Y-99.3
X129.5Y-97.4
X130.05Y-107.2
X134.Y-90.4
X134.776Y-111.012
X135.653Y-109.677
X136.1Y-113.6
X136.1Y-115.5
X136.576Y-109.099
X136.8Y-106.
X137.397Y-108.155
X137.912Y-106.683
X138.171Y-111.359
X138.901Y-107.599
X140.1Y-104.6
X140.5Y-99.6
X141.Y-105.466
X141.026Y-107.755
X142.8Y-105.5
X143.6Y-104.6
X145.2Y-113.7
X145.467Y-109.046
X145.6Y-103.378
X145.8Y-114.7
X145.903Y-110.044
X145.92Y-108.056
X146.6Y-114.
X146.602Y-107.199
X147.Y-90.
X147.4Y-106.4
X147.4Y-114.7
X148.2Y-94.1
X148.2Y-107.6
X148.2Y-108.7
X148.9Y-112.7
X149.Y-101.7
X149.2Y-109.2
X149.555Y-98.854
X150.066Y-114.501
X150.155Y-110.466
X151.155Y-114.496
X151.4Y-90.1
X152.243Y-99.954
X152.445Y-111.84
X152.626Y-112.914
X152.7Y-90.2
X152.926Y-114.436
X153.179Y-98.735
X153.298Y-110.242
X154.1Y-97.5
X154.5Y-99.
X154.6Y-116.2
X155.4Y-97.4
X156.664Y-111.614
X157.3Y-99.
X157.9Y-89.7
X158.393Y-110.752
X158.9Y-89.2
X160.9Y-113.8
X163.5Y-111.9
X164.2Y-104.2
X164.6Y-102.
X164.8Y-116.1
X165.8Y-106.
X166.5Y-100.8
X166.5Y-112.5
X166.7Y-99.
X167.444Y-101.956
X168.1Y-93.2
X168.1Y-94.9
X168.4Y-105.5
X169.3Y-98.5
X170.3Y-96.
X171.2Y-100.5
X171.2Y-102.4
X172.3Y-101.5
X173.7Y-110.6
X173.9Y-116.2
X174.6Y-102.3
X177.1Y-110.7
T2
X125.5Y-104.88
X125.5Y-107.42
X125.5Y-109.96
X125.5Y-112.5
X125.5Y-115.04
X138.874Y-82.055
X138.874Y-86.347
X141.034Y-82.055
X141.034Y-86.347
X143.192Y-82.055
X143.192Y-86.347
X145.351Y-82.055
X145.351Y-86.347
X147.511Y-82.055
X147.511Y-86.347
X149.669Y-82.055
X149.669Y-86.347
X151.828Y-82.055
X151.828Y-86.347
X153.987Y-82.055
X153.987Y-86.347
X156.147Y-82.055
X156.147Y-86.347
X158.305Y-82.055
X158.305Y-86.347
X160.464Y-82.055
X160.464Y-86.347
X162.623Y-82.055
X162.623Y-86.347
T3
X127.343Y-84.201
X174.155Y-84.201
T0
M30
