G04 #@! TF.FileFunction,Soldermask,Top*
%FSLAX46Y46*%
G04 Gerber Fmt 4.6, Leading zero omitted, Abs format (unit mm)*
G04 Created by KiCad (PCBNEW 4.1.0-alpha+201605091531+6781~44~ubuntu15.10.1-product) date Mon 19 Sep 2016 03:19:41 PM CEST*
%MOMM*%
%LPD*%
G01*
G04 APERTURE LIST*
%ADD10C,0.150000*%
%ADD11R,2.508000X2.508000*%
%ADD12O,0.808000X1.108000*%
%ADD13O,1.108000X0.808000*%
%ADD14R,1.108000X2.508000*%
%ADD15R,0.914400X2.032000*%
%ADD16R,2.032000X0.914400*%
%ADD17R,1.008380X2.809240*%
%ADD18R,2.506980X3.007360*%
%ADD19C,1.407160*%
%ADD20R,1.008000X1.408000*%
%ADD21R,1.408000X1.008000*%
%ADD22R,1.258000X1.308000*%
%ADD23R,1.308000X1.258000*%
%ADD24R,3.008000X1.508000*%
%ADD25R,1.706880X1.706880*%
%ADD26C,1.905000*%
%ADD27C,3.708400*%
%ADD28R,2.540000X2.235200*%
%ADD29O,2.540000X2.235200*%
%ADD30R,2.908000X2.408000*%
G04 APERTURE END LIST*
D10*
D11*
X169300000Y-98500000D03*
D12*
X168325000Y-96900000D03*
X168975000Y-96900000D03*
X169625000Y-96900000D03*
X170275000Y-96900000D03*
D13*
X170900000Y-97525000D03*
X170900000Y-98175000D03*
X170900000Y-98825000D03*
X170900000Y-99475000D03*
D12*
X170275000Y-100100000D03*
X169625000Y-100100000D03*
X168975000Y-100100000D03*
X168325000Y-100100000D03*
D13*
X167700000Y-99475000D03*
X167700000Y-98825000D03*
X167700000Y-98175000D03*
X167700000Y-97525000D03*
D14*
X148040000Y-92300000D03*
X146770000Y-92300000D03*
X145500000Y-92300000D03*
X144230000Y-92300000D03*
X142960000Y-92300000D03*
X141690000Y-92300000D03*
X140420000Y-92300000D03*
X139150000Y-92300000D03*
X137880000Y-92300000D03*
X136610000Y-92300000D03*
X135340000Y-92300000D03*
X133943000Y-92300000D03*
X148040000Y-101700000D03*
X146770000Y-101700000D03*
X145500000Y-101700000D03*
X144230000Y-101700000D03*
X142960000Y-101700000D03*
X141690000Y-101700000D03*
X140420000Y-101700000D03*
X139150000Y-101700000D03*
X137880000Y-101700000D03*
X136610000Y-101700000D03*
X135340000Y-101700000D03*
X134070000Y-101700000D03*
X163615000Y-92300000D03*
X162345000Y-92300000D03*
X161075000Y-92300000D03*
X159805000Y-92300000D03*
X158535000Y-92300000D03*
X157265000Y-92300000D03*
X155995000Y-92300000D03*
X154725000Y-92300000D03*
X153455000Y-92300000D03*
X152185000Y-92300000D03*
X152185000Y-101700000D03*
X153455000Y-101700000D03*
X154725000Y-101700000D03*
X155995000Y-101700000D03*
X157265000Y-101700000D03*
X158535000Y-101700000D03*
X159805000Y-101700000D03*
X161075000Y-101700000D03*
X162345000Y-101700000D03*
X163615000Y-101700000D03*
D15*
X149000000Y-116215000D03*
X149800100Y-116215000D03*
X150600200Y-116215000D03*
X151400300Y-116215000D03*
X152200400Y-116215000D03*
X153000500Y-116215000D03*
X148199900Y-116215000D03*
X147399800Y-116215000D03*
X146599700Y-116215000D03*
X145799600Y-116215000D03*
X144999500Y-116215000D03*
X149000000Y-104785000D03*
X149800100Y-104785000D03*
X150600200Y-104785000D03*
X151400300Y-104785000D03*
X152200400Y-104785000D03*
X153000500Y-104785000D03*
X148199900Y-104785000D03*
X147399800Y-104785000D03*
X146599700Y-104785000D03*
X145799600Y-104785000D03*
X144999500Y-104785000D03*
D16*
X154715000Y-110500000D03*
X143285000Y-110500000D03*
X154715000Y-109699900D03*
X143285000Y-109699900D03*
X143285000Y-108899800D03*
X154715000Y-108899800D03*
X154715000Y-108099700D03*
X143285000Y-108099700D03*
X143285000Y-107299600D03*
X154715000Y-107299600D03*
X154715000Y-106499500D03*
X143285000Y-106499500D03*
X143285000Y-111300100D03*
X154715000Y-111300100D03*
X154715000Y-112100200D03*
X143285000Y-112100200D03*
X143285000Y-112900300D03*
X154715000Y-112900300D03*
X154715000Y-113700400D03*
X143285000Y-113700400D03*
X143285000Y-114500500D03*
X154715000Y-114500500D03*
D17*
X169399800Y-110550680D03*
X170199900Y-110550680D03*
X171000000Y-110550680D03*
X171800100Y-110550680D03*
X172600200Y-110550680D03*
D18*
X166549920Y-110649740D03*
X166549920Y-116148840D03*
X175450080Y-110649740D03*
X175450080Y-116148840D03*
D19*
X168800360Y-113149100D03*
X173199640Y-113149100D03*
D20*
X170750000Y-94500000D03*
X172250000Y-94500000D03*
X126750000Y-98100000D03*
X125250000Y-98100000D03*
X126700000Y-92600000D03*
X125200000Y-92600000D03*
D21*
X170000000Y-104750000D03*
X170000000Y-103250000D03*
X168500000Y-104000000D03*
X168500000Y-102500000D03*
D22*
X163500000Y-109250000D03*
X163500000Y-110750000D03*
X137200000Y-112050000D03*
X137200000Y-113550000D03*
X137200000Y-115550000D03*
X137200000Y-117050000D03*
D23*
X139500000Y-110500000D03*
X141000000Y-110500000D03*
D22*
X173500000Y-100750000D03*
X173500000Y-102250000D03*
D24*
X160900000Y-109800000D03*
X160900000Y-112800000D03*
D22*
X150000000Y-101750000D03*
X150000000Y-100250000D03*
X167150000Y-94750000D03*
X167150000Y-93250000D03*
X165600000Y-102350000D03*
X165600000Y-100850000D03*
D23*
X167250000Y-105000000D03*
X165750000Y-105000000D03*
X156750000Y-110000000D03*
X158250000Y-110000000D03*
X169750000Y-106500000D03*
X168250000Y-106500000D03*
D25*
X125254480Y-94278000D03*
X127352520Y-94278000D03*
X125254480Y-96437000D03*
X127352520Y-96437000D03*
X176129240Y-97980260D03*
X176129240Y-95882220D03*
X173843240Y-95836500D03*
X173843240Y-97934540D03*
D20*
X165250000Y-107500000D03*
X166750000Y-107500000D03*
D26*
X151828500Y-86347300D03*
X153987500Y-86347300D03*
X147510500Y-86347300D03*
X149669500Y-86347300D03*
X151828500Y-82054700D03*
X149669500Y-82054700D03*
X147510500Y-82054700D03*
X153987500Y-82054700D03*
X145351500Y-86347300D03*
X143192500Y-86347300D03*
X141033500Y-86347300D03*
X138874500Y-86347300D03*
X145351500Y-82054700D03*
X143192500Y-82054700D03*
X141033500Y-82054700D03*
X138874500Y-82054700D03*
X156146500Y-86347300D03*
X158305500Y-86347300D03*
X160464500Y-86347300D03*
X162623500Y-86347300D03*
X156146500Y-82054700D03*
X158305500Y-82054700D03*
X160464500Y-82054700D03*
X162623500Y-82054700D03*
D27*
X174155100Y-84201000D03*
X127342900Y-84201000D03*
D28*
X125500000Y-115040000D03*
D29*
X125500000Y-112500000D03*
X125500000Y-109960000D03*
X125500000Y-107420000D03*
X125500000Y-104880000D03*
D21*
X128500000Y-105000000D03*
X128500000Y-106500000D03*
X176000000Y-102250000D03*
X176000000Y-100750000D03*
D30*
X140000000Y-116550000D03*
X140000000Y-112450000D03*
M02*
