G04 #@! TF.FileFunction,Copper,L2,Bot,Signal*
%FSLAX46Y46*%
G04 Gerber Fmt 4.6, Leading zero omitted, Abs format (unit mm)*
G04 Created by KiCad (PCBNEW 4.1.0-alpha+201605091531+6781~44~ubuntu15.10.1-product) date Mon 19 Sep 2016 03:19:41 PM CEST*
%MOMM*%
%LPD*%
G01*
G04 APERTURE LIST*
%ADD10C,0.150000*%
%ADD11C,1.397000*%
%ADD12C,3.200400*%
%ADD13R,2.032000X1.727200*%
%ADD14O,2.032000X1.727200*%
%ADD15C,0.889000*%
%ADD16C,0.400000*%
%ADD17C,0.200000*%
%ADD18C,0.254000*%
G04 APERTURE END LIST*
D10*
D11*
X151828500Y-86347300D03*
X153987500Y-86347300D03*
X147510500Y-86347300D03*
X149669500Y-86347300D03*
X151828500Y-82054700D03*
X149669500Y-82054700D03*
X147510500Y-82054700D03*
X153987500Y-82054700D03*
X145351500Y-86347300D03*
X143192500Y-86347300D03*
X141033500Y-86347300D03*
X138874500Y-86347300D03*
X145351500Y-82054700D03*
X143192500Y-82054700D03*
X141033500Y-82054700D03*
X138874500Y-82054700D03*
X156146500Y-86347300D03*
X158305500Y-86347300D03*
X160464500Y-86347300D03*
X162623500Y-86347300D03*
X156146500Y-82054700D03*
X158305500Y-82054700D03*
X160464500Y-82054700D03*
X162623500Y-82054700D03*
D12*
X174155100Y-84201000D03*
X127342900Y-84201000D03*
D13*
X125500000Y-115040000D03*
D14*
X125500000Y-112500000D03*
X125500000Y-109960000D03*
X125500000Y-107420000D03*
X125500000Y-104880000D03*
D15*
X168100000Y-94900000D03*
X171200000Y-100500000D03*
X137911849Y-106683225D03*
X146602163Y-107199094D03*
X140500000Y-99600000D03*
X145600000Y-103378498D03*
X141026237Y-107755446D03*
X145466643Y-109046478D03*
X138171203Y-111358545D03*
X149555490Y-98853959D03*
X153298266Y-110241698D03*
X169300000Y-98500000D03*
X165800000Y-106000000D03*
X168400000Y-105500000D03*
X166500000Y-112500000D03*
X164800000Y-116100000D03*
X147400000Y-114700000D03*
X146600000Y-114000000D03*
X145800000Y-114700000D03*
X145200000Y-113700000D03*
X170300000Y-96000000D03*
X168100000Y-93200000D03*
X166700000Y-99000000D03*
X166500000Y-100800000D03*
X158393127Y-110751679D03*
X136100000Y-115500000D03*
X136100000Y-113600000D03*
X134000000Y-90400000D03*
X152700000Y-90200000D03*
X126700000Y-99300000D03*
X126700000Y-91300000D03*
X163500000Y-111900000D03*
X160900000Y-113800000D03*
X173700000Y-110600000D03*
X177100000Y-110700000D03*
X173900000Y-116200000D03*
X174600000Y-102300000D03*
X134775706Y-111011776D03*
X149200000Y-109200000D03*
X135652975Y-109676974D03*
X148200000Y-108700000D03*
X138900918Y-107599082D03*
X145919634Y-108056152D03*
X137397312Y-108155457D03*
X145902747Y-110044355D03*
X157300000Y-99000000D03*
X150066491Y-114501055D03*
X154100000Y-97500000D03*
X151155490Y-114495692D03*
X154500000Y-99000000D03*
X152926126Y-114435568D03*
X155400000Y-97400000D03*
X156664041Y-111614202D03*
X158900000Y-89200000D03*
X157900000Y-89700000D03*
X143600000Y-104600000D03*
X140100000Y-104600000D03*
X141000000Y-105466413D03*
X142800000Y-105500000D03*
X152626115Y-112913686D03*
X152243076Y-99953810D03*
X150155446Y-110466287D03*
X148200000Y-94100000D03*
X136800000Y-106000000D03*
X147400000Y-106400000D03*
X152444521Y-111839923D03*
X153178849Y-98734824D03*
X151400000Y-90100000D03*
X147000000Y-90000000D03*
X167444499Y-101955501D03*
X171200000Y-102400000D03*
X129500000Y-97400000D03*
X130050000Y-107200000D03*
X164600000Y-102000000D03*
X149000000Y-101700000D03*
X164200000Y-104200000D03*
X172300000Y-101500000D03*
X154600000Y-116200000D03*
X148900000Y-112700000D03*
X136575696Y-109098585D03*
X148200000Y-107600000D03*
D16*
X170500000Y-94900000D02*
X168100000Y-94900000D01*
X171644499Y-96044499D02*
X170500000Y-94900000D01*
X171200000Y-100500000D02*
X171644499Y-100055501D01*
X171644499Y-100055501D02*
X171644499Y-96044499D01*
D17*
X141549287Y-106610934D02*
X138612757Y-106610934D01*
X138612757Y-106610934D02*
X138540466Y-106683225D01*
X146114002Y-106710933D02*
X141649286Y-106710933D01*
X146602163Y-107199094D02*
X146114002Y-106710933D01*
X138540466Y-106683225D02*
X137911849Y-106683225D01*
X141649286Y-106710933D02*
X141549287Y-106610934D01*
X142450119Y-99600000D02*
X140500000Y-99600000D01*
X145600000Y-103378498D02*
X145600000Y-102749881D01*
X145600000Y-102749881D02*
X142450119Y-99600000D01*
X145466643Y-109046478D02*
X144175611Y-107755446D01*
X141654854Y-107755446D02*
X141026237Y-107755446D01*
X144175611Y-107755446D02*
X141654854Y-107755446D01*
X143199989Y-109699989D02*
X145300000Y-111800000D01*
X137592889Y-109699989D02*
X143199989Y-109699989D01*
X147228617Y-111800000D02*
X149200000Y-109828617D01*
X134775706Y-111011776D02*
X136281102Y-111011776D01*
X145300000Y-111800000D02*
X147228617Y-111800000D01*
X149200000Y-109828617D02*
X149200000Y-109200000D01*
X136281102Y-111011776D02*
X137592889Y-109699989D01*
X137427200Y-109299978D02*
X136605705Y-110121473D01*
X143365678Y-109299978D02*
X137427200Y-109299978D01*
X146600000Y-111300000D02*
X145365700Y-111300000D01*
X145365700Y-111300000D02*
X143365678Y-109299978D01*
X136097474Y-110121473D02*
X135652975Y-109676974D01*
X148200000Y-109700000D02*
X146600000Y-111300000D01*
X136605705Y-110121473D02*
X136097474Y-110121473D01*
X148200000Y-108700000D02*
X148200000Y-109700000D01*
X141483597Y-107110944D02*
X141383598Y-107010945D01*
X139489055Y-107010945D02*
X139345417Y-107154583D01*
X141383598Y-107010945D02*
X139489055Y-107010945D01*
X139345417Y-107154583D02*
X138900918Y-107599082D01*
X144974426Y-107110944D02*
X141483597Y-107110944D01*
X145919634Y-108056152D02*
X144974426Y-107110944D01*
X138370428Y-108499956D02*
X138025929Y-108155457D01*
X145241455Y-110044355D02*
X143697056Y-108499956D01*
X138025929Y-108155457D02*
X137397312Y-108155457D01*
X145902747Y-110044355D02*
X145241455Y-110044355D01*
X143697056Y-108499956D02*
X138370428Y-108499956D01*
X152900000Y-96200000D02*
X151000010Y-98099990D01*
X150899956Y-100407166D02*
X150899956Y-113038973D01*
X150066491Y-113872438D02*
X150066491Y-114501055D01*
X151000010Y-100307112D02*
X150899956Y-100407166D01*
X157300000Y-98000000D02*
X155500000Y-96200000D01*
X150899956Y-113038973D02*
X150066491Y-113872438D01*
X155500000Y-96200000D02*
X152900000Y-96200000D01*
X157300000Y-99000000D02*
X157300000Y-98000000D01*
X151000010Y-98099990D02*
X151000010Y-100307112D01*
X151300000Y-111297100D02*
X151300000Y-113722565D01*
X151155490Y-113867075D02*
X151155490Y-114495692D01*
X151299967Y-100572855D02*
X151299967Y-111297067D01*
X151400021Y-100472801D02*
X151299967Y-100572855D01*
X154100000Y-97500000D02*
X152500000Y-97500000D01*
X151400021Y-98599979D02*
X151400021Y-100472801D01*
X152500000Y-97500000D02*
X151400021Y-98599979D01*
X151300000Y-113722565D02*
X151155490Y-113867075D01*
X151299967Y-111297067D02*
X151300000Y-111297100D01*
X152500000Y-101500000D02*
X154055501Y-99944499D01*
X154055501Y-99944499D02*
X154055501Y-99444499D01*
X154055501Y-99444499D02*
X154500000Y-99000000D01*
X152500000Y-110800000D02*
X152500000Y-101500000D01*
X153370625Y-111670625D02*
X152500000Y-110800000D01*
X153370625Y-113991069D02*
X153370625Y-111670625D01*
X153370625Y-113991069D02*
X152926126Y-114435568D01*
X155400000Y-97400000D02*
X155400000Y-110350161D01*
X155400000Y-110350161D02*
X156219542Y-111169703D01*
X156219542Y-111169703D02*
X156664041Y-111614202D01*
X158900000Y-89200000D02*
X156146500Y-86446500D01*
X156146500Y-86446500D02*
X156146500Y-86347300D01*
X157900000Y-89700000D02*
X158344499Y-90144499D01*
X158344499Y-90144499D02*
X161555501Y-90144499D01*
X161555501Y-90144499D02*
X164300000Y-87400000D01*
X164300000Y-87400000D02*
X164300000Y-83731200D01*
X164300000Y-83731200D02*
X162623500Y-82054700D01*
X140100000Y-104600000D02*
X143600000Y-104600000D01*
X141033587Y-105500000D02*
X141000000Y-105466413D01*
X142800000Y-105500000D02*
X141033587Y-105500000D01*
X152243076Y-100582427D02*
X151699978Y-101125525D01*
X152243076Y-99953810D02*
X152243076Y-100582427D01*
X151997498Y-112913686D02*
X152626115Y-112913686D01*
X151699978Y-111131378D02*
X151700011Y-111131411D01*
X151700011Y-111131411D02*
X151700011Y-112616199D01*
X151700011Y-112616199D02*
X151997498Y-112913686D01*
X151699978Y-101125525D02*
X151699978Y-111131378D01*
X150155446Y-109837670D02*
X150155446Y-110466287D01*
X148200000Y-94100000D02*
X148200000Y-106498136D01*
X148200000Y-106498136D02*
X150155446Y-108453582D01*
X150155446Y-108453582D02*
X150155446Y-109837670D01*
X146682305Y-106310922D02*
X141814975Y-106310922D01*
X137244499Y-105555501D02*
X136800000Y-106000000D01*
X137885989Y-105555501D02*
X137244499Y-105555501D01*
X138541411Y-106210923D02*
X137885989Y-105555501D01*
X146771383Y-106400000D02*
X146682305Y-106310922D01*
X141814975Y-106310922D02*
X141714976Y-106210923D01*
X147400000Y-106400000D02*
X146771383Y-106400000D01*
X141714976Y-106210923D02*
X138541411Y-106210923D01*
X152099989Y-101334311D02*
X152099989Y-110965689D01*
X153178849Y-100255451D02*
X152099989Y-101334311D01*
X152099989Y-110965689D02*
X152444521Y-111310221D01*
X153178849Y-98734824D02*
X153178849Y-100255451D01*
X152444521Y-111310221D02*
X152444521Y-111839923D01*
X151300000Y-90000000D02*
X151400000Y-90100000D01*
X147000000Y-90000000D02*
X151300000Y-90000000D01*
X171200000Y-102400000D02*
X170755501Y-101955501D01*
X170755501Y-101955501D02*
X167444499Y-101955501D01*
D16*
X135700000Y-112078617D02*
X134300000Y-112078617D01*
X148900000Y-112700000D02*
X145100000Y-112700000D01*
X145100000Y-112700000D02*
X142600000Y-110200000D01*
X142600000Y-110200000D02*
X137800000Y-110200000D01*
X137800000Y-110200000D02*
X135921383Y-112078617D01*
X135921383Y-112078617D02*
X135700000Y-112078617D01*
X130050000Y-107828617D02*
X134300000Y-112078617D01*
X152500000Y-95600000D02*
X158200000Y-95600000D01*
X150400000Y-99400000D02*
X150400000Y-97700000D01*
X150400000Y-97700000D02*
X152500000Y-95600000D01*
X164155501Y-101555501D02*
X164600000Y-102000000D01*
X158200000Y-95600000D02*
X164155501Y-101555501D01*
X149444499Y-100355501D02*
X150400000Y-99400000D01*
X149444499Y-101255501D02*
X149444499Y-100355501D01*
X149000000Y-101700000D02*
X149444499Y-101255501D01*
X129500000Y-97400000D02*
X130050000Y-97950000D01*
X130050000Y-97950000D02*
X130050000Y-107200000D01*
X130050000Y-107200000D02*
X130050000Y-107828617D01*
X171900000Y-104200000D02*
X164200000Y-104200000D01*
X172300000Y-103800000D02*
X171900000Y-104200000D01*
X172300000Y-101500000D02*
X172300000Y-103800000D01*
X150500000Y-116200000D02*
X154600000Y-116200000D01*
X148800000Y-114500000D02*
X150500000Y-116200000D01*
X148800000Y-113428617D02*
X148800000Y-114500000D01*
X148900000Y-112700000D02*
X148900000Y-113328617D01*
X148900000Y-113328617D02*
X148800000Y-113428617D01*
D17*
X136774314Y-108899967D02*
X136575696Y-109098585D01*
X143531367Y-108899967D02*
X136774314Y-108899967D01*
X145431400Y-110800000D02*
X143531367Y-108899967D01*
X146200000Y-110800000D02*
X145431400Y-110800000D01*
X147300000Y-109700000D02*
X146200000Y-110800000D01*
X147300000Y-108500000D02*
X147300000Y-109700000D01*
X148200000Y-107600000D02*
X147300000Y-108500000D01*
D18*
G36*
X177382500Y-117382500D02*
X124117500Y-117382500D01*
X124117500Y-116134595D01*
X124122007Y-116145476D01*
X124242124Y-116265593D01*
X124399065Y-116330600D01*
X125370250Y-116330600D01*
X125477000Y-116223850D01*
X125477000Y-115063000D01*
X125523000Y-115063000D01*
X125523000Y-116223850D01*
X125629750Y-116330600D01*
X126600935Y-116330600D01*
X126757876Y-116265593D01*
X126877993Y-116145476D01*
X126943000Y-115988536D01*
X126943000Y-115169750D01*
X126836250Y-115063000D01*
X125523000Y-115063000D01*
X125477000Y-115063000D01*
X125457000Y-115063000D01*
X125457000Y-115017000D01*
X125477000Y-115017000D01*
X125477000Y-114997000D01*
X125523000Y-114997000D01*
X125523000Y-115017000D01*
X126836250Y-115017000D01*
X126943000Y-114910250D01*
X126943000Y-114091464D01*
X126877993Y-113934524D01*
X126757876Y-113814407D01*
X126600935Y-113749400D01*
X125887796Y-113749400D01*
X126174561Y-113692359D01*
X126593262Y-113412592D01*
X126873029Y-112993891D01*
X126971270Y-112500000D01*
X126873029Y-112006109D01*
X126593262Y-111587408D01*
X126174561Y-111307641D01*
X125784233Y-111230000D01*
X126174561Y-111152359D01*
X126593262Y-110872592D01*
X126873029Y-110453891D01*
X126971270Y-109960000D01*
X126873029Y-109466109D01*
X126593262Y-109047408D01*
X126174561Y-108767641D01*
X125784233Y-108690000D01*
X126174561Y-108612359D01*
X126593262Y-108332592D01*
X126873029Y-107913891D01*
X126971270Y-107420000D01*
X126873029Y-106926109D01*
X126593262Y-106507408D01*
X126174561Y-106227641D01*
X125784233Y-106150000D01*
X126174561Y-106072359D01*
X126593262Y-105792592D01*
X126873029Y-105373891D01*
X126971270Y-104880000D01*
X126873029Y-104386109D01*
X126593262Y-103967408D01*
X126174561Y-103687641D01*
X125680670Y-103589400D01*
X125319330Y-103589400D01*
X124825439Y-103687641D01*
X124406738Y-103967408D01*
X124126971Y-104386109D01*
X124117500Y-104433723D01*
X124117500Y-97572592D01*
X128628349Y-97572592D01*
X128760747Y-97893020D01*
X129005690Y-98138391D01*
X129325887Y-98271349D01*
X129423000Y-98271434D01*
X129423000Y-106594493D01*
X129311609Y-106705690D01*
X129178651Y-107025887D01*
X129178349Y-107372592D01*
X129310747Y-107693020D01*
X129423000Y-107805469D01*
X129423000Y-107828617D01*
X129470728Y-108068560D01*
X129576550Y-108226934D01*
X129606644Y-108271973D01*
X133856644Y-112521973D01*
X134060058Y-112657890D01*
X134300000Y-112705617D01*
X135921383Y-112705617D01*
X136161326Y-112657889D01*
X136364739Y-112521973D01*
X138059712Y-110827000D01*
X142340288Y-110827000D01*
X144656644Y-113143356D01*
X144860058Y-113279273D01*
X145100000Y-113327000D01*
X148193213Y-113327000D01*
X148173000Y-113428617D01*
X148173000Y-114500000D01*
X148220728Y-114739943D01*
X148334523Y-114910250D01*
X148356644Y-114943356D01*
X150056644Y-116643356D01*
X150260057Y-116779272D01*
X150500000Y-116827000D01*
X153994493Y-116827000D01*
X154105690Y-116938391D01*
X154425887Y-117071349D01*
X154772592Y-117071651D01*
X155093020Y-116939253D01*
X155338391Y-116694310D01*
X155471349Y-116374113D01*
X155471651Y-116027408D01*
X155339253Y-115706980D01*
X155094310Y-115461609D01*
X154774113Y-115328651D01*
X154427408Y-115328349D01*
X154106980Y-115460747D01*
X153994531Y-115573000D01*
X150759712Y-115573000D01*
X150465758Y-115279046D01*
X150559511Y-115240308D01*
X150613547Y-115186367D01*
X150661180Y-115234083D01*
X150981377Y-115367041D01*
X151328082Y-115367343D01*
X151648510Y-115234945D01*
X151893881Y-114990002D01*
X152026839Y-114669805D01*
X152027141Y-114323100D01*
X151894743Y-114002672D01*
X151791797Y-113899546D01*
X151827000Y-113722565D01*
X151827000Y-113406772D01*
X151901776Y-113421646D01*
X152131805Y-113652077D01*
X152375891Y-113753431D01*
X152187735Y-113941258D01*
X152054777Y-114261455D01*
X152054475Y-114608160D01*
X152186873Y-114928588D01*
X152431816Y-115173959D01*
X152752013Y-115306917D01*
X153098718Y-115307219D01*
X153419146Y-115174821D01*
X153664517Y-114929878D01*
X153797475Y-114609681D01*
X153797760Y-114282165D01*
X153857510Y-114192743D01*
X153897625Y-113991069D01*
X153897625Y-113322698D01*
X167923628Y-113322698D01*
X168056799Y-113644994D01*
X168303169Y-113891795D01*
X168625233Y-114025527D01*
X168973958Y-114025832D01*
X169296254Y-113892661D01*
X169543055Y-113646291D01*
X169676787Y-113324227D01*
X169676788Y-113322698D01*
X172322908Y-113322698D01*
X172456079Y-113644994D01*
X172702449Y-113891795D01*
X173024513Y-114025527D01*
X173373238Y-114025832D01*
X173695534Y-113892661D01*
X173942335Y-113646291D01*
X174076067Y-113324227D01*
X174076372Y-112975502D01*
X173943201Y-112653206D01*
X173696831Y-112406405D01*
X173374767Y-112272673D01*
X173026042Y-112272368D01*
X172703746Y-112405539D01*
X172456945Y-112651909D01*
X172323213Y-112973973D01*
X172322908Y-113322698D01*
X169676788Y-113322698D01*
X169677092Y-112975502D01*
X169543921Y-112653206D01*
X169297551Y-112406405D01*
X168975487Y-112272673D01*
X168626762Y-112272368D01*
X168304466Y-112405539D01*
X168057665Y-112651909D01*
X167923933Y-112973973D01*
X167923628Y-113322698D01*
X153897625Y-113322698D01*
X153897625Y-111670625D01*
X153857510Y-111468951D01*
X153743270Y-111297980D01*
X153027000Y-110581710D01*
X153027000Y-101718290D01*
X154428147Y-100317144D01*
X154542386Y-100146173D01*
X154582501Y-99944499D01*
X154582501Y-99871573D01*
X154672592Y-99871651D01*
X154873000Y-99788844D01*
X154873000Y-110350161D01*
X154913115Y-110551836D01*
X155027355Y-110722806D01*
X155792650Y-111488102D01*
X155792390Y-111786794D01*
X155924788Y-112107222D01*
X156169731Y-112352593D01*
X156489928Y-112485551D01*
X156836633Y-112485853D01*
X157157061Y-112353455D01*
X157402432Y-112108512D01*
X157535390Y-111788315D01*
X157535692Y-111441610D01*
X157403294Y-111121182D01*
X157158351Y-110875811D01*
X156838154Y-110742853D01*
X156537721Y-110742591D01*
X155927000Y-110131871D01*
X155927000Y-104372592D01*
X163328349Y-104372592D01*
X163460747Y-104693020D01*
X163705690Y-104938391D01*
X164025887Y-105071349D01*
X164372592Y-105071651D01*
X164693020Y-104939253D01*
X164805469Y-104827000D01*
X171900000Y-104827000D01*
X172139943Y-104779272D01*
X172343356Y-104643356D01*
X172743356Y-104243356D01*
X172879272Y-104039943D01*
X172927000Y-103800000D01*
X172927000Y-102105507D01*
X173038391Y-101994310D01*
X173171349Y-101674113D01*
X173171651Y-101327408D01*
X173039253Y-101006980D01*
X172794310Y-100761609D01*
X172474113Y-100628651D01*
X172127408Y-100628349D01*
X172071369Y-100651504D01*
X172071487Y-100515225D01*
X172087855Y-100498857D01*
X172202413Y-100327408D01*
X172223771Y-100295444D01*
X172223771Y-100295443D01*
X172223772Y-100295442D01*
X172271499Y-100055501D01*
X172271499Y-96044499D01*
X172223771Y-95804556D01*
X172087855Y-95601143D01*
X170943356Y-94456644D01*
X170869028Y-94406980D01*
X170739943Y-94320728D01*
X170500000Y-94273000D01*
X168705507Y-94273000D01*
X168594310Y-94161609D01*
X168274113Y-94028651D01*
X167927408Y-94028349D01*
X167606980Y-94160747D01*
X167361609Y-94405690D01*
X167228651Y-94725887D01*
X167228349Y-95072592D01*
X167360747Y-95393020D01*
X167605690Y-95638391D01*
X167925887Y-95771349D01*
X168272592Y-95771651D01*
X168593020Y-95639253D01*
X168705469Y-95527000D01*
X170240288Y-95527000D01*
X171017499Y-96304211D01*
X171017499Y-99632443D01*
X170706980Y-99760747D01*
X170461609Y-100005690D01*
X170328651Y-100325887D01*
X170328349Y-100672592D01*
X170460747Y-100993020D01*
X170705690Y-101238391D01*
X171025887Y-101371349D01*
X171372592Y-101371651D01*
X171428631Y-101348496D01*
X171428455Y-101551216D01*
X171374113Y-101528651D01*
X171046597Y-101528366D01*
X170957176Y-101468616D01*
X170755501Y-101428501D01*
X168149831Y-101428501D01*
X167938809Y-101217110D01*
X167618612Y-101084152D01*
X167271907Y-101083850D01*
X166951479Y-101216248D01*
X166706108Y-101461191D01*
X166573150Y-101781388D01*
X166572848Y-102128093D01*
X166705246Y-102448521D01*
X166950189Y-102693892D01*
X167270386Y-102826850D01*
X167617091Y-102827152D01*
X167937519Y-102694754D01*
X168150143Y-102482501D01*
X170328427Y-102482501D01*
X170328349Y-102572592D01*
X170460747Y-102893020D01*
X170705690Y-103138391D01*
X171025887Y-103271349D01*
X171372592Y-103271651D01*
X171673000Y-103147525D01*
X171673000Y-103540288D01*
X171640288Y-103573000D01*
X164805507Y-103573000D01*
X164694310Y-103461609D01*
X164374113Y-103328651D01*
X164027408Y-103328349D01*
X163706980Y-103460747D01*
X163461609Y-103705690D01*
X163328651Y-104025887D01*
X163328349Y-104372592D01*
X155927000Y-104372592D01*
X155927000Y-98105332D01*
X156138391Y-97894310D01*
X156229531Y-97674822D01*
X156773000Y-98218291D01*
X156773000Y-98294668D01*
X156561609Y-98505690D01*
X156428651Y-98825887D01*
X156428349Y-99172592D01*
X156560747Y-99493020D01*
X156805690Y-99738391D01*
X157125887Y-99871349D01*
X157472592Y-99871651D01*
X157793020Y-99739253D01*
X158038391Y-99494310D01*
X158171349Y-99174113D01*
X158171651Y-98827408D01*
X158039253Y-98506980D01*
X157827000Y-98294356D01*
X157827000Y-98000000D01*
X157786885Y-97798326D01*
X157727905Y-97710057D01*
X157672645Y-97627354D01*
X156272290Y-96227000D01*
X157940288Y-96227000D01*
X163728486Y-102015198D01*
X163728349Y-102172592D01*
X163860747Y-102493020D01*
X164105690Y-102738391D01*
X164425887Y-102871349D01*
X164772592Y-102871651D01*
X165093020Y-102739253D01*
X165338391Y-102494310D01*
X165471349Y-102174113D01*
X165471651Y-101827408D01*
X165339253Y-101506980D01*
X165094310Y-101261609D01*
X164774113Y-101128651D01*
X164615225Y-101128513D01*
X158643356Y-95156644D01*
X158519839Y-95074113D01*
X158439943Y-95020728D01*
X158200000Y-94973000D01*
X152500000Y-94973000D01*
X152260057Y-95020728D01*
X152180161Y-95074113D01*
X152056644Y-95156644D01*
X149956644Y-97256644D01*
X149820728Y-97460057D01*
X149773000Y-97700000D01*
X149773000Y-99140288D01*
X149001143Y-99912145D01*
X148865227Y-100115558D01*
X148817499Y-100355501D01*
X148817499Y-100832443D01*
X148727000Y-100869837D01*
X148727000Y-94805332D01*
X148938391Y-94594310D01*
X149071349Y-94274113D01*
X149071651Y-93927408D01*
X148939253Y-93606980D01*
X148694310Y-93361609D01*
X148374113Y-93228651D01*
X148027408Y-93228349D01*
X147706980Y-93360747D01*
X147461609Y-93605690D01*
X147328651Y-93925887D01*
X147328349Y-94272592D01*
X147460747Y-94593020D01*
X147673000Y-94805644D01*
X147673000Y-105569713D01*
X147574113Y-105528651D01*
X147227408Y-105528349D01*
X146906980Y-105660747D01*
X146766761Y-105800721D01*
X146682305Y-105783922D01*
X143625752Y-105783922D01*
X143671349Y-105674113D01*
X143671525Y-105471563D01*
X143772592Y-105471651D01*
X144093020Y-105339253D01*
X144338391Y-105094310D01*
X144471349Y-104774113D01*
X144471651Y-104427408D01*
X144339253Y-104106980D01*
X144094310Y-103861609D01*
X143774113Y-103728651D01*
X143427408Y-103728349D01*
X143106980Y-103860747D01*
X142894356Y-104073000D01*
X140805332Y-104073000D01*
X140594310Y-103861609D01*
X140274113Y-103728651D01*
X139927408Y-103728349D01*
X139606980Y-103860747D01*
X139361609Y-104105690D01*
X139228651Y-104425887D01*
X139228349Y-104772592D01*
X139360747Y-105093020D01*
X139605690Y-105338391D01*
X139925887Y-105471349D01*
X140128495Y-105471525D01*
X140128349Y-105639005D01*
X140146909Y-105683923D01*
X138759701Y-105683923D01*
X138258634Y-105182856D01*
X138087664Y-105068616D01*
X137885989Y-105028501D01*
X137244499Y-105028501D01*
X137042825Y-105068616D01*
X136953004Y-105128633D01*
X136627408Y-105128349D01*
X136306980Y-105260747D01*
X136061609Y-105505690D01*
X135928651Y-105825887D01*
X135928349Y-106172592D01*
X136060747Y-106493020D01*
X136305690Y-106738391D01*
X136625887Y-106871349D01*
X136972592Y-106871651D01*
X137040209Y-106843712D01*
X137040198Y-106855817D01*
X137172596Y-107176245D01*
X137280017Y-107283854D01*
X137224720Y-107283806D01*
X136904292Y-107416204D01*
X136658921Y-107661147D01*
X136525963Y-107981344D01*
X136525749Y-108227041D01*
X136403104Y-108226934D01*
X136082676Y-108359332D01*
X135837305Y-108604275D01*
X135753723Y-108805561D01*
X135480383Y-108805323D01*
X135159955Y-108937721D01*
X134914584Y-109182664D01*
X134781626Y-109502861D01*
X134781324Y-109849566D01*
X134901488Y-110140385D01*
X134603114Y-110140125D01*
X134282686Y-110272523D01*
X134037315Y-110517466D01*
X133916504Y-110808409D01*
X130792503Y-107684408D01*
X130921349Y-107374113D01*
X130921651Y-107027408D01*
X130789253Y-106706980D01*
X130677000Y-106594531D01*
X130677000Y-99772592D01*
X139628349Y-99772592D01*
X139760747Y-100093020D01*
X140005690Y-100338391D01*
X140325887Y-100471349D01*
X140672592Y-100471651D01*
X140993020Y-100339253D01*
X141205644Y-100127000D01*
X142231829Y-100127000D01*
X144925368Y-102820540D01*
X144861609Y-102884188D01*
X144728651Y-103204385D01*
X144728349Y-103551090D01*
X144860747Y-103871518D01*
X145105690Y-104116889D01*
X145425887Y-104249847D01*
X145772592Y-104250149D01*
X146093020Y-104117751D01*
X146338391Y-103872808D01*
X146471349Y-103552611D01*
X146471651Y-103205906D01*
X146339253Y-102885478D01*
X146107866Y-102653687D01*
X146086885Y-102548207D01*
X146042981Y-102482501D01*
X145972645Y-102377235D01*
X142822764Y-99227355D01*
X142651794Y-99113115D01*
X142450119Y-99073000D01*
X141205332Y-99073000D01*
X140994310Y-98861609D01*
X140674113Y-98728651D01*
X140327408Y-98728349D01*
X140006980Y-98860747D01*
X139761609Y-99105690D01*
X139628651Y-99425887D01*
X139628349Y-99772592D01*
X130677000Y-99772592D01*
X130677000Y-97950000D01*
X130629272Y-97710057D01*
X130493356Y-97506644D01*
X130371514Y-97384802D01*
X130371651Y-97227408D01*
X130239253Y-96906980D01*
X129994310Y-96661609D01*
X129674113Y-96528651D01*
X129327408Y-96528349D01*
X129006980Y-96660747D01*
X128761609Y-96905690D01*
X128628651Y-97225887D01*
X128628349Y-97572592D01*
X124117500Y-97572592D01*
X124117500Y-90172592D01*
X146128349Y-90172592D01*
X146260747Y-90493020D01*
X146505690Y-90738391D01*
X146825887Y-90871349D01*
X147172592Y-90871651D01*
X147493020Y-90739253D01*
X147705644Y-90527000D01*
X150633468Y-90527000D01*
X150660747Y-90593020D01*
X150905690Y-90838391D01*
X151225887Y-90971349D01*
X151572592Y-90971651D01*
X151893020Y-90839253D01*
X152138391Y-90594310D01*
X152271349Y-90274113D01*
X152271651Y-89927408D01*
X152139253Y-89606980D01*
X151894310Y-89361609D01*
X151574113Y-89228651D01*
X151227408Y-89228349D01*
X150906980Y-89360747D01*
X150794531Y-89473000D01*
X147705332Y-89473000D01*
X147494310Y-89261609D01*
X147174113Y-89128651D01*
X146827408Y-89128349D01*
X146506980Y-89260747D01*
X146261609Y-89505690D01*
X146128651Y-89825887D01*
X146128349Y-90172592D01*
X124117500Y-90172592D01*
X124117500Y-87099341D01*
X138154986Y-87099341D01*
X138218730Y-87289020D01*
X138629028Y-87468288D01*
X139076696Y-87476895D01*
X139493583Y-87313532D01*
X139530270Y-87289020D01*
X139594014Y-87099341D01*
X138874500Y-86379827D01*
X138154986Y-87099341D01*
X124117500Y-87099341D01*
X124117500Y-86549496D01*
X137744905Y-86549496D01*
X137908268Y-86966383D01*
X137932780Y-87003070D01*
X138122459Y-87066814D01*
X138841973Y-86347300D01*
X138907027Y-86347300D01*
X139626541Y-87066814D01*
X139816220Y-87003070D01*
X139955217Y-86684941D01*
X140078791Y-86984012D01*
X140395123Y-87300896D01*
X140808642Y-87472604D01*
X141256394Y-87472995D01*
X141670212Y-87302009D01*
X141987096Y-86985677D01*
X142113098Y-86682231D01*
X142237791Y-86984012D01*
X142554123Y-87300896D01*
X142967642Y-87472604D01*
X143415394Y-87472995D01*
X143829212Y-87302009D01*
X144146096Y-86985677D01*
X144272098Y-86682231D01*
X144396791Y-86984012D01*
X144713123Y-87300896D01*
X145126642Y-87472604D01*
X145574394Y-87472995D01*
X145988212Y-87302009D01*
X146305096Y-86985677D01*
X146431098Y-86682231D01*
X146555791Y-86984012D01*
X146872123Y-87300896D01*
X147285642Y-87472604D01*
X147733394Y-87472995D01*
X148147212Y-87302009D01*
X148464096Y-86985677D01*
X148590098Y-86682231D01*
X148714791Y-86984012D01*
X149031123Y-87300896D01*
X149444642Y-87472604D01*
X149892394Y-87472995D01*
X150306212Y-87302009D01*
X150623096Y-86985677D01*
X150749098Y-86682231D01*
X150873791Y-86984012D01*
X151190123Y-87300896D01*
X151603642Y-87472604D01*
X152051394Y-87472995D01*
X152465212Y-87302009D01*
X152782096Y-86985677D01*
X152908098Y-86682231D01*
X153032791Y-86984012D01*
X153349123Y-87300896D01*
X153762642Y-87472604D01*
X154210394Y-87472995D01*
X154624212Y-87302009D01*
X154941096Y-86985677D01*
X155067098Y-86682231D01*
X155191791Y-86984012D01*
X155508123Y-87300896D01*
X155921642Y-87472604D01*
X156369394Y-87472995D01*
X156410656Y-87455946D01*
X157783108Y-88828398D01*
X157727408Y-88828349D01*
X157406980Y-88960747D01*
X157161609Y-89205690D01*
X157028651Y-89525887D01*
X157028349Y-89872592D01*
X157160747Y-90193020D01*
X157405690Y-90438391D01*
X157725887Y-90571349D01*
X158053403Y-90571634D01*
X158087340Y-90594310D01*
X158142825Y-90631384D01*
X158344499Y-90671499D01*
X161555501Y-90671499D01*
X161757176Y-90631384D01*
X161928146Y-90517144D01*
X164672645Y-87772645D01*
X164786885Y-87601674D01*
X164827000Y-87400000D01*
X164827000Y-84602466D01*
X172127549Y-84602466D01*
X172435522Y-85347816D01*
X173005284Y-85918574D01*
X173750096Y-86227847D01*
X174556566Y-86228551D01*
X175301916Y-85920578D01*
X175872674Y-85350816D01*
X176181947Y-84606004D01*
X176182651Y-83799534D01*
X175874678Y-83054184D01*
X175304916Y-82483426D01*
X174560104Y-82174153D01*
X173753634Y-82173449D01*
X173008284Y-82481422D01*
X172437526Y-83051184D01*
X172128253Y-83795996D01*
X172127549Y-84602466D01*
X164827000Y-84602466D01*
X164827000Y-83731200D01*
X164786885Y-83529526D01*
X164786885Y-83529525D01*
X164672645Y-83358555D01*
X163703281Y-82389191D01*
X163748804Y-82279558D01*
X163749195Y-81831806D01*
X163578209Y-81417988D01*
X163261877Y-81101104D01*
X162848358Y-80929396D01*
X162400606Y-80929005D01*
X161986788Y-81099991D01*
X161669904Y-81416323D01*
X161543902Y-81719769D01*
X161419209Y-81417988D01*
X161102877Y-81101104D01*
X160689358Y-80929396D01*
X160241606Y-80929005D01*
X159827788Y-81099991D01*
X159510904Y-81416323D01*
X159384902Y-81719769D01*
X159260209Y-81417988D01*
X158943877Y-81101104D01*
X158530358Y-80929396D01*
X158082606Y-80929005D01*
X157668788Y-81099991D01*
X157351904Y-81416323D01*
X157225902Y-81719769D01*
X157101209Y-81417988D01*
X156784877Y-81101104D01*
X156371358Y-80929396D01*
X155923606Y-80929005D01*
X155509788Y-81099991D01*
X155192904Y-81416323D01*
X155066902Y-81719769D01*
X154942209Y-81417988D01*
X154625877Y-81101104D01*
X154212358Y-80929396D01*
X153764606Y-80929005D01*
X153350788Y-81099991D01*
X153033904Y-81416323D01*
X152906965Y-81722026D01*
X152794732Y-81435617D01*
X152770220Y-81398930D01*
X152580541Y-81335186D01*
X151861027Y-82054700D01*
X152580541Y-82774214D01*
X152770220Y-82710470D01*
X152909217Y-82392341D01*
X153032791Y-82691412D01*
X153349123Y-83008296D01*
X153762642Y-83180004D01*
X154210394Y-83180395D01*
X154624212Y-83009409D01*
X154941096Y-82693077D01*
X155067098Y-82389631D01*
X155191791Y-82691412D01*
X155508123Y-83008296D01*
X155921642Y-83180004D01*
X156369394Y-83180395D01*
X156783212Y-83009409D01*
X157100096Y-82693077D01*
X157226098Y-82389631D01*
X157350791Y-82691412D01*
X157667123Y-83008296D01*
X158080642Y-83180004D01*
X158528394Y-83180395D01*
X158942212Y-83009409D01*
X159259096Y-82693077D01*
X159385098Y-82389631D01*
X159509791Y-82691412D01*
X159826123Y-83008296D01*
X160239642Y-83180004D01*
X160687394Y-83180395D01*
X161101212Y-83009409D01*
X161418096Y-82693077D01*
X161544098Y-82389631D01*
X161668791Y-82691412D01*
X161985123Y-83008296D01*
X162398642Y-83180004D01*
X162846394Y-83180395D01*
X162957852Y-83134342D01*
X163773000Y-83949490D01*
X163773000Y-87181710D01*
X161337211Y-89617499D01*
X159670286Y-89617499D01*
X159771349Y-89374113D01*
X159771651Y-89027408D01*
X159639253Y-88706980D01*
X159394310Y-88461609D01*
X159074113Y-88328651D01*
X158773679Y-88328389D01*
X157802328Y-87357038D01*
X158080642Y-87472604D01*
X158528394Y-87472995D01*
X158942212Y-87302009D01*
X159259096Y-86985677D01*
X159385098Y-86682231D01*
X159509791Y-86984012D01*
X159826123Y-87300896D01*
X160239642Y-87472604D01*
X160687394Y-87472995D01*
X161101212Y-87302009D01*
X161418096Y-86985677D01*
X161544098Y-86682231D01*
X161668791Y-86984012D01*
X161985123Y-87300896D01*
X162398642Y-87472604D01*
X162846394Y-87472995D01*
X163260212Y-87302009D01*
X163577096Y-86985677D01*
X163748804Y-86572158D01*
X163749195Y-86124406D01*
X163578209Y-85710588D01*
X163261877Y-85393704D01*
X162848358Y-85221996D01*
X162400606Y-85221605D01*
X161986788Y-85392591D01*
X161669904Y-85708923D01*
X161543902Y-86012369D01*
X161419209Y-85710588D01*
X161102877Y-85393704D01*
X160689358Y-85221996D01*
X160241606Y-85221605D01*
X159827788Y-85392591D01*
X159510904Y-85708923D01*
X159384902Y-86012369D01*
X159260209Y-85710588D01*
X158943877Y-85393704D01*
X158530358Y-85221996D01*
X158082606Y-85221605D01*
X157668788Y-85392591D01*
X157351904Y-85708923D01*
X157225902Y-86012369D01*
X157101209Y-85710588D01*
X156784877Y-85393704D01*
X156371358Y-85221996D01*
X155923606Y-85221605D01*
X155509788Y-85392591D01*
X155192904Y-85708923D01*
X155066902Y-86012369D01*
X154942209Y-85710588D01*
X154625877Y-85393704D01*
X154212358Y-85221996D01*
X153764606Y-85221605D01*
X153350788Y-85392591D01*
X153033904Y-85708923D01*
X152907902Y-86012369D01*
X152783209Y-85710588D01*
X152466877Y-85393704D01*
X152053358Y-85221996D01*
X151605606Y-85221605D01*
X151191788Y-85392591D01*
X150874904Y-85708923D01*
X150748902Y-86012369D01*
X150624209Y-85710588D01*
X150307877Y-85393704D01*
X149894358Y-85221996D01*
X149446606Y-85221605D01*
X149032788Y-85392591D01*
X148715904Y-85708923D01*
X148589902Y-86012369D01*
X148465209Y-85710588D01*
X148148877Y-85393704D01*
X147735358Y-85221996D01*
X147287606Y-85221605D01*
X146873788Y-85392591D01*
X146556904Y-85708923D01*
X146430902Y-86012369D01*
X146306209Y-85710588D01*
X145989877Y-85393704D01*
X145576358Y-85221996D01*
X145128606Y-85221605D01*
X144714788Y-85392591D01*
X144397904Y-85708923D01*
X144271902Y-86012369D01*
X144147209Y-85710588D01*
X143830877Y-85393704D01*
X143417358Y-85221996D01*
X142969606Y-85221605D01*
X142555788Y-85392591D01*
X142238904Y-85708923D01*
X142112902Y-86012369D01*
X141988209Y-85710588D01*
X141671877Y-85393704D01*
X141258358Y-85221996D01*
X140810606Y-85221605D01*
X140396788Y-85392591D01*
X140079904Y-85708923D01*
X139952965Y-86014626D01*
X139840732Y-85728217D01*
X139816220Y-85691530D01*
X139626541Y-85627786D01*
X138907027Y-86347300D01*
X138841973Y-86347300D01*
X138122459Y-85627786D01*
X137932780Y-85691530D01*
X137753512Y-86101828D01*
X137744905Y-86549496D01*
X124117500Y-86549496D01*
X124117500Y-84602466D01*
X125315349Y-84602466D01*
X125623322Y-85347816D01*
X126193084Y-85918574D01*
X126937896Y-86227847D01*
X127744366Y-86228551D01*
X128489716Y-85920578D01*
X128815603Y-85595259D01*
X138154986Y-85595259D01*
X138874500Y-86314773D01*
X139594014Y-85595259D01*
X139530270Y-85405580D01*
X139119972Y-85226312D01*
X138672304Y-85217705D01*
X138255417Y-85381068D01*
X138218730Y-85405580D01*
X138154986Y-85595259D01*
X128815603Y-85595259D01*
X129060474Y-85350816D01*
X129369747Y-84606004D01*
X129370451Y-83799534D01*
X129062478Y-83054184D01*
X128815467Y-82806741D01*
X138154986Y-82806741D01*
X138218730Y-82996420D01*
X138629028Y-83175688D01*
X139076696Y-83184295D01*
X139493583Y-83020932D01*
X139530270Y-82996420D01*
X139594014Y-82806741D01*
X140313986Y-82806741D01*
X140377730Y-82996420D01*
X140788028Y-83175688D01*
X141235696Y-83184295D01*
X141652583Y-83020932D01*
X141689270Y-82996420D01*
X141753014Y-82806741D01*
X142472986Y-82806741D01*
X142536730Y-82996420D01*
X142947028Y-83175688D01*
X143394696Y-83184295D01*
X143811583Y-83020932D01*
X143848270Y-82996420D01*
X143912014Y-82806741D01*
X144631986Y-82806741D01*
X144695730Y-82996420D01*
X145106028Y-83175688D01*
X145553696Y-83184295D01*
X145970583Y-83020932D01*
X146007270Y-82996420D01*
X146071014Y-82806741D01*
X146790986Y-82806741D01*
X146854730Y-82996420D01*
X147265028Y-83175688D01*
X147712696Y-83184295D01*
X148129583Y-83020932D01*
X148166270Y-82996420D01*
X148230014Y-82806741D01*
X148949986Y-82806741D01*
X149013730Y-82996420D01*
X149424028Y-83175688D01*
X149871696Y-83184295D01*
X150288583Y-83020932D01*
X150325270Y-82996420D01*
X150389014Y-82806741D01*
X151108986Y-82806741D01*
X151172730Y-82996420D01*
X151583028Y-83175688D01*
X152030696Y-83184295D01*
X152447583Y-83020932D01*
X152484270Y-82996420D01*
X152548014Y-82806741D01*
X151828500Y-82087227D01*
X151108986Y-82806741D01*
X150389014Y-82806741D01*
X149669500Y-82087227D01*
X148949986Y-82806741D01*
X148230014Y-82806741D01*
X147510500Y-82087227D01*
X146790986Y-82806741D01*
X146071014Y-82806741D01*
X145351500Y-82087227D01*
X144631986Y-82806741D01*
X143912014Y-82806741D01*
X143192500Y-82087227D01*
X142472986Y-82806741D01*
X141753014Y-82806741D01*
X141033500Y-82087227D01*
X140313986Y-82806741D01*
X139594014Y-82806741D01*
X138874500Y-82087227D01*
X138154986Y-82806741D01*
X128815467Y-82806741D01*
X128492716Y-82483426D01*
X127947172Y-82256896D01*
X137744905Y-82256896D01*
X137908268Y-82673783D01*
X137932780Y-82710470D01*
X138122459Y-82774214D01*
X138841973Y-82054700D01*
X138907027Y-82054700D01*
X139626541Y-82774214D01*
X139816220Y-82710470D01*
X139956147Y-82390213D01*
X140067268Y-82673783D01*
X140091780Y-82710470D01*
X140281459Y-82774214D01*
X141000973Y-82054700D01*
X141066027Y-82054700D01*
X141785541Y-82774214D01*
X141975220Y-82710470D01*
X142115147Y-82390213D01*
X142226268Y-82673783D01*
X142250780Y-82710470D01*
X142440459Y-82774214D01*
X143159973Y-82054700D01*
X143225027Y-82054700D01*
X143944541Y-82774214D01*
X144134220Y-82710470D01*
X144274147Y-82390213D01*
X144385268Y-82673783D01*
X144409780Y-82710470D01*
X144599459Y-82774214D01*
X145318973Y-82054700D01*
X145384027Y-82054700D01*
X146103541Y-82774214D01*
X146293220Y-82710470D01*
X146433147Y-82390213D01*
X146544268Y-82673783D01*
X146568780Y-82710470D01*
X146758459Y-82774214D01*
X147477973Y-82054700D01*
X147543027Y-82054700D01*
X148262541Y-82774214D01*
X148452220Y-82710470D01*
X148592147Y-82390213D01*
X148703268Y-82673783D01*
X148727780Y-82710470D01*
X148917459Y-82774214D01*
X149636973Y-82054700D01*
X149702027Y-82054700D01*
X150421541Y-82774214D01*
X150611220Y-82710470D01*
X150751147Y-82390213D01*
X150862268Y-82673783D01*
X150886780Y-82710470D01*
X151076459Y-82774214D01*
X151795973Y-82054700D01*
X151076459Y-81335186D01*
X150886780Y-81398930D01*
X150746853Y-81719187D01*
X150635732Y-81435617D01*
X150611220Y-81398930D01*
X150421541Y-81335186D01*
X149702027Y-82054700D01*
X149636973Y-82054700D01*
X148917459Y-81335186D01*
X148727780Y-81398930D01*
X148587853Y-81719187D01*
X148476732Y-81435617D01*
X148452220Y-81398930D01*
X148262541Y-81335186D01*
X147543027Y-82054700D01*
X147477973Y-82054700D01*
X146758459Y-81335186D01*
X146568780Y-81398930D01*
X146428853Y-81719187D01*
X146317732Y-81435617D01*
X146293220Y-81398930D01*
X146103541Y-81335186D01*
X145384027Y-82054700D01*
X145318973Y-82054700D01*
X144599459Y-81335186D01*
X144409780Y-81398930D01*
X144269853Y-81719187D01*
X144158732Y-81435617D01*
X144134220Y-81398930D01*
X143944541Y-81335186D01*
X143225027Y-82054700D01*
X143159973Y-82054700D01*
X142440459Y-81335186D01*
X142250780Y-81398930D01*
X142110853Y-81719187D01*
X141999732Y-81435617D01*
X141975220Y-81398930D01*
X141785541Y-81335186D01*
X141066027Y-82054700D01*
X141000973Y-82054700D01*
X140281459Y-81335186D01*
X140091780Y-81398930D01*
X139951853Y-81719187D01*
X139840732Y-81435617D01*
X139816220Y-81398930D01*
X139626541Y-81335186D01*
X138907027Y-82054700D01*
X138841973Y-82054700D01*
X138122459Y-81335186D01*
X137932780Y-81398930D01*
X137753512Y-81809228D01*
X137744905Y-82256896D01*
X127947172Y-82256896D01*
X127747904Y-82174153D01*
X126941434Y-82173449D01*
X126196084Y-82481422D01*
X125625326Y-83051184D01*
X125316053Y-83795996D01*
X125315349Y-84602466D01*
X124117500Y-84602466D01*
X124117500Y-81302659D01*
X138154986Y-81302659D01*
X138874500Y-82022173D01*
X139594014Y-81302659D01*
X140313986Y-81302659D01*
X141033500Y-82022173D01*
X141753014Y-81302659D01*
X142472986Y-81302659D01*
X143192500Y-82022173D01*
X143912014Y-81302659D01*
X144631986Y-81302659D01*
X145351500Y-82022173D01*
X146071014Y-81302659D01*
X146790986Y-81302659D01*
X147510500Y-82022173D01*
X148230014Y-81302659D01*
X148949986Y-81302659D01*
X149669500Y-82022173D01*
X150389014Y-81302659D01*
X151108986Y-81302659D01*
X151828500Y-82022173D01*
X152548014Y-81302659D01*
X152484270Y-81112980D01*
X152073972Y-80933712D01*
X151626304Y-80925105D01*
X151209417Y-81088468D01*
X151172730Y-81112980D01*
X151108986Y-81302659D01*
X150389014Y-81302659D01*
X150325270Y-81112980D01*
X149914972Y-80933712D01*
X149467304Y-80925105D01*
X149050417Y-81088468D01*
X149013730Y-81112980D01*
X148949986Y-81302659D01*
X148230014Y-81302659D01*
X148166270Y-81112980D01*
X147755972Y-80933712D01*
X147308304Y-80925105D01*
X146891417Y-81088468D01*
X146854730Y-81112980D01*
X146790986Y-81302659D01*
X146071014Y-81302659D01*
X146007270Y-81112980D01*
X145596972Y-80933712D01*
X145149304Y-80925105D01*
X144732417Y-81088468D01*
X144695730Y-81112980D01*
X144631986Y-81302659D01*
X143912014Y-81302659D01*
X143848270Y-81112980D01*
X143437972Y-80933712D01*
X142990304Y-80925105D01*
X142573417Y-81088468D01*
X142536730Y-81112980D01*
X142472986Y-81302659D01*
X141753014Y-81302659D01*
X141689270Y-81112980D01*
X141278972Y-80933712D01*
X140831304Y-80925105D01*
X140414417Y-81088468D01*
X140377730Y-81112980D01*
X140313986Y-81302659D01*
X139594014Y-81302659D01*
X139530270Y-81112980D01*
X139119972Y-80933712D01*
X138672304Y-80925105D01*
X138255417Y-81088468D01*
X138218730Y-81112980D01*
X138154986Y-81302659D01*
X124117500Y-81302659D01*
X124117500Y-74117500D01*
X177382500Y-74117500D01*
X177382500Y-117382500D01*
X177382500Y-117382500D01*
G37*
X177382500Y-117382500D02*
X124117500Y-117382500D01*
X124117500Y-116134595D01*
X124122007Y-116145476D01*
X124242124Y-116265593D01*
X124399065Y-116330600D01*
X125370250Y-116330600D01*
X125477000Y-116223850D01*
X125477000Y-115063000D01*
X125523000Y-115063000D01*
X125523000Y-116223850D01*
X125629750Y-116330600D01*
X126600935Y-116330600D01*
X126757876Y-116265593D01*
X126877993Y-116145476D01*
X126943000Y-115988536D01*
X126943000Y-115169750D01*
X126836250Y-115063000D01*
X125523000Y-115063000D01*
X125477000Y-115063000D01*
X125457000Y-115063000D01*
X125457000Y-115017000D01*
X125477000Y-115017000D01*
X125477000Y-114997000D01*
X125523000Y-114997000D01*
X125523000Y-115017000D01*
X126836250Y-115017000D01*
X126943000Y-114910250D01*
X126943000Y-114091464D01*
X126877993Y-113934524D01*
X126757876Y-113814407D01*
X126600935Y-113749400D01*
X125887796Y-113749400D01*
X126174561Y-113692359D01*
X126593262Y-113412592D01*
X126873029Y-112993891D01*
X126971270Y-112500000D01*
X126873029Y-112006109D01*
X126593262Y-111587408D01*
X126174561Y-111307641D01*
X125784233Y-111230000D01*
X126174561Y-111152359D01*
X126593262Y-110872592D01*
X126873029Y-110453891D01*
X126971270Y-109960000D01*
X126873029Y-109466109D01*
X126593262Y-109047408D01*
X126174561Y-108767641D01*
X125784233Y-108690000D01*
X126174561Y-108612359D01*
X126593262Y-108332592D01*
X126873029Y-107913891D01*
X126971270Y-107420000D01*
X126873029Y-106926109D01*
X126593262Y-106507408D01*
X126174561Y-106227641D01*
X125784233Y-106150000D01*
X126174561Y-106072359D01*
X126593262Y-105792592D01*
X126873029Y-105373891D01*
X126971270Y-104880000D01*
X126873029Y-104386109D01*
X126593262Y-103967408D01*
X126174561Y-103687641D01*
X125680670Y-103589400D01*
X125319330Y-103589400D01*
X124825439Y-103687641D01*
X124406738Y-103967408D01*
X124126971Y-104386109D01*
X124117500Y-104433723D01*
X124117500Y-97572592D01*
X128628349Y-97572592D01*
X128760747Y-97893020D01*
X129005690Y-98138391D01*
X129325887Y-98271349D01*
X129423000Y-98271434D01*
X129423000Y-106594493D01*
X129311609Y-106705690D01*
X129178651Y-107025887D01*
X129178349Y-107372592D01*
X129310747Y-107693020D01*
X129423000Y-107805469D01*
X129423000Y-107828617D01*
X129470728Y-108068560D01*
X129576550Y-108226934D01*
X129606644Y-108271973D01*
X133856644Y-112521973D01*
X134060058Y-112657890D01*
X134300000Y-112705617D01*
X135921383Y-112705617D01*
X136161326Y-112657889D01*
X136364739Y-112521973D01*
X138059712Y-110827000D01*
X142340288Y-110827000D01*
X144656644Y-113143356D01*
X144860058Y-113279273D01*
X145100000Y-113327000D01*
X148193213Y-113327000D01*
X148173000Y-113428617D01*
X148173000Y-114500000D01*
X148220728Y-114739943D01*
X148334523Y-114910250D01*
X148356644Y-114943356D01*
X150056644Y-116643356D01*
X150260057Y-116779272D01*
X150500000Y-116827000D01*
X153994493Y-116827000D01*
X154105690Y-116938391D01*
X154425887Y-117071349D01*
X154772592Y-117071651D01*
X155093020Y-116939253D01*
X155338391Y-116694310D01*
X155471349Y-116374113D01*
X155471651Y-116027408D01*
X155339253Y-115706980D01*
X155094310Y-115461609D01*
X154774113Y-115328651D01*
X154427408Y-115328349D01*
X154106980Y-115460747D01*
X153994531Y-115573000D01*
X150759712Y-115573000D01*
X150465758Y-115279046D01*
X150559511Y-115240308D01*
X150613547Y-115186367D01*
X150661180Y-115234083D01*
X150981377Y-115367041D01*
X151328082Y-115367343D01*
X151648510Y-115234945D01*
X151893881Y-114990002D01*
X152026839Y-114669805D01*
X152027141Y-114323100D01*
X151894743Y-114002672D01*
X151791797Y-113899546D01*
X151827000Y-113722565D01*
X151827000Y-113406772D01*
X151901776Y-113421646D01*
X152131805Y-113652077D01*
X152375891Y-113753431D01*
X152187735Y-113941258D01*
X152054777Y-114261455D01*
X152054475Y-114608160D01*
X152186873Y-114928588D01*
X152431816Y-115173959D01*
X152752013Y-115306917D01*
X153098718Y-115307219D01*
X153419146Y-115174821D01*
X153664517Y-114929878D01*
X153797475Y-114609681D01*
X153797760Y-114282165D01*
X153857510Y-114192743D01*
X153897625Y-113991069D01*
X153897625Y-113322698D01*
X167923628Y-113322698D01*
X168056799Y-113644994D01*
X168303169Y-113891795D01*
X168625233Y-114025527D01*
X168973958Y-114025832D01*
X169296254Y-113892661D01*
X169543055Y-113646291D01*
X169676787Y-113324227D01*
X169676788Y-113322698D01*
X172322908Y-113322698D01*
X172456079Y-113644994D01*
X172702449Y-113891795D01*
X173024513Y-114025527D01*
X173373238Y-114025832D01*
X173695534Y-113892661D01*
X173942335Y-113646291D01*
X174076067Y-113324227D01*
X174076372Y-112975502D01*
X173943201Y-112653206D01*
X173696831Y-112406405D01*
X173374767Y-112272673D01*
X173026042Y-112272368D01*
X172703746Y-112405539D01*
X172456945Y-112651909D01*
X172323213Y-112973973D01*
X172322908Y-113322698D01*
X169676788Y-113322698D01*
X169677092Y-112975502D01*
X169543921Y-112653206D01*
X169297551Y-112406405D01*
X168975487Y-112272673D01*
X168626762Y-112272368D01*
X168304466Y-112405539D01*
X168057665Y-112651909D01*
X167923933Y-112973973D01*
X167923628Y-113322698D01*
X153897625Y-113322698D01*
X153897625Y-111670625D01*
X153857510Y-111468951D01*
X153743270Y-111297980D01*
X153027000Y-110581710D01*
X153027000Y-101718290D01*
X154428147Y-100317144D01*
X154542386Y-100146173D01*
X154582501Y-99944499D01*
X154582501Y-99871573D01*
X154672592Y-99871651D01*
X154873000Y-99788844D01*
X154873000Y-110350161D01*
X154913115Y-110551836D01*
X155027355Y-110722806D01*
X155792650Y-111488102D01*
X155792390Y-111786794D01*
X155924788Y-112107222D01*
X156169731Y-112352593D01*
X156489928Y-112485551D01*
X156836633Y-112485853D01*
X157157061Y-112353455D01*
X157402432Y-112108512D01*
X157535390Y-111788315D01*
X157535692Y-111441610D01*
X157403294Y-111121182D01*
X157158351Y-110875811D01*
X156838154Y-110742853D01*
X156537721Y-110742591D01*
X155927000Y-110131871D01*
X155927000Y-104372592D01*
X163328349Y-104372592D01*
X163460747Y-104693020D01*
X163705690Y-104938391D01*
X164025887Y-105071349D01*
X164372592Y-105071651D01*
X164693020Y-104939253D01*
X164805469Y-104827000D01*
X171900000Y-104827000D01*
X172139943Y-104779272D01*
X172343356Y-104643356D01*
X172743356Y-104243356D01*
X172879272Y-104039943D01*
X172927000Y-103800000D01*
X172927000Y-102105507D01*
X173038391Y-101994310D01*
X173171349Y-101674113D01*
X173171651Y-101327408D01*
X173039253Y-101006980D01*
X172794310Y-100761609D01*
X172474113Y-100628651D01*
X172127408Y-100628349D01*
X172071369Y-100651504D01*
X172071487Y-100515225D01*
X172087855Y-100498857D01*
X172202413Y-100327408D01*
X172223771Y-100295444D01*
X172223771Y-100295443D01*
X172223772Y-100295442D01*
X172271499Y-100055501D01*
X172271499Y-96044499D01*
X172223771Y-95804556D01*
X172087855Y-95601143D01*
X170943356Y-94456644D01*
X170869028Y-94406980D01*
X170739943Y-94320728D01*
X170500000Y-94273000D01*
X168705507Y-94273000D01*
X168594310Y-94161609D01*
X168274113Y-94028651D01*
X167927408Y-94028349D01*
X167606980Y-94160747D01*
X167361609Y-94405690D01*
X167228651Y-94725887D01*
X167228349Y-95072592D01*
X167360747Y-95393020D01*
X167605690Y-95638391D01*
X167925887Y-95771349D01*
X168272592Y-95771651D01*
X168593020Y-95639253D01*
X168705469Y-95527000D01*
X170240288Y-95527000D01*
X171017499Y-96304211D01*
X171017499Y-99632443D01*
X170706980Y-99760747D01*
X170461609Y-100005690D01*
X170328651Y-100325887D01*
X170328349Y-100672592D01*
X170460747Y-100993020D01*
X170705690Y-101238391D01*
X171025887Y-101371349D01*
X171372592Y-101371651D01*
X171428631Y-101348496D01*
X171428455Y-101551216D01*
X171374113Y-101528651D01*
X171046597Y-101528366D01*
X170957176Y-101468616D01*
X170755501Y-101428501D01*
X168149831Y-101428501D01*
X167938809Y-101217110D01*
X167618612Y-101084152D01*
X167271907Y-101083850D01*
X166951479Y-101216248D01*
X166706108Y-101461191D01*
X166573150Y-101781388D01*
X166572848Y-102128093D01*
X166705246Y-102448521D01*
X166950189Y-102693892D01*
X167270386Y-102826850D01*
X167617091Y-102827152D01*
X167937519Y-102694754D01*
X168150143Y-102482501D01*
X170328427Y-102482501D01*
X170328349Y-102572592D01*
X170460747Y-102893020D01*
X170705690Y-103138391D01*
X171025887Y-103271349D01*
X171372592Y-103271651D01*
X171673000Y-103147525D01*
X171673000Y-103540288D01*
X171640288Y-103573000D01*
X164805507Y-103573000D01*
X164694310Y-103461609D01*
X164374113Y-103328651D01*
X164027408Y-103328349D01*
X163706980Y-103460747D01*
X163461609Y-103705690D01*
X163328651Y-104025887D01*
X163328349Y-104372592D01*
X155927000Y-104372592D01*
X155927000Y-98105332D01*
X156138391Y-97894310D01*
X156229531Y-97674822D01*
X156773000Y-98218291D01*
X156773000Y-98294668D01*
X156561609Y-98505690D01*
X156428651Y-98825887D01*
X156428349Y-99172592D01*
X156560747Y-99493020D01*
X156805690Y-99738391D01*
X157125887Y-99871349D01*
X157472592Y-99871651D01*
X157793020Y-99739253D01*
X158038391Y-99494310D01*
X158171349Y-99174113D01*
X158171651Y-98827408D01*
X158039253Y-98506980D01*
X157827000Y-98294356D01*
X157827000Y-98000000D01*
X157786885Y-97798326D01*
X157727905Y-97710057D01*
X157672645Y-97627354D01*
X156272290Y-96227000D01*
X157940288Y-96227000D01*
X163728486Y-102015198D01*
X163728349Y-102172592D01*
X163860747Y-102493020D01*
X164105690Y-102738391D01*
X164425887Y-102871349D01*
X164772592Y-102871651D01*
X165093020Y-102739253D01*
X165338391Y-102494310D01*
X165471349Y-102174113D01*
X165471651Y-101827408D01*
X165339253Y-101506980D01*
X165094310Y-101261609D01*
X164774113Y-101128651D01*
X164615225Y-101128513D01*
X158643356Y-95156644D01*
X158519839Y-95074113D01*
X158439943Y-95020728D01*
X158200000Y-94973000D01*
X152500000Y-94973000D01*
X152260057Y-95020728D01*
X152180161Y-95074113D01*
X152056644Y-95156644D01*
X149956644Y-97256644D01*
X149820728Y-97460057D01*
X149773000Y-97700000D01*
X149773000Y-99140288D01*
X149001143Y-99912145D01*
X148865227Y-100115558D01*
X148817499Y-100355501D01*
X148817499Y-100832443D01*
X148727000Y-100869837D01*
X148727000Y-94805332D01*
X148938391Y-94594310D01*
X149071349Y-94274113D01*
X149071651Y-93927408D01*
X148939253Y-93606980D01*
X148694310Y-93361609D01*
X148374113Y-93228651D01*
X148027408Y-93228349D01*
X147706980Y-93360747D01*
X147461609Y-93605690D01*
X147328651Y-93925887D01*
X147328349Y-94272592D01*
X147460747Y-94593020D01*
X147673000Y-94805644D01*
X147673000Y-105569713D01*
X147574113Y-105528651D01*
X147227408Y-105528349D01*
X146906980Y-105660747D01*
X146766761Y-105800721D01*
X146682305Y-105783922D01*
X143625752Y-105783922D01*
X143671349Y-105674113D01*
X143671525Y-105471563D01*
X143772592Y-105471651D01*
X144093020Y-105339253D01*
X144338391Y-105094310D01*
X144471349Y-104774113D01*
X144471651Y-104427408D01*
X144339253Y-104106980D01*
X144094310Y-103861609D01*
X143774113Y-103728651D01*
X143427408Y-103728349D01*
X143106980Y-103860747D01*
X142894356Y-104073000D01*
X140805332Y-104073000D01*
X140594310Y-103861609D01*
X140274113Y-103728651D01*
X139927408Y-103728349D01*
X139606980Y-103860747D01*
X139361609Y-104105690D01*
X139228651Y-104425887D01*
X139228349Y-104772592D01*
X139360747Y-105093020D01*
X139605690Y-105338391D01*
X139925887Y-105471349D01*
X140128495Y-105471525D01*
X140128349Y-105639005D01*
X140146909Y-105683923D01*
X138759701Y-105683923D01*
X138258634Y-105182856D01*
X138087664Y-105068616D01*
X137885989Y-105028501D01*
X137244499Y-105028501D01*
X137042825Y-105068616D01*
X136953004Y-105128633D01*
X136627408Y-105128349D01*
X136306980Y-105260747D01*
X136061609Y-105505690D01*
X135928651Y-105825887D01*
X135928349Y-106172592D01*
X136060747Y-106493020D01*
X136305690Y-106738391D01*
X136625887Y-106871349D01*
X136972592Y-106871651D01*
X137040209Y-106843712D01*
X137040198Y-106855817D01*
X137172596Y-107176245D01*
X137280017Y-107283854D01*
X137224720Y-107283806D01*
X136904292Y-107416204D01*
X136658921Y-107661147D01*
X136525963Y-107981344D01*
X136525749Y-108227041D01*
X136403104Y-108226934D01*
X136082676Y-108359332D01*
X135837305Y-108604275D01*
X135753723Y-108805561D01*
X135480383Y-108805323D01*
X135159955Y-108937721D01*
X134914584Y-109182664D01*
X134781626Y-109502861D01*
X134781324Y-109849566D01*
X134901488Y-110140385D01*
X134603114Y-110140125D01*
X134282686Y-110272523D01*
X134037315Y-110517466D01*
X133916504Y-110808409D01*
X130792503Y-107684408D01*
X130921349Y-107374113D01*
X130921651Y-107027408D01*
X130789253Y-106706980D01*
X130677000Y-106594531D01*
X130677000Y-99772592D01*
X139628349Y-99772592D01*
X139760747Y-100093020D01*
X140005690Y-100338391D01*
X140325887Y-100471349D01*
X140672592Y-100471651D01*
X140993020Y-100339253D01*
X141205644Y-100127000D01*
X142231829Y-100127000D01*
X144925368Y-102820540D01*
X144861609Y-102884188D01*
X144728651Y-103204385D01*
X144728349Y-103551090D01*
X144860747Y-103871518D01*
X145105690Y-104116889D01*
X145425887Y-104249847D01*
X145772592Y-104250149D01*
X146093020Y-104117751D01*
X146338391Y-103872808D01*
X146471349Y-103552611D01*
X146471651Y-103205906D01*
X146339253Y-102885478D01*
X146107866Y-102653687D01*
X146086885Y-102548207D01*
X146042981Y-102482501D01*
X145972645Y-102377235D01*
X142822764Y-99227355D01*
X142651794Y-99113115D01*
X142450119Y-99073000D01*
X141205332Y-99073000D01*
X140994310Y-98861609D01*
X140674113Y-98728651D01*
X140327408Y-98728349D01*
X140006980Y-98860747D01*
X139761609Y-99105690D01*
X139628651Y-99425887D01*
X139628349Y-99772592D01*
X130677000Y-99772592D01*
X130677000Y-97950000D01*
X130629272Y-97710057D01*
X130493356Y-97506644D01*
X130371514Y-97384802D01*
X130371651Y-97227408D01*
X130239253Y-96906980D01*
X129994310Y-96661609D01*
X129674113Y-96528651D01*
X129327408Y-96528349D01*
X129006980Y-96660747D01*
X128761609Y-96905690D01*
X128628651Y-97225887D01*
X128628349Y-97572592D01*
X124117500Y-97572592D01*
X124117500Y-90172592D01*
X146128349Y-90172592D01*
X146260747Y-90493020D01*
X146505690Y-90738391D01*
X146825887Y-90871349D01*
X147172592Y-90871651D01*
X147493020Y-90739253D01*
X147705644Y-90527000D01*
X150633468Y-90527000D01*
X150660747Y-90593020D01*
X150905690Y-90838391D01*
X151225887Y-90971349D01*
X151572592Y-90971651D01*
X151893020Y-90839253D01*
X152138391Y-90594310D01*
X152271349Y-90274113D01*
X152271651Y-89927408D01*
X152139253Y-89606980D01*
X151894310Y-89361609D01*
X151574113Y-89228651D01*
X151227408Y-89228349D01*
X150906980Y-89360747D01*
X150794531Y-89473000D01*
X147705332Y-89473000D01*
X147494310Y-89261609D01*
X147174113Y-89128651D01*
X146827408Y-89128349D01*
X146506980Y-89260747D01*
X146261609Y-89505690D01*
X146128651Y-89825887D01*
X146128349Y-90172592D01*
X124117500Y-90172592D01*
X124117500Y-87099341D01*
X138154986Y-87099341D01*
X138218730Y-87289020D01*
X138629028Y-87468288D01*
X139076696Y-87476895D01*
X139493583Y-87313532D01*
X139530270Y-87289020D01*
X139594014Y-87099341D01*
X138874500Y-86379827D01*
X138154986Y-87099341D01*
X124117500Y-87099341D01*
X124117500Y-86549496D01*
X137744905Y-86549496D01*
X137908268Y-86966383D01*
X137932780Y-87003070D01*
X138122459Y-87066814D01*
X138841973Y-86347300D01*
X138907027Y-86347300D01*
X139626541Y-87066814D01*
X139816220Y-87003070D01*
X139955217Y-86684941D01*
X140078791Y-86984012D01*
X140395123Y-87300896D01*
X140808642Y-87472604D01*
X141256394Y-87472995D01*
X141670212Y-87302009D01*
X141987096Y-86985677D01*
X142113098Y-86682231D01*
X142237791Y-86984012D01*
X142554123Y-87300896D01*
X142967642Y-87472604D01*
X143415394Y-87472995D01*
X143829212Y-87302009D01*
X144146096Y-86985677D01*
X144272098Y-86682231D01*
X144396791Y-86984012D01*
X144713123Y-87300896D01*
X145126642Y-87472604D01*
X145574394Y-87472995D01*
X145988212Y-87302009D01*
X146305096Y-86985677D01*
X146431098Y-86682231D01*
X146555791Y-86984012D01*
X146872123Y-87300896D01*
X147285642Y-87472604D01*
X147733394Y-87472995D01*
X148147212Y-87302009D01*
X148464096Y-86985677D01*
X148590098Y-86682231D01*
X148714791Y-86984012D01*
X149031123Y-87300896D01*
X149444642Y-87472604D01*
X149892394Y-87472995D01*
X150306212Y-87302009D01*
X150623096Y-86985677D01*
X150749098Y-86682231D01*
X150873791Y-86984012D01*
X151190123Y-87300896D01*
X151603642Y-87472604D01*
X152051394Y-87472995D01*
X152465212Y-87302009D01*
X152782096Y-86985677D01*
X152908098Y-86682231D01*
X153032791Y-86984012D01*
X153349123Y-87300896D01*
X153762642Y-87472604D01*
X154210394Y-87472995D01*
X154624212Y-87302009D01*
X154941096Y-86985677D01*
X155067098Y-86682231D01*
X155191791Y-86984012D01*
X155508123Y-87300896D01*
X155921642Y-87472604D01*
X156369394Y-87472995D01*
X156410656Y-87455946D01*
X157783108Y-88828398D01*
X157727408Y-88828349D01*
X157406980Y-88960747D01*
X157161609Y-89205690D01*
X157028651Y-89525887D01*
X157028349Y-89872592D01*
X157160747Y-90193020D01*
X157405690Y-90438391D01*
X157725887Y-90571349D01*
X158053403Y-90571634D01*
X158087340Y-90594310D01*
X158142825Y-90631384D01*
X158344499Y-90671499D01*
X161555501Y-90671499D01*
X161757176Y-90631384D01*
X161928146Y-90517144D01*
X164672645Y-87772645D01*
X164786885Y-87601674D01*
X164827000Y-87400000D01*
X164827000Y-84602466D01*
X172127549Y-84602466D01*
X172435522Y-85347816D01*
X173005284Y-85918574D01*
X173750096Y-86227847D01*
X174556566Y-86228551D01*
X175301916Y-85920578D01*
X175872674Y-85350816D01*
X176181947Y-84606004D01*
X176182651Y-83799534D01*
X175874678Y-83054184D01*
X175304916Y-82483426D01*
X174560104Y-82174153D01*
X173753634Y-82173449D01*
X173008284Y-82481422D01*
X172437526Y-83051184D01*
X172128253Y-83795996D01*
X172127549Y-84602466D01*
X164827000Y-84602466D01*
X164827000Y-83731200D01*
X164786885Y-83529526D01*
X164786885Y-83529525D01*
X164672645Y-83358555D01*
X163703281Y-82389191D01*
X163748804Y-82279558D01*
X163749195Y-81831806D01*
X163578209Y-81417988D01*
X163261877Y-81101104D01*
X162848358Y-80929396D01*
X162400606Y-80929005D01*
X161986788Y-81099991D01*
X161669904Y-81416323D01*
X161543902Y-81719769D01*
X161419209Y-81417988D01*
X161102877Y-81101104D01*
X160689358Y-80929396D01*
X160241606Y-80929005D01*
X159827788Y-81099991D01*
X159510904Y-81416323D01*
X159384902Y-81719769D01*
X159260209Y-81417988D01*
X158943877Y-81101104D01*
X158530358Y-80929396D01*
X158082606Y-80929005D01*
X157668788Y-81099991D01*
X157351904Y-81416323D01*
X157225902Y-81719769D01*
X157101209Y-81417988D01*
X156784877Y-81101104D01*
X156371358Y-80929396D01*
X155923606Y-80929005D01*
X155509788Y-81099991D01*
X155192904Y-81416323D01*
X155066902Y-81719769D01*
X154942209Y-81417988D01*
X154625877Y-81101104D01*
X154212358Y-80929396D01*
X153764606Y-80929005D01*
X153350788Y-81099991D01*
X153033904Y-81416323D01*
X152906965Y-81722026D01*
X152794732Y-81435617D01*
X152770220Y-81398930D01*
X152580541Y-81335186D01*
X151861027Y-82054700D01*
X152580541Y-82774214D01*
X152770220Y-82710470D01*
X152909217Y-82392341D01*
X153032791Y-82691412D01*
X153349123Y-83008296D01*
X153762642Y-83180004D01*
X154210394Y-83180395D01*
X154624212Y-83009409D01*
X154941096Y-82693077D01*
X155067098Y-82389631D01*
X155191791Y-82691412D01*
X155508123Y-83008296D01*
X155921642Y-83180004D01*
X156369394Y-83180395D01*
X156783212Y-83009409D01*
X157100096Y-82693077D01*
X157226098Y-82389631D01*
X157350791Y-82691412D01*
X157667123Y-83008296D01*
X158080642Y-83180004D01*
X158528394Y-83180395D01*
X158942212Y-83009409D01*
X159259096Y-82693077D01*
X159385098Y-82389631D01*
X159509791Y-82691412D01*
X159826123Y-83008296D01*
X160239642Y-83180004D01*
X160687394Y-83180395D01*
X161101212Y-83009409D01*
X161418096Y-82693077D01*
X161544098Y-82389631D01*
X161668791Y-82691412D01*
X161985123Y-83008296D01*
X162398642Y-83180004D01*
X162846394Y-83180395D01*
X162957852Y-83134342D01*
X163773000Y-83949490D01*
X163773000Y-87181710D01*
X161337211Y-89617499D01*
X159670286Y-89617499D01*
X159771349Y-89374113D01*
X159771651Y-89027408D01*
X159639253Y-88706980D01*
X159394310Y-88461609D01*
X159074113Y-88328651D01*
X158773679Y-88328389D01*
X157802328Y-87357038D01*
X158080642Y-87472604D01*
X158528394Y-87472995D01*
X158942212Y-87302009D01*
X159259096Y-86985677D01*
X159385098Y-86682231D01*
X159509791Y-86984012D01*
X159826123Y-87300896D01*
X160239642Y-87472604D01*
X160687394Y-87472995D01*
X161101212Y-87302009D01*
X161418096Y-86985677D01*
X161544098Y-86682231D01*
X161668791Y-86984012D01*
X161985123Y-87300896D01*
X162398642Y-87472604D01*
X162846394Y-87472995D01*
X163260212Y-87302009D01*
X163577096Y-86985677D01*
X163748804Y-86572158D01*
X163749195Y-86124406D01*
X163578209Y-85710588D01*
X163261877Y-85393704D01*
X162848358Y-85221996D01*
X162400606Y-85221605D01*
X161986788Y-85392591D01*
X161669904Y-85708923D01*
X161543902Y-86012369D01*
X161419209Y-85710588D01*
X161102877Y-85393704D01*
X160689358Y-85221996D01*
X160241606Y-85221605D01*
X159827788Y-85392591D01*
X159510904Y-85708923D01*
X159384902Y-86012369D01*
X159260209Y-85710588D01*
X158943877Y-85393704D01*
X158530358Y-85221996D01*
X158082606Y-85221605D01*
X157668788Y-85392591D01*
X157351904Y-85708923D01*
X157225902Y-86012369D01*
X157101209Y-85710588D01*
X156784877Y-85393704D01*
X156371358Y-85221996D01*
X155923606Y-85221605D01*
X155509788Y-85392591D01*
X155192904Y-85708923D01*
X155066902Y-86012369D01*
X154942209Y-85710588D01*
X154625877Y-85393704D01*
X154212358Y-85221996D01*
X153764606Y-85221605D01*
X153350788Y-85392591D01*
X153033904Y-85708923D01*
X152907902Y-86012369D01*
X152783209Y-85710588D01*
X152466877Y-85393704D01*
X152053358Y-85221996D01*
X151605606Y-85221605D01*
X151191788Y-85392591D01*
X150874904Y-85708923D01*
X150748902Y-86012369D01*
X150624209Y-85710588D01*
X150307877Y-85393704D01*
X149894358Y-85221996D01*
X149446606Y-85221605D01*
X149032788Y-85392591D01*
X148715904Y-85708923D01*
X148589902Y-86012369D01*
X148465209Y-85710588D01*
X148148877Y-85393704D01*
X147735358Y-85221996D01*
X147287606Y-85221605D01*
X146873788Y-85392591D01*
X146556904Y-85708923D01*
X146430902Y-86012369D01*
X146306209Y-85710588D01*
X145989877Y-85393704D01*
X145576358Y-85221996D01*
X145128606Y-85221605D01*
X144714788Y-85392591D01*
X144397904Y-85708923D01*
X144271902Y-86012369D01*
X144147209Y-85710588D01*
X143830877Y-85393704D01*
X143417358Y-85221996D01*
X142969606Y-85221605D01*
X142555788Y-85392591D01*
X142238904Y-85708923D01*
X142112902Y-86012369D01*
X141988209Y-85710588D01*
X141671877Y-85393704D01*
X141258358Y-85221996D01*
X140810606Y-85221605D01*
X140396788Y-85392591D01*
X140079904Y-85708923D01*
X139952965Y-86014626D01*
X139840732Y-85728217D01*
X139816220Y-85691530D01*
X139626541Y-85627786D01*
X138907027Y-86347300D01*
X138841973Y-86347300D01*
X138122459Y-85627786D01*
X137932780Y-85691530D01*
X137753512Y-86101828D01*
X137744905Y-86549496D01*
X124117500Y-86549496D01*
X124117500Y-84602466D01*
X125315349Y-84602466D01*
X125623322Y-85347816D01*
X126193084Y-85918574D01*
X126937896Y-86227847D01*
X127744366Y-86228551D01*
X128489716Y-85920578D01*
X128815603Y-85595259D01*
X138154986Y-85595259D01*
X138874500Y-86314773D01*
X139594014Y-85595259D01*
X139530270Y-85405580D01*
X139119972Y-85226312D01*
X138672304Y-85217705D01*
X138255417Y-85381068D01*
X138218730Y-85405580D01*
X138154986Y-85595259D01*
X128815603Y-85595259D01*
X129060474Y-85350816D01*
X129369747Y-84606004D01*
X129370451Y-83799534D01*
X129062478Y-83054184D01*
X128815467Y-82806741D01*
X138154986Y-82806741D01*
X138218730Y-82996420D01*
X138629028Y-83175688D01*
X139076696Y-83184295D01*
X139493583Y-83020932D01*
X139530270Y-82996420D01*
X139594014Y-82806741D01*
X140313986Y-82806741D01*
X140377730Y-82996420D01*
X140788028Y-83175688D01*
X141235696Y-83184295D01*
X141652583Y-83020932D01*
X141689270Y-82996420D01*
X141753014Y-82806741D01*
X142472986Y-82806741D01*
X142536730Y-82996420D01*
X142947028Y-83175688D01*
X143394696Y-83184295D01*
X143811583Y-83020932D01*
X143848270Y-82996420D01*
X143912014Y-82806741D01*
X144631986Y-82806741D01*
X144695730Y-82996420D01*
X145106028Y-83175688D01*
X145553696Y-83184295D01*
X145970583Y-83020932D01*
X146007270Y-82996420D01*
X146071014Y-82806741D01*
X146790986Y-82806741D01*
X146854730Y-82996420D01*
X147265028Y-83175688D01*
X147712696Y-83184295D01*
X148129583Y-83020932D01*
X148166270Y-82996420D01*
X148230014Y-82806741D01*
X148949986Y-82806741D01*
X149013730Y-82996420D01*
X149424028Y-83175688D01*
X149871696Y-83184295D01*
X150288583Y-83020932D01*
X150325270Y-82996420D01*
X150389014Y-82806741D01*
X151108986Y-82806741D01*
X151172730Y-82996420D01*
X151583028Y-83175688D01*
X152030696Y-83184295D01*
X152447583Y-83020932D01*
X152484270Y-82996420D01*
X152548014Y-82806741D01*
X151828500Y-82087227D01*
X151108986Y-82806741D01*
X150389014Y-82806741D01*
X149669500Y-82087227D01*
X148949986Y-82806741D01*
X148230014Y-82806741D01*
X147510500Y-82087227D01*
X146790986Y-82806741D01*
X146071014Y-82806741D01*
X145351500Y-82087227D01*
X144631986Y-82806741D01*
X143912014Y-82806741D01*
X143192500Y-82087227D01*
X142472986Y-82806741D01*
X141753014Y-82806741D01*
X141033500Y-82087227D01*
X140313986Y-82806741D01*
X139594014Y-82806741D01*
X138874500Y-82087227D01*
X138154986Y-82806741D01*
X128815467Y-82806741D01*
X128492716Y-82483426D01*
X127947172Y-82256896D01*
X137744905Y-82256896D01*
X137908268Y-82673783D01*
X137932780Y-82710470D01*
X138122459Y-82774214D01*
X138841973Y-82054700D01*
X138907027Y-82054700D01*
X139626541Y-82774214D01*
X139816220Y-82710470D01*
X139956147Y-82390213D01*
X140067268Y-82673783D01*
X140091780Y-82710470D01*
X140281459Y-82774214D01*
X141000973Y-82054700D01*
X141066027Y-82054700D01*
X141785541Y-82774214D01*
X141975220Y-82710470D01*
X142115147Y-82390213D01*
X142226268Y-82673783D01*
X142250780Y-82710470D01*
X142440459Y-82774214D01*
X143159973Y-82054700D01*
X143225027Y-82054700D01*
X143944541Y-82774214D01*
X144134220Y-82710470D01*
X144274147Y-82390213D01*
X144385268Y-82673783D01*
X144409780Y-82710470D01*
X144599459Y-82774214D01*
X145318973Y-82054700D01*
X145384027Y-82054700D01*
X146103541Y-82774214D01*
X146293220Y-82710470D01*
X146433147Y-82390213D01*
X146544268Y-82673783D01*
X146568780Y-82710470D01*
X146758459Y-82774214D01*
X147477973Y-82054700D01*
X147543027Y-82054700D01*
X148262541Y-82774214D01*
X148452220Y-82710470D01*
X148592147Y-82390213D01*
X148703268Y-82673783D01*
X148727780Y-82710470D01*
X148917459Y-82774214D01*
X149636973Y-82054700D01*
X149702027Y-82054700D01*
X150421541Y-82774214D01*
X150611220Y-82710470D01*
X150751147Y-82390213D01*
X150862268Y-82673783D01*
X150886780Y-82710470D01*
X151076459Y-82774214D01*
X151795973Y-82054700D01*
X151076459Y-81335186D01*
X150886780Y-81398930D01*
X150746853Y-81719187D01*
X150635732Y-81435617D01*
X150611220Y-81398930D01*
X150421541Y-81335186D01*
X149702027Y-82054700D01*
X149636973Y-82054700D01*
X148917459Y-81335186D01*
X148727780Y-81398930D01*
X148587853Y-81719187D01*
X148476732Y-81435617D01*
X148452220Y-81398930D01*
X148262541Y-81335186D01*
X147543027Y-82054700D01*
X147477973Y-82054700D01*
X146758459Y-81335186D01*
X146568780Y-81398930D01*
X146428853Y-81719187D01*
X146317732Y-81435617D01*
X146293220Y-81398930D01*
X146103541Y-81335186D01*
X145384027Y-82054700D01*
X145318973Y-82054700D01*
X144599459Y-81335186D01*
X144409780Y-81398930D01*
X144269853Y-81719187D01*
X144158732Y-81435617D01*
X144134220Y-81398930D01*
X143944541Y-81335186D01*
X143225027Y-82054700D01*
X143159973Y-82054700D01*
X142440459Y-81335186D01*
X142250780Y-81398930D01*
X142110853Y-81719187D01*
X141999732Y-81435617D01*
X141975220Y-81398930D01*
X141785541Y-81335186D01*
X141066027Y-82054700D01*
X141000973Y-82054700D01*
X140281459Y-81335186D01*
X140091780Y-81398930D01*
X139951853Y-81719187D01*
X139840732Y-81435617D01*
X139816220Y-81398930D01*
X139626541Y-81335186D01*
X138907027Y-82054700D01*
X138841973Y-82054700D01*
X138122459Y-81335186D01*
X137932780Y-81398930D01*
X137753512Y-81809228D01*
X137744905Y-82256896D01*
X127947172Y-82256896D01*
X127747904Y-82174153D01*
X126941434Y-82173449D01*
X126196084Y-82481422D01*
X125625326Y-83051184D01*
X125316053Y-83795996D01*
X125315349Y-84602466D01*
X124117500Y-84602466D01*
X124117500Y-81302659D01*
X138154986Y-81302659D01*
X138874500Y-82022173D01*
X139594014Y-81302659D01*
X140313986Y-81302659D01*
X141033500Y-82022173D01*
X141753014Y-81302659D01*
X142472986Y-81302659D01*
X143192500Y-82022173D01*
X143912014Y-81302659D01*
X144631986Y-81302659D01*
X145351500Y-82022173D01*
X146071014Y-81302659D01*
X146790986Y-81302659D01*
X147510500Y-82022173D01*
X148230014Y-81302659D01*
X148949986Y-81302659D01*
X149669500Y-82022173D01*
X150389014Y-81302659D01*
X151108986Y-81302659D01*
X151828500Y-82022173D01*
X152548014Y-81302659D01*
X152484270Y-81112980D01*
X152073972Y-80933712D01*
X151626304Y-80925105D01*
X151209417Y-81088468D01*
X151172730Y-81112980D01*
X151108986Y-81302659D01*
X150389014Y-81302659D01*
X150325270Y-81112980D01*
X149914972Y-80933712D01*
X149467304Y-80925105D01*
X149050417Y-81088468D01*
X149013730Y-81112980D01*
X148949986Y-81302659D01*
X148230014Y-81302659D01*
X148166270Y-81112980D01*
X147755972Y-80933712D01*
X147308304Y-80925105D01*
X146891417Y-81088468D01*
X146854730Y-81112980D01*
X146790986Y-81302659D01*
X146071014Y-81302659D01*
X146007270Y-81112980D01*
X145596972Y-80933712D01*
X145149304Y-80925105D01*
X144732417Y-81088468D01*
X144695730Y-81112980D01*
X144631986Y-81302659D01*
X143912014Y-81302659D01*
X143848270Y-81112980D01*
X143437972Y-80933712D01*
X142990304Y-80925105D01*
X142573417Y-81088468D01*
X142536730Y-81112980D01*
X142472986Y-81302659D01*
X141753014Y-81302659D01*
X141689270Y-81112980D01*
X141278972Y-80933712D01*
X140831304Y-80925105D01*
X140414417Y-81088468D01*
X140377730Y-81112980D01*
X140313986Y-81302659D01*
X139594014Y-81302659D01*
X139530270Y-81112980D01*
X139119972Y-80933712D01*
X138672304Y-80925105D01*
X138255417Y-81088468D01*
X138218730Y-81112980D01*
X138154986Y-81302659D01*
X124117500Y-81302659D01*
X124117500Y-74117500D01*
X177382500Y-74117500D01*
X177382500Y-117382500D01*
M02*
