G04 #@! TF.FileFunction,Copper,L1,Top,Signal*
%FSLAX46Y46*%
G04 Gerber Fmt 4.6, Leading zero omitted, Abs format (unit mm)*
G04 Created by KiCad (PCBNEW 4.1.0-alpha+201605091531+6781~44~ubuntu15.10.1-product) date Mon 19 Sep 2016 03:19:41 PM CEST*
%MOMM*%
%LPD*%
G01*
G04 APERTURE LIST*
%ADD10C,0.150000*%
%ADD11R,2.000000X2.000000*%
%ADD12O,0.300000X0.600000*%
%ADD13O,0.600000X0.300000*%
%ADD14R,0.600000X2.000000*%
%ADD15R,0.406400X1.524000*%
%ADD16R,1.524000X0.406400*%
%ADD17R,0.500380X2.301240*%
%ADD18R,1.998980X2.499360*%
%ADD19R,0.500000X0.900000*%
%ADD20R,0.900000X0.500000*%
%ADD21R,0.750000X0.800000*%
%ADD22R,0.800000X0.750000*%
%ADD23R,2.500000X1.000000*%
%ADD24R,1.198880X1.198880*%
%ADD25C,1.397000*%
%ADD26C,3.200400*%
%ADD27R,2.032000X1.727200*%
%ADD28O,2.032000X1.727200*%
%ADD29R,2.400000X1.900000*%
%ADD30C,0.889000*%
%ADD31C,0.400000*%
%ADD32C,0.200000*%
%ADD33C,0.254000*%
G04 APERTURE END LIST*
D10*
D11*
X169300000Y-98500000D03*
D12*
X168325000Y-96900000D03*
X168975000Y-96900000D03*
X169625000Y-96900000D03*
X170275000Y-96900000D03*
D13*
X170900000Y-97525000D03*
X170900000Y-98175000D03*
X170900000Y-98825000D03*
X170900000Y-99475000D03*
D12*
X170275000Y-100100000D03*
X169625000Y-100100000D03*
X168975000Y-100100000D03*
X168325000Y-100100000D03*
D13*
X167700000Y-99475000D03*
X167700000Y-98825000D03*
X167700000Y-98175000D03*
X167700000Y-97525000D03*
D14*
X148040000Y-92300000D03*
X146770000Y-92300000D03*
X145500000Y-92300000D03*
X144230000Y-92300000D03*
X142960000Y-92300000D03*
X141690000Y-92300000D03*
X140420000Y-92300000D03*
X139150000Y-92300000D03*
X137880000Y-92300000D03*
X136610000Y-92300000D03*
X135340000Y-92300000D03*
X133943000Y-92300000D03*
X148040000Y-101700000D03*
X146770000Y-101700000D03*
X145500000Y-101700000D03*
X144230000Y-101700000D03*
X142960000Y-101700000D03*
X141690000Y-101700000D03*
X140420000Y-101700000D03*
X139150000Y-101700000D03*
X137880000Y-101700000D03*
X136610000Y-101700000D03*
X135340000Y-101700000D03*
X134070000Y-101700000D03*
X163615000Y-92300000D03*
X162345000Y-92300000D03*
X161075000Y-92300000D03*
X159805000Y-92300000D03*
X158535000Y-92300000D03*
X157265000Y-92300000D03*
X155995000Y-92300000D03*
X154725000Y-92300000D03*
X153455000Y-92300000D03*
X152185000Y-92300000D03*
X152185000Y-101700000D03*
X153455000Y-101700000D03*
X154725000Y-101700000D03*
X155995000Y-101700000D03*
X157265000Y-101700000D03*
X158535000Y-101700000D03*
X159805000Y-101700000D03*
X161075000Y-101700000D03*
X162345000Y-101700000D03*
X163615000Y-101700000D03*
D15*
X149000000Y-116215000D03*
X149800100Y-116215000D03*
X150600200Y-116215000D03*
X151400300Y-116215000D03*
X152200400Y-116215000D03*
X153000500Y-116215000D03*
X148199900Y-116215000D03*
X147399800Y-116215000D03*
X146599700Y-116215000D03*
X145799600Y-116215000D03*
X144999500Y-116215000D03*
X149000000Y-104785000D03*
X149800100Y-104785000D03*
X150600200Y-104785000D03*
X151400300Y-104785000D03*
X152200400Y-104785000D03*
X153000500Y-104785000D03*
X148199900Y-104785000D03*
X147399800Y-104785000D03*
X146599700Y-104785000D03*
X145799600Y-104785000D03*
X144999500Y-104785000D03*
D16*
X154715000Y-110500000D03*
X143285000Y-110500000D03*
X154715000Y-109699900D03*
X143285000Y-109699900D03*
X143285000Y-108899800D03*
X154715000Y-108899800D03*
X154715000Y-108099700D03*
X143285000Y-108099700D03*
X143285000Y-107299600D03*
X154715000Y-107299600D03*
X154715000Y-106499500D03*
X143285000Y-106499500D03*
X143285000Y-111300100D03*
X154715000Y-111300100D03*
X154715000Y-112100200D03*
X143285000Y-112100200D03*
X143285000Y-112900300D03*
X154715000Y-112900300D03*
X154715000Y-113700400D03*
X143285000Y-113700400D03*
X143285000Y-114500500D03*
X154715000Y-114500500D03*
D17*
X169399800Y-110550680D03*
X170199900Y-110550680D03*
X171000000Y-110550680D03*
X171800100Y-110550680D03*
X172600200Y-110550680D03*
D18*
X166549920Y-110649740D03*
X166549920Y-116148840D03*
X175450080Y-110649740D03*
X175450080Y-116148840D03*
D19*
X170750000Y-94500000D03*
X172250000Y-94500000D03*
X126750000Y-98100000D03*
X125250000Y-98100000D03*
X126700000Y-92600000D03*
X125200000Y-92600000D03*
D20*
X170000000Y-104750000D03*
X170000000Y-103250000D03*
X168500000Y-104000000D03*
X168500000Y-102500000D03*
D21*
X163500000Y-109250000D03*
X163500000Y-110750000D03*
X137200000Y-112050000D03*
X137200000Y-113550000D03*
X137200000Y-115550000D03*
X137200000Y-117050000D03*
D22*
X139500000Y-110500000D03*
X141000000Y-110500000D03*
D21*
X173500000Y-100750000D03*
X173500000Y-102250000D03*
D23*
X160900000Y-109800000D03*
X160900000Y-112800000D03*
D21*
X150000000Y-101750000D03*
X150000000Y-100250000D03*
X167150000Y-94750000D03*
X167150000Y-93250000D03*
X165600000Y-102350000D03*
X165600000Y-100850000D03*
D22*
X167250000Y-105000000D03*
X165750000Y-105000000D03*
X156750000Y-110000000D03*
X158250000Y-110000000D03*
X169750000Y-106500000D03*
X168250000Y-106500000D03*
D24*
X125254480Y-94278000D03*
X127352520Y-94278000D03*
X125254480Y-96437000D03*
X127352520Y-96437000D03*
X176129240Y-97980260D03*
X176129240Y-95882220D03*
X173843240Y-95836500D03*
X173843240Y-97934540D03*
D19*
X165250000Y-107500000D03*
X166750000Y-107500000D03*
D25*
X151828500Y-86347300D03*
X153987500Y-86347300D03*
X147510500Y-86347300D03*
X149669500Y-86347300D03*
X151828500Y-82054700D03*
X149669500Y-82054700D03*
X147510500Y-82054700D03*
X153987500Y-82054700D03*
X145351500Y-86347300D03*
X143192500Y-86347300D03*
X141033500Y-86347300D03*
X138874500Y-86347300D03*
X145351500Y-82054700D03*
X143192500Y-82054700D03*
X141033500Y-82054700D03*
X138874500Y-82054700D03*
X156146500Y-86347300D03*
X158305500Y-86347300D03*
X160464500Y-86347300D03*
X162623500Y-86347300D03*
X156146500Y-82054700D03*
X158305500Y-82054700D03*
X160464500Y-82054700D03*
X162623500Y-82054700D03*
D26*
X174155100Y-84201000D03*
X127342900Y-84201000D03*
D27*
X125500000Y-115040000D03*
D28*
X125500000Y-112500000D03*
X125500000Y-109960000D03*
X125500000Y-107420000D03*
X125500000Y-104880000D03*
D20*
X128500000Y-105000000D03*
X128500000Y-106500000D03*
X176000000Y-102250000D03*
X176000000Y-100750000D03*
D29*
X140000000Y-116550000D03*
X140000000Y-112450000D03*
D30*
X168100000Y-94900000D03*
X171200000Y-100500000D03*
X137911849Y-106683225D03*
X146602163Y-107199094D03*
X140500000Y-99600000D03*
X145600000Y-103378498D03*
X141026237Y-107755446D03*
X145466643Y-109046478D03*
X138171203Y-111358545D03*
X149555490Y-98853959D03*
X153298266Y-110241698D03*
X169300000Y-98500000D03*
X165800000Y-106000000D03*
X168400000Y-105500000D03*
X166500000Y-112500000D03*
X164800000Y-116100000D03*
X147400000Y-114700000D03*
X146600000Y-114000000D03*
X145800000Y-114700000D03*
X145200000Y-113700000D03*
X170300000Y-96000000D03*
X168100000Y-93200000D03*
X166700000Y-99000000D03*
X166500000Y-100800000D03*
X158393127Y-110751679D03*
X136100000Y-115500000D03*
X136100000Y-113600000D03*
X134000000Y-90400000D03*
X152700000Y-90200000D03*
X126700000Y-99300000D03*
X126700000Y-91300000D03*
X163500000Y-111900000D03*
X160900000Y-113800000D03*
X173700000Y-110600000D03*
X177100000Y-110700000D03*
X173900000Y-116200000D03*
X174600000Y-102300000D03*
X134775706Y-111011776D03*
X149200000Y-109200000D03*
X135652975Y-109676974D03*
X148200000Y-108700000D03*
X138900918Y-107599082D03*
X145919634Y-108056152D03*
X137397312Y-108155457D03*
X145902747Y-110044355D03*
X157300000Y-99000000D03*
X150066491Y-114501055D03*
X154100000Y-97500000D03*
X151155490Y-114495692D03*
X154500000Y-99000000D03*
X152926126Y-114435568D03*
X155400000Y-97400000D03*
X156664041Y-111614202D03*
X158900000Y-89200000D03*
X157900000Y-89700000D03*
X143600000Y-104600000D03*
X140100000Y-104600000D03*
X141000000Y-105466413D03*
X142800000Y-105500000D03*
X152626115Y-112913686D03*
X152243076Y-99953810D03*
X150155446Y-110466287D03*
X148200000Y-94100000D03*
X136800000Y-106000000D03*
X147400000Y-106400000D03*
X152444521Y-111839923D03*
X153178849Y-98734824D03*
X151400000Y-90100000D03*
X147000000Y-90000000D03*
X167444499Y-101955501D03*
X171200000Y-102400000D03*
X129500000Y-97400000D03*
X130050000Y-107200000D03*
X164600000Y-102000000D03*
X149000000Y-101700000D03*
X164200000Y-104200000D03*
X172300000Y-101500000D03*
X154600000Y-116200000D03*
X148900000Y-112700000D03*
X136575696Y-109098585D03*
X148200000Y-107600000D03*
D31*
X168100000Y-94900000D02*
X167300000Y-94900000D01*
X167300000Y-94900000D02*
X167150000Y-94750000D01*
X170825000Y-100100000D02*
X170825000Y-100125000D01*
X170825000Y-100125000D02*
X171200000Y-100500000D01*
X167700000Y-97525000D02*
X167125000Y-97525000D01*
X167125000Y-97525000D02*
X166500000Y-96900000D01*
X166500000Y-96900000D02*
X166500000Y-95400000D01*
X166500000Y-95400000D02*
X167150000Y-94750000D01*
X170900000Y-100025000D02*
X170900000Y-99475000D01*
X170275000Y-100100000D02*
X170825000Y-100100000D01*
X170825000Y-100100000D02*
X170900000Y-100025000D01*
D32*
X137880000Y-106651376D02*
X137911849Y-106683225D01*
X137880000Y-101700000D02*
X137880000Y-106651376D01*
X146599700Y-107196631D02*
X146602163Y-107199094D01*
X146599700Y-104785000D02*
X146599700Y-107196631D01*
X140420000Y-101700000D02*
X140420000Y-99680000D01*
X140420000Y-99680000D02*
X140500000Y-99600000D01*
X144999500Y-104785000D02*
X144999500Y-103978998D01*
X144999500Y-103978998D02*
X145600000Y-103378498D01*
X138639995Y-108399956D02*
X140381727Y-108399956D01*
X137714852Y-107410956D02*
X138148093Y-107844197D01*
X134070000Y-101700000D02*
X134070000Y-104374930D01*
X140381727Y-108399956D02*
X140581738Y-108199945D01*
X137106026Y-107410956D02*
X137714852Y-107410956D01*
X138148093Y-107908054D02*
X138639995Y-108399956D01*
X138148093Y-107844197D02*
X138148093Y-107908054D01*
X134070000Y-104374930D02*
X137106026Y-107410956D01*
X140581738Y-108199945D02*
X141026237Y-107755446D01*
X148010202Y-109444502D02*
X146493284Y-109444502D01*
X152256766Y-113691066D02*
X148010202Y-109444502D01*
X153743666Y-113691066D02*
X152256766Y-113691066D01*
X153753000Y-113700400D02*
X153743666Y-113691066D01*
X146095260Y-109046478D02*
X145466643Y-109046478D01*
X154715000Y-113700400D02*
X153753000Y-113700400D01*
X146493284Y-109444502D02*
X146095260Y-109046478D01*
X138900000Y-110500000D02*
X138171203Y-111228797D01*
X139500000Y-110500000D02*
X138900000Y-110500000D01*
X138171203Y-111228797D02*
X138171203Y-111358545D01*
X149999989Y-99298458D02*
X149555490Y-98853959D01*
X150000000Y-100250000D02*
X150000000Y-99298469D01*
X150000000Y-99298469D02*
X149999989Y-99298458D01*
X153556568Y-110500000D02*
X153298266Y-110241698D01*
X154715000Y-110500000D02*
X153556568Y-110500000D01*
X165750000Y-105000000D02*
X165750000Y-105950000D01*
X165750000Y-105950000D02*
X165800000Y-106000000D01*
X168250000Y-106500000D02*
X168250000Y-105650000D01*
X168250000Y-105650000D02*
X168400000Y-105500000D01*
X166549920Y-110649740D02*
X166549920Y-112450080D01*
X166549920Y-112450080D02*
X166500000Y-112500000D01*
X166549920Y-116148840D02*
X164848840Y-116148840D01*
X164848840Y-116148840D02*
X164800000Y-116100000D01*
X147399800Y-116215000D02*
X147399800Y-114700200D01*
X147399800Y-114700200D02*
X147400000Y-114700000D01*
X146599700Y-116215000D02*
X146599700Y-114000300D01*
X146599700Y-114000300D02*
X146600000Y-114000000D01*
X145799600Y-116215000D02*
X145799600Y-114700400D01*
X145799600Y-114700400D02*
X145800000Y-114700000D01*
X143285000Y-113700400D02*
X145199600Y-113700400D01*
X145199600Y-113700400D02*
X145200000Y-113700000D01*
X145200000Y-112253100D02*
X145200000Y-113700000D01*
X143285000Y-111300100D02*
X144247000Y-111300100D01*
X144247000Y-111300100D02*
X145200000Y-112253100D01*
X170275000Y-96900000D02*
X170275000Y-96025000D01*
X170275000Y-96025000D02*
X170300000Y-96000000D01*
X167150000Y-93250000D02*
X168050000Y-93250000D01*
X168050000Y-93250000D02*
X168100000Y-93200000D01*
X167700000Y-98825000D02*
X166875000Y-98825000D01*
X166875000Y-98825000D02*
X166700000Y-99000000D01*
X165600000Y-100850000D02*
X166450000Y-100850000D01*
X166450000Y-100850000D02*
X166500000Y-100800000D01*
X158250000Y-110608552D02*
X158393127Y-110751679D01*
X158250000Y-110000000D02*
X158250000Y-110608552D01*
X137200000Y-115550000D02*
X136150000Y-115550000D01*
X136150000Y-115550000D02*
X136100000Y-115500000D01*
X137200000Y-113550000D02*
X136150000Y-113550000D01*
X136150000Y-113550000D02*
X136100000Y-113600000D01*
X133943000Y-92300000D02*
X133943000Y-90457000D01*
X133943000Y-90457000D02*
X134000000Y-90400000D01*
X152700000Y-90585000D02*
X152700000Y-90200000D01*
X152185000Y-92300000D02*
X152185000Y-91100000D01*
X152185000Y-91100000D02*
X152700000Y-90585000D01*
X126750000Y-98100000D02*
X126750000Y-99250000D01*
X126750000Y-99250000D02*
X126700000Y-99300000D01*
X126700000Y-92600000D02*
X126700000Y-91300000D01*
X163500000Y-110750000D02*
X163500000Y-111900000D01*
X160900000Y-112800000D02*
X160900000Y-113800000D01*
X172600200Y-110550680D02*
X173650680Y-110550680D01*
X173650680Y-110550680D02*
X173700000Y-110600000D01*
X175450080Y-110649740D02*
X177049740Y-110649740D01*
X177049740Y-110649740D02*
X177100000Y-110700000D01*
X175450080Y-116148840D02*
X173951160Y-116148840D01*
X173951160Y-116148840D02*
X173900000Y-116200000D01*
X173500000Y-102250000D02*
X174550000Y-102250000D01*
X174550000Y-102250000D02*
X174600000Y-102300000D01*
X157600000Y-108100000D02*
X162345000Y-103355000D01*
X162345000Y-103355000D02*
X162345000Y-101700000D01*
X156800000Y-108100000D02*
X157600000Y-108100000D01*
X156200000Y-108700000D02*
X156800000Y-108100000D01*
X155876800Y-108700000D02*
X156200000Y-108700000D01*
X154715000Y-108899800D02*
X155677000Y-108899800D01*
X155677000Y-108899800D02*
X155876800Y-108700000D01*
X156700000Y-107500000D02*
X156100300Y-108099700D01*
X156100300Y-108099700D02*
X154715000Y-108099700D01*
X157400000Y-107500000D02*
X156700000Y-107500000D01*
X160500000Y-104400000D02*
X157400000Y-107500000D01*
X160500000Y-103475000D02*
X160500000Y-104400000D01*
X161075000Y-101700000D02*
X161075000Y-102900000D01*
X161075000Y-102900000D02*
X160500000Y-103475000D01*
X157100000Y-106900000D02*
X159805000Y-104195000D01*
X159805000Y-104195000D02*
X159805000Y-101700000D01*
X156076600Y-106900000D02*
X157100000Y-106900000D01*
X154715000Y-107299600D02*
X155677000Y-107299600D01*
X155677000Y-107299600D02*
X156076600Y-106900000D01*
X158500000Y-104700000D02*
X156700500Y-106499500D01*
X156700500Y-106499500D02*
X154715000Y-106499500D01*
X158500000Y-102435000D02*
X158500000Y-104700000D01*
X158535000Y-101700000D02*
X158535000Y-102400000D01*
X158535000Y-102400000D02*
X158500000Y-102435000D01*
X156000000Y-105600000D02*
X157265000Y-104335000D01*
X157265000Y-104335000D02*
X157265000Y-101700000D01*
X153900000Y-105600000D02*
X156000000Y-105600000D01*
X153400000Y-106100000D02*
X153900000Y-105600000D01*
X151753300Y-106100000D02*
X153400000Y-106100000D01*
X151400300Y-104785000D02*
X151400300Y-105747000D01*
X151400300Y-105747000D02*
X151753300Y-106100000D01*
X155995000Y-102400000D02*
X155995000Y-101700000D01*
X154672001Y-103722999D02*
X155995000Y-102400000D01*
X150600200Y-103865500D02*
X150742701Y-103722999D01*
X150742701Y-103722999D02*
X154672001Y-103722999D01*
X150600200Y-104785000D02*
X150600200Y-103865500D01*
X125652400Y-112500000D02*
X128752400Y-109400000D01*
X125500000Y-112500000D02*
X125652400Y-112500000D01*
X128752400Y-109400000D02*
X133163930Y-109400000D01*
X134331207Y-110567277D02*
X134775706Y-111011776D01*
X133163930Y-109400000D02*
X134331207Y-110567277D01*
X149200000Y-109200000D02*
X149800100Y-108599900D01*
X149800100Y-108599900D02*
X149800100Y-104785000D01*
X154725000Y-101700000D02*
X154725000Y-103075000D01*
X154725000Y-103075000D02*
X154477012Y-103322988D01*
X154477012Y-103322988D02*
X150300112Y-103322988D01*
X150300112Y-103322988D02*
X149800100Y-103823000D01*
X149800100Y-103823000D02*
X149800100Y-104785000D01*
X135208476Y-109232475D02*
X135652975Y-109676974D01*
X126716000Y-108896400D02*
X134872401Y-108896400D01*
X125500000Y-109960000D02*
X125652400Y-109960000D01*
X134872401Y-108896400D02*
X135208476Y-109232475D01*
X125652400Y-109960000D02*
X126716000Y-108896400D01*
X151885715Y-99209309D02*
X152600437Y-99209309D01*
X151200000Y-99895024D02*
X151885715Y-99209309D01*
X149000000Y-104785000D02*
X149000000Y-103823000D01*
X149000000Y-103823000D02*
X149923000Y-102900000D01*
X151200000Y-102600000D02*
X151200000Y-99895024D01*
X150900000Y-102900000D02*
X151200000Y-102600000D01*
X153455000Y-100500000D02*
X153455000Y-101700000D01*
X152600437Y-99209309D02*
X153455000Y-100063872D01*
X149923000Y-102900000D02*
X150900000Y-102900000D01*
X153455000Y-100063872D02*
X153455000Y-100500000D01*
X148400000Y-108700000D02*
X148200000Y-108700000D01*
X149000000Y-108100000D02*
X148400000Y-108700000D01*
X149000000Y-105747000D02*
X149000000Y-108100000D01*
X149000000Y-104785000D02*
X149000000Y-105747000D01*
X138900918Y-106970465D02*
X138900918Y-107599082D01*
X138700000Y-103350000D02*
X138700000Y-106769547D01*
X139150000Y-102900000D02*
X138700000Y-103350000D01*
X139150000Y-101700000D02*
X139150000Y-102900000D01*
X138700000Y-106769547D02*
X138900918Y-106970465D01*
X145799600Y-107936118D02*
X145919634Y-108056152D01*
X145799600Y-104785000D02*
X145799600Y-107936118D01*
X132400000Y-98526040D02*
X132400000Y-103786762D01*
X136768695Y-108155457D02*
X137397312Y-108155457D01*
X128151960Y-94278000D02*
X132400000Y-98526040D01*
X127352520Y-94278000D02*
X128151960Y-94278000D01*
X132400000Y-103786762D02*
X136768695Y-108155457D01*
X147944355Y-110044355D02*
X146531364Y-110044355D01*
X151900000Y-114000000D02*
X147944355Y-110044355D01*
X151900000Y-114952600D02*
X151900000Y-114000000D01*
X152200400Y-115253000D02*
X151900000Y-114952600D01*
X152200400Y-116215000D02*
X152200400Y-115253000D01*
X146531364Y-110044355D02*
X145902747Y-110044355D01*
X157300000Y-99000000D02*
X158125000Y-99825000D01*
X158125000Y-99825000D02*
X167200000Y-99825000D01*
X167200000Y-99825000D02*
X167550000Y-99475000D01*
X167550000Y-99475000D02*
X167700000Y-99475000D01*
X150510990Y-114945554D02*
X150066491Y-114501055D01*
X150600200Y-115034764D02*
X150510990Y-114945554D01*
X150600200Y-116215000D02*
X150600200Y-115034764D01*
X156232438Y-98400000D02*
X155000000Y-98400000D01*
X157032438Y-97600000D02*
X156232438Y-98400000D01*
X160068600Y-97600000D02*
X157032438Y-97600000D01*
X165500000Y-93500000D02*
X161400020Y-97599980D01*
X155000000Y-98400000D02*
X154544499Y-97944499D01*
X166200000Y-92100000D02*
X165500000Y-92800000D01*
X165500000Y-92800000D02*
X165500000Y-93500000D01*
X154544499Y-97944499D02*
X154100000Y-97500000D01*
X168200000Y-92100000D02*
X166200000Y-92100000D01*
X161400020Y-97599980D02*
X160068620Y-97599980D01*
X160068620Y-97599980D02*
X160068600Y-97600000D01*
X168325000Y-96750000D02*
X168900000Y-96175000D01*
X168325000Y-96900000D02*
X168325000Y-96750000D01*
X168900000Y-92800000D02*
X168200000Y-92100000D01*
X168900000Y-96175000D02*
X168900000Y-92800000D01*
X151400300Y-114740502D02*
X151155490Y-114495692D01*
X151400300Y-116215000D02*
X151400300Y-114740502D01*
X155128617Y-99000000D02*
X154500000Y-99000000D01*
X156198138Y-99000000D02*
X155128617Y-99000000D01*
X157098149Y-98099989D02*
X156198138Y-99000000D01*
X164165689Y-98099989D02*
X157098149Y-98099989D01*
X164240700Y-98175000D02*
X164165689Y-98099989D01*
X167700000Y-98175000D02*
X164240700Y-98175000D01*
X153000500Y-116215000D02*
X153000500Y-114509942D01*
X153000500Y-114509942D02*
X152926126Y-114435568D01*
X155400000Y-97400000D02*
X155844499Y-96955501D01*
X161478799Y-96955501D02*
X165099989Y-93334311D01*
X165099989Y-93334311D02*
X165099989Y-92534311D01*
X155844499Y-96955501D02*
X161478799Y-96955501D01*
X165934311Y-91699989D02*
X168365689Y-91699989D01*
X168365689Y-91699989D02*
X169400009Y-92734309D01*
X169400009Y-92734309D02*
X169400009Y-96324991D01*
X169400009Y-96324991D02*
X168975000Y-96750000D01*
X168975000Y-96750000D02*
X168975000Y-96900000D01*
X165099989Y-92534311D02*
X165934311Y-91699989D01*
X156664041Y-113513459D02*
X156664041Y-112242819D01*
X154715000Y-114500500D02*
X155677000Y-114500500D01*
X155677000Y-114500500D02*
X156664041Y-113513459D01*
X156664041Y-112242819D02*
X156664041Y-111614202D01*
X141033500Y-86347300D02*
X141033500Y-88866500D01*
X141033500Y-88866500D02*
X140800000Y-89100000D01*
X140800000Y-89100000D02*
X139880000Y-89100000D01*
X139880000Y-89100000D02*
X137880000Y-91100000D01*
X137880000Y-91100000D02*
X137880000Y-92300000D01*
X151828500Y-86347300D02*
X151828500Y-87335128D01*
X151828500Y-87335128D02*
X151663628Y-87500000D01*
X151663628Y-87500000D02*
X151500000Y-87500000D01*
X149300000Y-95900000D02*
X143100000Y-95900000D01*
X143100000Y-95900000D02*
X141200000Y-94000000D01*
X151500000Y-87500000D02*
X150600000Y-88400000D01*
X150600000Y-88400000D02*
X150600000Y-94600000D01*
X150600000Y-94600000D02*
X149300000Y-95900000D01*
X141200000Y-94000000D02*
X140920000Y-94000000D01*
X140920000Y-94000000D02*
X140420000Y-93500000D01*
X140420000Y-93500000D02*
X140420000Y-92300000D01*
X162300000Y-91555000D02*
X162623500Y-91231500D01*
X162623500Y-91231500D02*
X162623500Y-86347300D01*
X162345000Y-92300000D02*
X162345000Y-91600000D01*
X162345000Y-91600000D02*
X162300000Y-91555000D01*
X161075000Y-92300000D02*
X161075000Y-86957800D01*
X161075000Y-86957800D02*
X160464500Y-86347300D01*
X159805000Y-92300000D02*
X159805000Y-91100000D01*
X159805000Y-91100000D02*
X159800000Y-91095000D01*
X159800000Y-91095000D02*
X159800000Y-87841800D01*
X159800000Y-87841800D02*
X158305500Y-86347300D01*
X158900000Y-90735000D02*
X158900000Y-89200000D01*
X158535000Y-92300000D02*
X158535000Y-91100000D01*
X158535000Y-91100000D02*
X158900000Y-90735000D01*
X157900000Y-90965000D02*
X157900000Y-89700000D01*
X157265000Y-92300000D02*
X157265000Y-91600000D01*
X157265000Y-91600000D02*
X157900000Y-90965000D01*
X159766001Y-82753199D02*
X160464500Y-82054700D01*
X157200000Y-85319200D02*
X159766001Y-82753199D01*
X157200000Y-89298136D02*
X157200000Y-85319200D01*
X155995000Y-90503136D02*
X157200000Y-89298136D01*
X155995000Y-92300000D02*
X155995000Y-90503136D01*
X154725000Y-91100000D02*
X154725000Y-92300000D01*
X155147999Y-90677001D02*
X154725000Y-91100000D01*
X155147999Y-85868019D02*
X155147999Y-90677001D01*
X155667219Y-85348799D02*
X155147999Y-85868019D01*
X155999229Y-85348799D02*
X155667219Y-85348799D01*
X158305500Y-83042528D02*
X155999229Y-85348799D01*
X158305500Y-82054700D02*
X158305500Y-83042528D01*
X153455000Y-88055000D02*
X153200000Y-87800000D01*
X153200000Y-87788999D02*
X152911001Y-87500000D01*
X152911001Y-87500000D02*
X152911001Y-85290199D01*
X153200000Y-87800000D02*
X153200000Y-87788999D01*
X153455000Y-92300000D02*
X153455000Y-88055000D01*
X155448001Y-82753199D02*
X156146500Y-82054700D01*
X152911001Y-85290199D02*
X155448001Y-82753199D01*
X144200000Y-81900000D02*
X144200000Y-81728418D01*
X144200000Y-87400000D02*
X144200000Y-81900000D01*
X144200000Y-81900000D02*
X144200000Y-81300000D01*
X139150000Y-92300000D02*
X139150000Y-90750000D01*
X144200000Y-81728418D02*
X144872219Y-81056199D01*
X139150000Y-90750000D02*
X140000000Y-89900000D01*
X140000000Y-89900000D02*
X141700000Y-89900000D01*
X141700000Y-89900000D02*
X144200000Y-87400000D01*
X157056199Y-81056199D02*
X157306999Y-81306999D01*
X144872219Y-81056199D02*
X157056199Y-81056199D01*
X157306999Y-81306999D02*
X157306999Y-83027801D01*
X157306999Y-83027801D02*
X156834800Y-83500000D01*
X156834800Y-83500000D02*
X153987500Y-86347300D01*
X144653001Y-87045799D02*
X145351500Y-86347300D01*
X144653001Y-87512699D02*
X144653001Y-87045799D01*
X144230000Y-87935700D02*
X144653001Y-87512699D01*
X144230000Y-92300000D02*
X144230000Y-87935700D01*
X147510500Y-86347300D02*
X148208999Y-87045799D01*
X148208999Y-87045799D02*
X148208999Y-88608999D01*
X149600000Y-90000000D02*
X149600000Y-93900000D01*
X148208999Y-88608999D02*
X149600000Y-90000000D01*
X149600000Y-93900000D02*
X148600000Y-94900000D01*
X148600000Y-94900000D02*
X143700000Y-94900000D01*
X143700000Y-94900000D02*
X142960000Y-94160000D01*
X142960000Y-94160000D02*
X142960000Y-92300000D01*
X143400000Y-95400000D02*
X141690000Y-93690000D01*
X141690000Y-93690000D02*
X141690000Y-92300000D01*
X149100000Y-95400000D02*
X143400000Y-95400000D01*
X150100000Y-94400000D02*
X149100000Y-95400000D01*
X150100000Y-87765628D02*
X150100000Y-94400000D01*
X149669500Y-86347300D02*
X149669500Y-87335128D01*
X149669500Y-87335128D02*
X150100000Y-87765628D01*
X146800000Y-83600000D02*
X152442200Y-83600000D01*
X152442200Y-83600000D02*
X153987500Y-82054700D01*
X146350001Y-84049999D02*
X146800000Y-83600000D01*
X145500000Y-88500000D02*
X146350001Y-87649999D01*
X146350001Y-87649999D02*
X146350001Y-84049999D01*
X145500000Y-92300000D02*
X145500000Y-88500000D01*
X136610000Y-92300000D02*
X136610000Y-91600000D01*
X136610000Y-91600000D02*
X139873001Y-88336999D01*
X139873001Y-88336999D02*
X139873001Y-86030017D01*
X139873001Y-86030017D02*
X140803018Y-85100000D01*
X140803018Y-85100000D02*
X141945200Y-85100000D01*
X141945200Y-85100000D02*
X143192500Y-86347300D01*
X142472355Y-108099700D02*
X140100000Y-105727345D01*
X140100000Y-105228617D02*
X140100000Y-104600000D01*
X143285000Y-108099700D02*
X142472355Y-108099700D01*
X140100000Y-105727345D02*
X140100000Y-105228617D01*
X143900000Y-103300000D02*
X144230000Y-102970000D01*
X144230000Y-102970000D02*
X144230000Y-101700000D01*
X143900000Y-103671383D02*
X143900000Y-103300000D01*
X143600000Y-104600000D02*
X143600000Y-103971383D01*
X143600000Y-103971383D02*
X143900000Y-103671383D01*
X141800000Y-105100000D02*
X142960000Y-103940000D01*
X142960000Y-103940000D02*
X142960000Y-101700000D01*
X141800000Y-106776600D02*
X141800000Y-105100000D01*
X143285000Y-107299600D02*
X142323000Y-107299600D01*
X142323000Y-107299600D02*
X141800000Y-106776600D01*
X141690000Y-101700000D02*
X141690000Y-102900000D01*
X141690000Y-102900000D02*
X141000000Y-103590000D01*
X141000000Y-103590000D02*
X141000000Y-104837796D01*
X141000000Y-104837796D02*
X141000000Y-105466413D01*
X143285000Y-106499500D02*
X143285000Y-105985000D01*
X143285000Y-105985000D02*
X142800000Y-105500000D01*
X138175000Y-112450000D02*
X138600000Y-112450000D01*
X137200000Y-112050000D02*
X137775000Y-112050000D01*
X138600000Y-112450000D02*
X140000000Y-112450000D01*
X137775000Y-112050000D02*
X138175000Y-112450000D01*
X143285000Y-112100200D02*
X140349800Y-112100200D01*
X140349800Y-112100200D02*
X140000000Y-112450000D01*
X137200000Y-117050000D02*
X139500000Y-117050000D01*
X139500000Y-117050000D02*
X140000000Y-116550000D01*
X143285000Y-112900300D02*
X142323000Y-112900300D01*
X142323000Y-112900300D02*
X140000000Y-115223300D01*
X140000000Y-115223300D02*
X140000000Y-116550000D01*
X125200000Y-92600000D02*
X125200000Y-94223520D01*
X125200000Y-94223520D02*
X125254480Y-94278000D01*
X125250000Y-98100000D02*
X125250000Y-96441480D01*
X125250000Y-96441480D02*
X125254480Y-96437000D01*
X176129240Y-97980260D02*
X176129240Y-100620760D01*
X176129240Y-100620760D02*
X176000000Y-100750000D01*
X173600000Y-94500000D02*
X173843240Y-94743240D01*
X173843240Y-94743240D02*
X173843240Y-95836500D01*
X172250000Y-94500000D02*
X173600000Y-94500000D01*
X152639501Y-112900300D02*
X152626115Y-112913686D01*
X154715000Y-112900300D02*
X152639501Y-112900300D01*
X152185000Y-101700000D02*
X152185000Y-100011886D01*
X152185000Y-100011886D02*
X152243076Y-99953810D01*
X144709298Y-106000000D02*
X144709298Y-108437502D01*
X144709298Y-108437502D02*
X144247000Y-108899800D01*
X144247000Y-108899800D02*
X143285000Y-108899800D01*
X144400000Y-103500000D02*
X144400000Y-105690702D01*
X144400000Y-105690702D02*
X144709298Y-106000000D01*
X145400000Y-102500000D02*
X144400000Y-103500000D01*
X145600000Y-102500000D02*
X145400000Y-102500000D01*
X145500000Y-101700000D02*
X145500000Y-102400000D01*
X145500000Y-102400000D02*
X145600000Y-102500000D01*
X170900000Y-98175000D02*
X171400000Y-98175000D01*
X171400000Y-98175000D02*
X171425000Y-98200000D01*
X171425000Y-98200000D02*
X171900000Y-98200000D01*
X171900000Y-98200000D02*
X172000000Y-98100000D01*
X172000000Y-98100000D02*
X172000000Y-95950000D01*
X172000000Y-95950000D02*
X170750000Y-94700000D01*
X170750000Y-94700000D02*
X170750000Y-94500000D01*
X153753000Y-111300100D02*
X153452900Y-111000000D01*
X154715000Y-111300100D02*
X153753000Y-111300100D01*
X153452900Y-111000000D02*
X150689159Y-111000000D01*
X150599945Y-110910786D02*
X150155446Y-110466287D01*
X150689159Y-111000000D02*
X150599945Y-110910786D01*
X148200000Y-94100000D02*
X148200000Y-92460000D01*
X148200000Y-92460000D02*
X148040000Y-92300000D01*
X136800000Y-106000000D02*
X136800000Y-101890000D01*
X136800000Y-101890000D02*
X136610000Y-101700000D01*
X147400000Y-105747200D02*
X147400000Y-106400000D01*
X147399800Y-104785000D02*
X147399800Y-105747000D01*
X147399800Y-105747000D02*
X147400000Y-105747200D01*
X154715000Y-112100200D02*
X152704798Y-112100200D01*
X152704798Y-112100200D02*
X152444521Y-111839923D01*
X152734350Y-98290325D02*
X153178849Y-98734824D01*
X152600000Y-98155975D02*
X152734350Y-98290325D01*
X152600000Y-94400000D02*
X152600000Y-98155975D01*
X151900000Y-94400000D02*
X152600000Y-94400000D01*
X151200000Y-90600000D02*
X151200000Y-93700000D01*
X151200000Y-93700000D02*
X151900000Y-94400000D01*
X151400000Y-90400000D02*
X151200000Y-90600000D01*
X151400000Y-90100000D02*
X151400000Y-90400000D01*
X152600000Y-94400000D02*
X163400000Y-94400000D01*
X163400000Y-94400000D02*
X163615000Y-94185000D01*
X163615000Y-94185000D02*
X163615000Y-92300000D01*
X146770000Y-90230000D02*
X147000000Y-90000000D01*
X146770000Y-92300000D02*
X146770000Y-90230000D01*
X168325000Y-100100000D02*
X168325000Y-101075000D01*
X168325000Y-101075000D02*
X167444499Y-101955501D01*
X171300000Y-102500000D02*
X171200000Y-102400000D01*
X172100000Y-102500000D02*
X171300000Y-102500000D01*
X173300000Y-103700000D02*
X172100000Y-102500000D01*
X175000000Y-103700000D02*
X173300000Y-103700000D01*
X176000000Y-102250000D02*
X176000000Y-102700000D01*
X176000000Y-102700000D02*
X175000000Y-103700000D01*
D31*
X127352520Y-96437000D02*
X128537000Y-96437000D01*
X128537000Y-96437000D02*
X129500000Y-97400000D01*
X128500000Y-106500000D02*
X129350000Y-106500000D01*
X129350000Y-106500000D02*
X130050000Y-107200000D01*
X149000000Y-101700000D02*
X149950000Y-101700000D01*
X148040000Y-101700000D02*
X149000000Y-101700000D01*
X163615000Y-101700000D02*
X163615000Y-104300000D01*
X163615000Y-104300000D02*
X163615000Y-104985000D01*
X164200000Y-104200000D02*
X163715000Y-104200000D01*
X163715000Y-104200000D02*
X163615000Y-104300000D01*
X172300000Y-101175000D02*
X172300000Y-101500000D01*
X173500000Y-100750000D02*
X172725000Y-100750000D01*
X172725000Y-100750000D02*
X172300000Y-101175000D01*
X164500000Y-101885000D02*
X164500000Y-102025000D01*
X164825000Y-102350000D02*
X165600000Y-102350000D01*
X164500000Y-102025000D02*
X164825000Y-102350000D01*
X163615000Y-101700000D02*
X164315000Y-101700000D01*
X164315000Y-101700000D02*
X164500000Y-101885000D01*
X163615000Y-104985000D02*
X160900000Y-107700000D01*
X160900000Y-107700000D02*
X160900000Y-109800000D01*
X157550000Y-113350000D02*
X157550000Y-110800000D01*
X157700000Y-113500000D02*
X157550000Y-113350000D01*
X157550000Y-110800000D02*
X156750000Y-110000000D01*
X155444499Y-115755501D02*
X157700000Y-113500000D01*
X154600000Y-116200000D02*
X155044499Y-115755501D01*
X155044499Y-115755501D02*
X155444499Y-115755501D01*
X148400000Y-112200000D02*
X148900000Y-112700000D01*
X146147000Y-112200000D02*
X148400000Y-112200000D01*
X143285000Y-110500000D02*
X144447000Y-110500000D01*
X144447000Y-110500000D02*
X146147000Y-112200000D01*
X141000000Y-110500000D02*
X143285000Y-110500000D01*
X125500000Y-107420000D02*
X127580000Y-107420000D01*
X127580000Y-107420000D02*
X128500000Y-106500000D01*
X149950000Y-101700000D02*
X150000000Y-101750000D01*
X157075000Y-108900000D02*
X159250000Y-108900000D01*
X159250000Y-108900000D02*
X160150000Y-109800000D01*
X160150000Y-109800000D02*
X160900000Y-109800000D01*
X156750000Y-110000000D02*
X156750000Y-109225000D01*
X156750000Y-109225000D02*
X157075000Y-108900000D01*
X154715000Y-109699900D02*
X156449900Y-109699900D01*
X156449900Y-109699900D02*
X156750000Y-110000000D01*
X161600000Y-109800000D02*
X162150000Y-109250000D01*
X162150000Y-109250000D02*
X163500000Y-109250000D01*
X160900000Y-109800000D02*
X161600000Y-109800000D01*
X165250000Y-107500000D02*
X163500000Y-109250000D01*
X173843240Y-97934540D02*
X174076920Y-97934540D01*
X174076920Y-97934540D02*
X176129240Y-95882220D01*
X170900000Y-98825000D02*
X172000000Y-98825000D01*
X172000000Y-98825000D02*
X172952780Y-98825000D01*
X173500000Y-100750000D02*
X173500000Y-100725000D01*
X173500000Y-100725000D02*
X172000000Y-99225000D01*
X172000000Y-99225000D02*
X172000000Y-98825000D01*
X172952780Y-98825000D02*
X173843240Y-97934540D01*
X169399800Y-108799800D02*
X168100000Y-107500000D01*
X168100000Y-107500000D02*
X166750000Y-107500000D01*
X169399800Y-110550680D02*
X169399800Y-108799800D01*
D32*
X128500000Y-105000000D02*
X132477111Y-105000000D01*
X132477111Y-105000000D02*
X136131197Y-108654086D01*
X136131197Y-108654086D02*
X136575696Y-109098585D01*
X148200000Y-107600000D02*
X148200000Y-104785100D01*
X148200000Y-104785100D02*
X148199900Y-104785000D01*
X125500000Y-104880000D02*
X128380000Y-104880000D01*
X128380000Y-104880000D02*
X128500000Y-105000000D01*
X167250000Y-105000000D02*
X167250000Y-104425000D01*
X167250000Y-104425000D02*
X167675000Y-104000000D01*
X167675000Y-104000000D02*
X167850000Y-104000000D01*
X167850000Y-104000000D02*
X168500000Y-104000000D01*
X168500000Y-104000000D02*
X170893830Y-104000000D01*
X170893830Y-104000000D02*
X171400000Y-104506170D01*
X171400000Y-104506170D02*
X171400000Y-107600000D01*
X171400000Y-107600000D02*
X170599910Y-108400090D01*
X171000000Y-109200060D02*
X171000000Y-110550680D01*
X170599910Y-108400090D02*
X170599910Y-108699910D01*
X170599910Y-108699910D02*
X171000000Y-109100000D01*
X171000000Y-109100000D02*
X171000000Y-109200060D01*
X169750000Y-105550000D02*
X170000000Y-105300000D01*
X170000000Y-105300000D02*
X170000000Y-104750000D01*
X169750000Y-106500000D02*
X169750000Y-105550000D01*
X171000000Y-107417158D02*
X170199900Y-108217258D01*
X170000000Y-104750000D02*
X170350001Y-104399999D01*
X170350001Y-104399999D02*
X170728145Y-104399999D01*
X170728145Y-104399999D02*
X171000000Y-104671854D01*
X171000000Y-104671854D02*
X171000000Y-107417158D01*
X170199900Y-108217258D02*
X170199900Y-110150580D01*
X170199900Y-110150580D02*
X170199900Y-110550680D01*
X169500000Y-101792820D02*
X169250001Y-102042819D01*
X169250001Y-102042819D02*
X169250001Y-102500001D01*
X169250001Y-102500001D02*
X170000000Y-103250000D01*
X169500000Y-100675000D02*
X169500000Y-101792820D01*
X169625000Y-100100000D02*
X169625000Y-100550000D01*
X169625000Y-100550000D02*
X169500000Y-100675000D01*
X169100000Y-101627136D02*
X168675001Y-102052135D01*
X168675001Y-102052135D02*
X168675001Y-102324999D01*
X168675001Y-102324999D02*
X168500000Y-102500000D01*
X169100000Y-100675000D02*
X169100000Y-101627136D01*
X168975000Y-100100000D02*
X168975000Y-100550000D01*
X168975000Y-100550000D02*
X169100000Y-100675000D01*
D33*
G36*
X177382500Y-117382500D02*
X176876570Y-117382500D01*
X176876570Y-116278590D01*
X176769820Y-116171840D01*
X175473080Y-116171840D01*
X175473080Y-116191840D01*
X175427080Y-116191840D01*
X175427080Y-116171840D01*
X174130340Y-116171840D01*
X174023590Y-116278590D01*
X174023590Y-117382500D01*
X167976410Y-117382500D01*
X167976410Y-116278590D01*
X167869660Y-116171840D01*
X166572920Y-116171840D01*
X166572920Y-116191840D01*
X166526920Y-116191840D01*
X166526920Y-116171840D01*
X165230180Y-116171840D01*
X165123430Y-116278590D01*
X165123430Y-117382500D01*
X153353842Y-117382500D01*
X153370307Y-117379225D01*
X153511550Y-117284850D01*
X153605925Y-117143607D01*
X153639065Y-116977000D01*
X153639065Y-115453000D01*
X153605925Y-115286393D01*
X153527500Y-115169021D01*
X153527500Y-115066656D01*
X153620163Y-114974154D01*
X153645150Y-115011550D01*
X153786393Y-115105925D01*
X153953000Y-115139065D01*
X154991390Y-115139065D01*
X154804558Y-115176228D01*
X154804557Y-115176229D01*
X154804556Y-115176229D01*
X154709945Y-115239446D01*
X154601143Y-115312145D01*
X154584802Y-115328486D01*
X154427408Y-115328349D01*
X154106980Y-115460747D01*
X153861609Y-115705690D01*
X153728651Y-116025887D01*
X153728349Y-116372592D01*
X153860747Y-116693020D01*
X154105690Y-116938391D01*
X154425887Y-117071349D01*
X154772592Y-117071651D01*
X155093020Y-116939253D01*
X155338391Y-116694310D01*
X155469970Y-116377435D01*
X155684442Y-116334773D01*
X155887855Y-116198857D01*
X157272487Y-114814225D01*
X165123430Y-114814225D01*
X165123430Y-116019090D01*
X165230180Y-116125840D01*
X166526920Y-116125840D01*
X166526920Y-114578910D01*
X166572920Y-114578910D01*
X166572920Y-116125840D01*
X167869660Y-116125840D01*
X167976410Y-116019090D01*
X167976410Y-114814225D01*
X174023590Y-114814225D01*
X174023590Y-116019090D01*
X174130340Y-116125840D01*
X175427080Y-116125840D01*
X175427080Y-114578910D01*
X175473080Y-114578910D01*
X175473080Y-116125840D01*
X176769820Y-116125840D01*
X176876570Y-116019090D01*
X176876570Y-114814225D01*
X176811563Y-114657284D01*
X176691446Y-114537167D01*
X176534506Y-114472160D01*
X175579830Y-114472160D01*
X175473080Y-114578910D01*
X175427080Y-114578910D01*
X175320330Y-114472160D01*
X174365654Y-114472160D01*
X174208714Y-114537167D01*
X174088597Y-114657284D01*
X174023590Y-114814225D01*
X167976410Y-114814225D01*
X167911403Y-114657284D01*
X167791286Y-114537167D01*
X167634346Y-114472160D01*
X166679670Y-114472160D01*
X166572920Y-114578910D01*
X166526920Y-114578910D01*
X166420170Y-114472160D01*
X165465494Y-114472160D01*
X165308554Y-114537167D01*
X165188437Y-114657284D01*
X165123430Y-114814225D01*
X157272487Y-114814225D01*
X158143356Y-113943356D01*
X158279272Y-113739942D01*
X158327000Y-113500000D01*
X158279272Y-113260058D01*
X158177000Y-113106996D01*
X158177000Y-112929750D01*
X159223000Y-112929750D01*
X159223000Y-113384935D01*
X159288007Y-113541876D01*
X159408124Y-113661993D01*
X159565064Y-113727000D01*
X160770250Y-113727000D01*
X160877000Y-113620250D01*
X160877000Y-112823000D01*
X160923000Y-112823000D01*
X160923000Y-113620250D01*
X161029750Y-113727000D01*
X162234936Y-113727000D01*
X162391876Y-113661993D01*
X162511993Y-113541876D01*
X162577000Y-113384935D01*
X162577000Y-113322698D01*
X167923628Y-113322698D01*
X168056799Y-113644994D01*
X168303169Y-113891795D01*
X168625233Y-114025527D01*
X168973958Y-114025832D01*
X169296254Y-113892661D01*
X169543055Y-113646291D01*
X169676787Y-113324227D01*
X169676788Y-113322698D01*
X172322908Y-113322698D01*
X172456079Y-113644994D01*
X172702449Y-113891795D01*
X173024513Y-114025527D01*
X173373238Y-114025832D01*
X173695534Y-113892661D01*
X173942335Y-113646291D01*
X174076067Y-113324227D01*
X174076372Y-112975502D01*
X173943201Y-112653206D01*
X173696831Y-112406405D01*
X173374767Y-112272673D01*
X173026042Y-112272368D01*
X172703746Y-112405539D01*
X172456945Y-112651909D01*
X172323213Y-112973973D01*
X172322908Y-113322698D01*
X169676788Y-113322698D01*
X169677092Y-112975502D01*
X169543921Y-112653206D01*
X169297551Y-112406405D01*
X168975487Y-112272673D01*
X168626762Y-112272368D01*
X168304466Y-112405539D01*
X168057665Y-112651909D01*
X167923933Y-112973973D01*
X167923628Y-113322698D01*
X162577000Y-113322698D01*
X162577000Y-112929750D01*
X162470250Y-112823000D01*
X160923000Y-112823000D01*
X160877000Y-112823000D01*
X159329750Y-112823000D01*
X159223000Y-112929750D01*
X158177000Y-112929750D01*
X158177000Y-112215065D01*
X159223000Y-112215065D01*
X159223000Y-112670250D01*
X159329750Y-112777000D01*
X160877000Y-112777000D01*
X160877000Y-111979750D01*
X160923000Y-111979750D01*
X160923000Y-112777000D01*
X162470250Y-112777000D01*
X162577000Y-112670250D01*
X162577000Y-112215065D01*
X162511993Y-112058124D01*
X162391876Y-111938007D01*
X162234936Y-111873000D01*
X161029750Y-111873000D01*
X160923000Y-111979750D01*
X160877000Y-111979750D01*
X160770250Y-111873000D01*
X159565064Y-111873000D01*
X159408124Y-111938007D01*
X159288007Y-112058124D01*
X159223000Y-112215065D01*
X158177000Y-112215065D01*
X158177000Y-110879750D01*
X162698000Y-110879750D01*
X162698000Y-111234935D01*
X162763007Y-111391876D01*
X162883124Y-111511993D01*
X163040064Y-111577000D01*
X163370250Y-111577000D01*
X163477000Y-111470250D01*
X163477000Y-110773000D01*
X163523000Y-110773000D01*
X163523000Y-111470250D01*
X163629750Y-111577000D01*
X163959936Y-111577000D01*
X164116876Y-111511993D01*
X164236993Y-111391876D01*
X164302000Y-111234935D01*
X164302000Y-110879750D01*
X164201740Y-110779490D01*
X165123430Y-110779490D01*
X165123430Y-111984355D01*
X165188437Y-112141296D01*
X165308554Y-112261413D01*
X165465494Y-112326420D01*
X166420170Y-112326420D01*
X166526920Y-112219670D01*
X166526920Y-110672740D01*
X166572920Y-110672740D01*
X166572920Y-112219670D01*
X166679670Y-112326420D01*
X167634346Y-112326420D01*
X167791286Y-112261413D01*
X167911403Y-112141296D01*
X167976410Y-111984355D01*
X167976410Y-110779490D01*
X167869660Y-110672740D01*
X166572920Y-110672740D01*
X166526920Y-110672740D01*
X165230180Y-110672740D01*
X165123430Y-110779490D01*
X164201740Y-110779490D01*
X164195250Y-110773000D01*
X163523000Y-110773000D01*
X163477000Y-110773000D01*
X162804750Y-110773000D01*
X162698000Y-110879750D01*
X158177000Y-110879750D01*
X158177000Y-110800000D01*
X158167916Y-110754334D01*
X158227000Y-110695250D01*
X158227000Y-110023000D01*
X158273000Y-110023000D01*
X158273000Y-110695250D01*
X158379750Y-110802000D01*
X158734935Y-110802000D01*
X158891876Y-110736993D01*
X159011993Y-110616876D01*
X159077000Y-110459936D01*
X159077000Y-110129750D01*
X158970250Y-110023000D01*
X158273000Y-110023000D01*
X158227000Y-110023000D01*
X158207000Y-110023000D01*
X158207000Y-109977000D01*
X158227000Y-109977000D01*
X158227000Y-109957000D01*
X158273000Y-109957000D01*
X158273000Y-109977000D01*
X158970250Y-109977000D01*
X159077000Y-109870250D01*
X159077000Y-109613712D01*
X159214635Y-109751347D01*
X159214635Y-110300000D01*
X159247775Y-110466607D01*
X159342150Y-110607850D01*
X159483393Y-110702225D01*
X159650000Y-110735365D01*
X162150000Y-110735365D01*
X162316607Y-110702225D01*
X162457850Y-110607850D01*
X162552225Y-110466607D01*
X162585365Y-110300000D01*
X162585365Y-109877000D01*
X162763128Y-109877000D01*
X162817150Y-109957850D01*
X162874776Y-109996355D01*
X162763007Y-110108124D01*
X162698000Y-110265065D01*
X162698000Y-110620250D01*
X162804750Y-110727000D01*
X163477000Y-110727000D01*
X163477000Y-110707000D01*
X163523000Y-110707000D01*
X163523000Y-110727000D01*
X164195250Y-110727000D01*
X164302000Y-110620250D01*
X164302000Y-110265065D01*
X164236993Y-110108124D01*
X164125224Y-109996355D01*
X164182850Y-109957850D01*
X164277225Y-109816607D01*
X164310365Y-109650000D01*
X164310365Y-109326347D01*
X164321587Y-109315125D01*
X165123430Y-109315125D01*
X165123430Y-110519990D01*
X165230180Y-110626740D01*
X166526920Y-110626740D01*
X166526920Y-109079810D01*
X166572920Y-109079810D01*
X166572920Y-110626740D01*
X167869660Y-110626740D01*
X167976410Y-110519990D01*
X167976410Y-109315125D01*
X167911403Y-109158184D01*
X167791286Y-109038067D01*
X167634346Y-108973060D01*
X166679670Y-108973060D01*
X166572920Y-109079810D01*
X166526920Y-109079810D01*
X166420170Y-108973060D01*
X165465494Y-108973060D01*
X165308554Y-109038067D01*
X165188437Y-109158184D01*
X165123430Y-109315125D01*
X164321587Y-109315125D01*
X165251347Y-108385365D01*
X165500000Y-108385365D01*
X165666607Y-108352225D01*
X165807850Y-108257850D01*
X165902225Y-108116607D01*
X165935365Y-107950000D01*
X165935365Y-107050000D01*
X165902225Y-106883393D01*
X165807850Y-106742150D01*
X165666607Y-106647775D01*
X165500000Y-106614635D01*
X165000000Y-106614635D01*
X164833393Y-106647775D01*
X164692150Y-106742150D01*
X164597775Y-106883393D01*
X164564635Y-107050000D01*
X164564635Y-107298653D01*
X163448653Y-108414635D01*
X163125000Y-108414635D01*
X162958393Y-108447775D01*
X162817150Y-108542150D01*
X162763128Y-108623000D01*
X162150000Y-108623000D01*
X161910057Y-108670728D01*
X161723464Y-108795405D01*
X161706644Y-108806644D01*
X161648653Y-108864635D01*
X161527000Y-108864635D01*
X161527000Y-107959712D01*
X164058356Y-105428356D01*
X164194273Y-105224942D01*
X164213207Y-105129750D01*
X164923000Y-105129750D01*
X164923000Y-105459936D01*
X164988007Y-105616876D01*
X165108124Y-105736993D01*
X165265065Y-105802000D01*
X165620250Y-105802000D01*
X165727000Y-105695250D01*
X165727000Y-105023000D01*
X165029750Y-105023000D01*
X164923000Y-105129750D01*
X164213207Y-105129750D01*
X164224790Y-105071522D01*
X164372592Y-105071651D01*
X164693020Y-104939253D01*
X164923000Y-104709674D01*
X164923000Y-104870250D01*
X165029750Y-104977000D01*
X165727000Y-104977000D01*
X165727000Y-104304750D01*
X165620250Y-104198000D01*
X165265065Y-104198000D01*
X165108124Y-104263007D01*
X165071414Y-104299717D01*
X165071651Y-104027408D01*
X164939253Y-103706980D01*
X164694310Y-103461609D01*
X164374113Y-103328651D01*
X164242000Y-103328536D01*
X164242000Y-102979190D01*
X164317225Y-102866607D01*
X164324644Y-102829309D01*
X164425887Y-102871349D01*
X164498464Y-102871412D01*
X164585057Y-102929272D01*
X164825000Y-102977000D01*
X164863128Y-102977000D01*
X164917150Y-103057850D01*
X165058393Y-103152225D01*
X165225000Y-103185365D01*
X165975000Y-103185365D01*
X166141607Y-103152225D01*
X166282850Y-103057850D01*
X166377225Y-102916607D01*
X166410365Y-102750000D01*
X166410365Y-101950000D01*
X166377225Y-101783393D01*
X166282850Y-101642150D01*
X166225224Y-101603645D01*
X166336993Y-101491876D01*
X166402000Y-101334935D01*
X166402000Y-100979750D01*
X166295250Y-100873000D01*
X165623000Y-100873000D01*
X165623000Y-100893000D01*
X165577000Y-100893000D01*
X165577000Y-100873000D01*
X164904750Y-100873000D01*
X164798000Y-100979750D01*
X164798000Y-101138570D01*
X164774113Y-101128651D01*
X164566530Y-101128470D01*
X164554943Y-101120728D01*
X164350365Y-101080035D01*
X164350365Y-100700000D01*
X164317225Y-100533393D01*
X164222850Y-100392150D01*
X164162761Y-100352000D01*
X164803412Y-100352000D01*
X164798000Y-100365065D01*
X164798000Y-100720250D01*
X164904750Y-100827000D01*
X165577000Y-100827000D01*
X165577000Y-100807000D01*
X165623000Y-100807000D01*
X165623000Y-100827000D01*
X166295250Y-100827000D01*
X166402000Y-100720250D01*
X166402000Y-100365065D01*
X166396588Y-100352000D01*
X167200000Y-100352000D01*
X167401675Y-100311885D01*
X167572645Y-100197645D01*
X167718290Y-100052000D01*
X167748000Y-100052000D01*
X167748000Y-100264243D01*
X167791922Y-100485051D01*
X167798000Y-100494147D01*
X167798000Y-100856709D01*
X167570599Y-101084110D01*
X167271907Y-101083850D01*
X166951479Y-101216248D01*
X166706108Y-101461191D01*
X166573150Y-101781388D01*
X166572848Y-102128093D01*
X166705246Y-102448521D01*
X166950189Y-102693892D01*
X167270386Y-102826850D01*
X167617091Y-102827152D01*
X167629002Y-102822230D01*
X167647775Y-102916607D01*
X167742150Y-103057850D01*
X167883393Y-103152225D01*
X168050000Y-103185365D01*
X168950000Y-103185365D01*
X169114635Y-103152617D01*
X169114635Y-103347383D01*
X168950000Y-103314635D01*
X168050000Y-103314635D01*
X167883393Y-103347775D01*
X167742150Y-103442150D01*
X167721537Y-103473000D01*
X167675000Y-103473000D01*
X167473326Y-103513115D01*
X167302355Y-103627355D01*
X166877355Y-104052355D01*
X166775759Y-104204402D01*
X166683393Y-104222775D01*
X166542150Y-104317150D01*
X166503645Y-104374776D01*
X166391876Y-104263007D01*
X166234935Y-104198000D01*
X165879750Y-104198000D01*
X165773000Y-104304750D01*
X165773000Y-104977000D01*
X165793000Y-104977000D01*
X165793000Y-105023000D01*
X165773000Y-105023000D01*
X165773000Y-105695250D01*
X165879750Y-105802000D01*
X166234935Y-105802000D01*
X166391876Y-105736993D01*
X166503645Y-105625224D01*
X166542150Y-105682850D01*
X166683393Y-105777225D01*
X166850000Y-105810365D01*
X167560766Y-105810365D01*
X167488007Y-105883124D01*
X167423000Y-106040064D01*
X167423000Y-106370250D01*
X167529750Y-106477000D01*
X168227000Y-106477000D01*
X168227000Y-105804750D01*
X168120250Y-105698000D01*
X167935176Y-105698000D01*
X167957850Y-105682850D01*
X168052225Y-105541607D01*
X168085365Y-105375000D01*
X168085365Y-104685365D01*
X168950000Y-104685365D01*
X169114635Y-104652617D01*
X169114635Y-105000000D01*
X169147775Y-105166607D01*
X169242150Y-105307850D01*
X169275341Y-105330027D01*
X169263115Y-105348325D01*
X169232612Y-105501675D01*
X169223000Y-105550000D01*
X169223000Y-105714897D01*
X169183393Y-105722775D01*
X169042150Y-105817150D01*
X169003645Y-105874776D01*
X168891876Y-105763007D01*
X168734935Y-105698000D01*
X168379750Y-105698000D01*
X168273000Y-105804750D01*
X168273000Y-106477000D01*
X168293000Y-106477000D01*
X168293000Y-106523000D01*
X168273000Y-106523000D01*
X168273000Y-106543000D01*
X168227000Y-106543000D01*
X168227000Y-106523000D01*
X167529750Y-106523000D01*
X167423000Y-106629750D01*
X167423000Y-106873000D01*
X167395281Y-106873000D01*
X167307850Y-106742150D01*
X167166607Y-106647775D01*
X167000000Y-106614635D01*
X166500000Y-106614635D01*
X166333393Y-106647775D01*
X166192150Y-106742150D01*
X166097775Y-106883393D01*
X166064635Y-107050000D01*
X166064635Y-107950000D01*
X166097775Y-108116607D01*
X166192150Y-108257850D01*
X166333393Y-108352225D01*
X166500000Y-108385365D01*
X167000000Y-108385365D01*
X167166607Y-108352225D01*
X167307850Y-108257850D01*
X167395281Y-108127000D01*
X167840288Y-108127000D01*
X168772800Y-109059512D01*
X168772800Y-109195417D01*
X168747385Y-109233453D01*
X168714245Y-109400060D01*
X168714245Y-111701300D01*
X168747385Y-111867907D01*
X168841760Y-112009150D01*
X168983003Y-112103525D01*
X169149610Y-112136665D01*
X169649990Y-112136665D01*
X169799850Y-112106856D01*
X169949710Y-112136665D01*
X170450090Y-112136665D01*
X170599950Y-112106856D01*
X170749810Y-112136665D01*
X171250190Y-112136665D01*
X171400050Y-112106856D01*
X171549910Y-112136665D01*
X172050290Y-112136665D01*
X172209037Y-112105088D01*
X172265074Y-112128300D01*
X172470450Y-112128300D01*
X172577200Y-112021550D01*
X172577200Y-110573680D01*
X172623200Y-110573680D01*
X172623200Y-112021550D01*
X172729950Y-112128300D01*
X172935326Y-112128300D01*
X173092266Y-112063293D01*
X173212383Y-111943176D01*
X173277390Y-111786235D01*
X173277390Y-110779490D01*
X174023590Y-110779490D01*
X174023590Y-111984355D01*
X174088597Y-112141296D01*
X174208714Y-112261413D01*
X174365654Y-112326420D01*
X175320330Y-112326420D01*
X175427080Y-112219670D01*
X175427080Y-110672740D01*
X175473080Y-110672740D01*
X175473080Y-112219670D01*
X175579830Y-112326420D01*
X176534506Y-112326420D01*
X176691446Y-112261413D01*
X176811563Y-112141296D01*
X176876570Y-111984355D01*
X176876570Y-110779490D01*
X176769820Y-110672740D01*
X175473080Y-110672740D01*
X175427080Y-110672740D01*
X174130340Y-110672740D01*
X174023590Y-110779490D01*
X173277390Y-110779490D01*
X173277390Y-110680430D01*
X173170640Y-110573680D01*
X172623200Y-110573680D01*
X172577200Y-110573680D01*
X172557200Y-110573680D01*
X172557200Y-110527680D01*
X172577200Y-110527680D01*
X172577200Y-109079810D01*
X172623200Y-109079810D01*
X172623200Y-110527680D01*
X173170640Y-110527680D01*
X173277390Y-110420930D01*
X173277390Y-109315125D01*
X174023590Y-109315125D01*
X174023590Y-110519990D01*
X174130340Y-110626740D01*
X175427080Y-110626740D01*
X175427080Y-109079810D01*
X175473080Y-109079810D01*
X175473080Y-110626740D01*
X176769820Y-110626740D01*
X176876570Y-110519990D01*
X176876570Y-109315125D01*
X176811563Y-109158184D01*
X176691446Y-109038067D01*
X176534506Y-108973060D01*
X175579830Y-108973060D01*
X175473080Y-109079810D01*
X175427080Y-109079810D01*
X175320330Y-108973060D01*
X174365654Y-108973060D01*
X174208714Y-109038067D01*
X174088597Y-109158184D01*
X174023590Y-109315125D01*
X173277390Y-109315125D01*
X173212383Y-109158184D01*
X173092266Y-109038067D01*
X172935326Y-108973060D01*
X172729950Y-108973060D01*
X172623200Y-109079810D01*
X172577200Y-109079810D01*
X172470450Y-108973060D01*
X172265074Y-108973060D01*
X172209037Y-108996272D01*
X172050290Y-108964695D01*
X171549910Y-108964695D01*
X171501983Y-108974228D01*
X171486885Y-108898326D01*
X171372645Y-108727355D01*
X171195290Y-108550000D01*
X171772645Y-107972645D01*
X171886885Y-107801675D01*
X171927000Y-107600000D01*
X171927000Y-104506170D01*
X171886885Y-104304496D01*
X171835341Y-104227355D01*
X171772645Y-104133524D01*
X171266475Y-103627355D01*
X171095505Y-103513115D01*
X170893830Y-103473000D01*
X170885365Y-103473000D01*
X170885365Y-103212999D01*
X171025887Y-103271349D01*
X171372592Y-103271651D01*
X171693020Y-103139253D01*
X171805469Y-103027000D01*
X171881710Y-103027000D01*
X172927355Y-104072645D01*
X173098325Y-104186885D01*
X173112151Y-104189635D01*
X173300000Y-104227000D01*
X175000000Y-104227000D01*
X175201675Y-104186885D01*
X175372645Y-104072645D01*
X176372646Y-103072645D01*
X176466577Y-102932068D01*
X176616607Y-102902225D01*
X176757850Y-102807850D01*
X176852225Y-102666607D01*
X176885365Y-102500000D01*
X176885365Y-102000000D01*
X176852225Y-101833393D01*
X176757850Y-101692150D01*
X176616607Y-101597775D01*
X176450000Y-101564635D01*
X175550000Y-101564635D01*
X175383393Y-101597775D01*
X175242150Y-101692150D01*
X175147775Y-101833393D01*
X175114635Y-102000000D01*
X175114635Y-102500000D01*
X175147775Y-102666607D01*
X175203982Y-102750727D01*
X174781710Y-103173000D01*
X173518290Y-103173000D01*
X173396270Y-103050980D01*
X173477000Y-102970250D01*
X173477000Y-102273000D01*
X173523000Y-102273000D01*
X173523000Y-102970250D01*
X173629750Y-103077000D01*
X173959936Y-103077000D01*
X174116876Y-103011993D01*
X174236993Y-102891876D01*
X174302000Y-102734935D01*
X174302000Y-102379750D01*
X174195250Y-102273000D01*
X173523000Y-102273000D01*
X173477000Y-102273000D01*
X173457000Y-102273000D01*
X173457000Y-102227000D01*
X173477000Y-102227000D01*
X173477000Y-102207000D01*
X173523000Y-102207000D01*
X173523000Y-102227000D01*
X174195250Y-102227000D01*
X174302000Y-102120250D01*
X174302000Y-101765065D01*
X174236993Y-101608124D01*
X174125224Y-101496355D01*
X174182850Y-101457850D01*
X174277225Y-101316607D01*
X174310365Y-101150000D01*
X174310365Y-100350000D01*
X174277225Y-100183393D01*
X174182850Y-100042150D01*
X174041607Y-99947775D01*
X173875000Y-99914635D01*
X173576347Y-99914635D01*
X173087011Y-99425299D01*
X173192723Y-99404272D01*
X173396136Y-99268356D01*
X173695147Y-98969345D01*
X174442680Y-98969345D01*
X174609287Y-98936205D01*
X174750530Y-98841830D01*
X174844905Y-98700587D01*
X174878045Y-98533980D01*
X174878045Y-98020127D01*
X175094435Y-97803737D01*
X175094435Y-98579700D01*
X175127575Y-98746307D01*
X175221950Y-98887550D01*
X175363193Y-98981925D01*
X175529800Y-99015065D01*
X175602240Y-99015065D01*
X175602240Y-100064635D01*
X175550000Y-100064635D01*
X175383393Y-100097775D01*
X175242150Y-100192150D01*
X175147775Y-100333393D01*
X175114635Y-100500000D01*
X175114635Y-101000000D01*
X175147775Y-101166607D01*
X175242150Y-101307850D01*
X175383393Y-101402225D01*
X175550000Y-101435365D01*
X176450000Y-101435365D01*
X176616607Y-101402225D01*
X176757850Y-101307850D01*
X176852225Y-101166607D01*
X176885365Y-101000000D01*
X176885365Y-100500000D01*
X176852225Y-100333393D01*
X176757850Y-100192150D01*
X176656240Y-100124257D01*
X176656240Y-99015065D01*
X176728680Y-99015065D01*
X176895287Y-98981925D01*
X177036530Y-98887550D01*
X177130905Y-98746307D01*
X177164045Y-98579700D01*
X177164045Y-97380820D01*
X177130905Y-97214213D01*
X177036530Y-97072970D01*
X176895287Y-96978595D01*
X176728680Y-96945455D01*
X175952717Y-96945455D01*
X175981147Y-96917025D01*
X176728680Y-96917025D01*
X176895287Y-96883885D01*
X177036530Y-96789510D01*
X177130905Y-96648267D01*
X177164045Y-96481660D01*
X177164045Y-95282780D01*
X177130905Y-95116173D01*
X177036530Y-94974930D01*
X176895287Y-94880555D01*
X176728680Y-94847415D01*
X175529800Y-94847415D01*
X175363193Y-94880555D01*
X175221950Y-94974930D01*
X175127575Y-95116173D01*
X175094435Y-95282780D01*
X175094435Y-96030313D01*
X174878045Y-96246703D01*
X174878045Y-95237060D01*
X174844905Y-95070453D01*
X174750530Y-94929210D01*
X174609287Y-94834835D01*
X174442680Y-94801695D01*
X174370240Y-94801695D01*
X174370240Y-94743240D01*
X174330125Y-94541566D01*
X174330125Y-94541565D01*
X174215885Y-94370595D01*
X173972645Y-94127355D01*
X173801675Y-94013115D01*
X173600000Y-93973000D01*
X172920049Y-93973000D01*
X172902225Y-93883393D01*
X172807850Y-93742150D01*
X172666607Y-93647775D01*
X172500000Y-93614635D01*
X172000000Y-93614635D01*
X171833393Y-93647775D01*
X171692150Y-93742150D01*
X171597775Y-93883393D01*
X171564635Y-94050000D01*
X171564635Y-94769345D01*
X171435365Y-94640075D01*
X171435365Y-94050000D01*
X171402225Y-93883393D01*
X171307850Y-93742150D01*
X171166607Y-93647775D01*
X171000000Y-93614635D01*
X170500000Y-93614635D01*
X170333393Y-93647775D01*
X170192150Y-93742150D01*
X170097775Y-93883393D01*
X170064635Y-94050000D01*
X170064635Y-94950000D01*
X170097775Y-95116607D01*
X170192150Y-95257850D01*
X170333393Y-95352225D01*
X170500000Y-95385365D01*
X170690075Y-95385365D01*
X171473000Y-96168290D01*
X171473000Y-97118130D01*
X171472244Y-97116999D01*
X171285051Y-96991922D01*
X171064243Y-96948000D01*
X170852000Y-96948000D01*
X170852000Y-96923000D01*
X170298000Y-96923000D01*
X170298000Y-96943000D01*
X170252000Y-96943000D01*
X170252000Y-96923000D01*
X170232000Y-96923000D01*
X170232000Y-96877000D01*
X170252000Y-96877000D01*
X170252000Y-96280313D01*
X170298000Y-96280313D01*
X170298000Y-96877000D01*
X170852000Y-96877000D01*
X170852000Y-96727000D01*
X170799277Y-96507942D01*
X170666737Y-96325735D01*
X170474559Y-96208119D01*
X170387908Y-96184155D01*
X170298000Y-96280313D01*
X170252000Y-96280313D01*
X170162092Y-96184155D01*
X170075441Y-96208119D01*
X169959837Y-96278870D01*
X169927009Y-96256935D01*
X169927009Y-92734309D01*
X169886894Y-92532635D01*
X169845209Y-92470250D01*
X169772654Y-92361663D01*
X168738334Y-91327344D01*
X168567364Y-91213104D01*
X168365689Y-91172989D01*
X165934311Y-91172989D01*
X165732637Y-91213104D01*
X165675905Y-91251011D01*
X165561665Y-91327344D01*
X164727344Y-92161666D01*
X164613104Y-92332636D01*
X164613104Y-92332637D01*
X164572989Y-92534311D01*
X164572989Y-93116021D01*
X164340769Y-93348241D01*
X164350365Y-93300000D01*
X164350365Y-91300000D01*
X164317225Y-91133393D01*
X164222850Y-90992150D01*
X164081607Y-90897775D01*
X163915000Y-90864635D01*
X163315000Y-90864635D01*
X163150500Y-90897356D01*
X163150500Y-87347341D01*
X163260212Y-87302009D01*
X163577096Y-86985677D01*
X163748804Y-86572158D01*
X163749195Y-86124406D01*
X163578209Y-85710588D01*
X163261877Y-85393704D01*
X162848358Y-85221996D01*
X162400606Y-85221605D01*
X161986788Y-85392591D01*
X161669904Y-85708923D01*
X161543902Y-86012369D01*
X161419209Y-85710588D01*
X161102877Y-85393704D01*
X160689358Y-85221996D01*
X160241606Y-85221605D01*
X159827788Y-85392591D01*
X159510904Y-85708923D01*
X159384902Y-86012369D01*
X159260209Y-85710588D01*
X158943877Y-85393704D01*
X158530358Y-85221996D01*
X158082606Y-85221605D01*
X158014916Y-85249574D01*
X158662024Y-84602466D01*
X172127549Y-84602466D01*
X172435522Y-85347816D01*
X173005284Y-85918574D01*
X173750096Y-86227847D01*
X174556566Y-86228551D01*
X175301916Y-85920578D01*
X175872674Y-85350816D01*
X176181947Y-84606004D01*
X176182651Y-83799534D01*
X175874678Y-83054184D01*
X175304916Y-82483426D01*
X174560104Y-82174153D01*
X173753634Y-82173449D01*
X173008284Y-82481422D01*
X172437526Y-83051184D01*
X172128253Y-83795996D01*
X172127549Y-84602466D01*
X158662024Y-84602466D01*
X160130010Y-83134481D01*
X160239642Y-83180004D01*
X160687394Y-83180395D01*
X161101212Y-83009409D01*
X161418096Y-82693077D01*
X161544098Y-82389631D01*
X161668791Y-82691412D01*
X161985123Y-83008296D01*
X162398642Y-83180004D01*
X162846394Y-83180395D01*
X163260212Y-83009409D01*
X163577096Y-82693077D01*
X163748804Y-82279558D01*
X163749195Y-81831806D01*
X163578209Y-81417988D01*
X163261877Y-81101104D01*
X162848358Y-80929396D01*
X162400606Y-80929005D01*
X161986788Y-81099991D01*
X161669904Y-81416323D01*
X161543902Y-81719769D01*
X161419209Y-81417988D01*
X161102877Y-81101104D01*
X160689358Y-80929396D01*
X160241606Y-80929005D01*
X159827788Y-81099991D01*
X159510904Y-81416323D01*
X159384902Y-81719769D01*
X159260209Y-81417988D01*
X158943877Y-81101104D01*
X158530358Y-80929396D01*
X158082606Y-80929005D01*
X157764026Y-81060640D01*
X157679644Y-80934354D01*
X157428844Y-80683554D01*
X157257874Y-80569314D01*
X157056199Y-80529199D01*
X144872219Y-80529199D01*
X144704004Y-80562659D01*
X144670544Y-80569314D01*
X144499574Y-80683554D01*
X144375266Y-80807862D01*
X144200000Y-80773000D01*
X143998326Y-80813115D01*
X143827355Y-80927355D01*
X143736077Y-81063961D01*
X143437972Y-80933712D01*
X142990304Y-80925105D01*
X142573417Y-81088468D01*
X142536730Y-81112980D01*
X142472986Y-81302659D01*
X143192500Y-82022173D01*
X143206642Y-82008031D01*
X143239169Y-82040558D01*
X143225027Y-82054700D01*
X143239169Y-82068842D01*
X143206642Y-82101369D01*
X143192500Y-82087227D01*
X142472986Y-82806741D01*
X142536730Y-82996420D01*
X142947028Y-83175688D01*
X143394696Y-83184295D01*
X143673000Y-83075238D01*
X143673000Y-85328148D01*
X143417358Y-85221996D01*
X142969606Y-85221605D01*
X142858149Y-85267658D01*
X142317845Y-84727355D01*
X142146875Y-84613115D01*
X141945200Y-84573000D01*
X140803018Y-84573000D01*
X140601344Y-84613115D01*
X140430373Y-84727354D01*
X139586079Y-85571649D01*
X139530270Y-85405580D01*
X139119972Y-85226312D01*
X138672304Y-85217705D01*
X138255417Y-85381068D01*
X138218730Y-85405580D01*
X138154986Y-85595259D01*
X138874500Y-86314773D01*
X138888642Y-86300631D01*
X138921169Y-86333158D01*
X138907027Y-86347300D01*
X138921169Y-86361442D01*
X138888642Y-86393969D01*
X138874500Y-86379827D01*
X138154986Y-87099341D01*
X138218730Y-87289020D01*
X138629028Y-87468288D01*
X139076696Y-87476895D01*
X139346001Y-87371364D01*
X139346001Y-88118709D01*
X136600075Y-90864635D01*
X136310000Y-90864635D01*
X136143393Y-90897775D01*
X136002150Y-90992150D01*
X135975000Y-91032783D01*
X135947850Y-90992150D01*
X135806607Y-90897775D01*
X135640000Y-90864635D01*
X135040000Y-90864635D01*
X134873393Y-90897775D01*
X134732150Y-90992150D01*
X134637775Y-91133393D01*
X134637254Y-91136010D01*
X134604993Y-91058124D01*
X134484876Y-90938007D01*
X134327935Y-90873000D01*
X134072750Y-90873000D01*
X133966000Y-90979750D01*
X133966000Y-92277000D01*
X133986000Y-92277000D01*
X133986000Y-92323000D01*
X133966000Y-92323000D01*
X133966000Y-93620250D01*
X134072750Y-93727000D01*
X134327935Y-93727000D01*
X134484876Y-93661993D01*
X134604993Y-93541876D01*
X134637254Y-93463990D01*
X134637775Y-93466607D01*
X134732150Y-93607850D01*
X134873393Y-93702225D01*
X135040000Y-93735365D01*
X135640000Y-93735365D01*
X135806607Y-93702225D01*
X135947850Y-93607850D01*
X135975000Y-93567217D01*
X136002150Y-93607850D01*
X136143393Y-93702225D01*
X136310000Y-93735365D01*
X136910000Y-93735365D01*
X137076607Y-93702225D01*
X137217850Y-93607850D01*
X137245000Y-93567217D01*
X137272150Y-93607850D01*
X137413393Y-93702225D01*
X137580000Y-93735365D01*
X138180000Y-93735365D01*
X138346607Y-93702225D01*
X138487850Y-93607850D01*
X138515000Y-93567217D01*
X138542150Y-93607850D01*
X138683393Y-93702225D01*
X138850000Y-93735365D01*
X139450000Y-93735365D01*
X139616607Y-93702225D01*
X139757850Y-93607850D01*
X139785000Y-93567217D01*
X139812150Y-93607850D01*
X139930133Y-93686683D01*
X139933115Y-93701675D01*
X140047355Y-93872645D01*
X140547355Y-94372645D01*
X140718326Y-94486885D01*
X140920000Y-94527000D01*
X140981710Y-94527000D01*
X142727355Y-96272645D01*
X142898326Y-96386885D01*
X143100000Y-96427000D01*
X149300000Y-96427000D01*
X149501675Y-96386885D01*
X149672645Y-96272645D01*
X150972646Y-94972645D01*
X151086885Y-94801674D01*
X151127000Y-94600000D01*
X151127000Y-94372290D01*
X151527354Y-94772645D01*
X151620428Y-94834835D01*
X151698326Y-94886885D01*
X151900000Y-94927000D01*
X152073000Y-94927000D01*
X152073000Y-98155975D01*
X152113115Y-98357650D01*
X152227355Y-98528620D01*
X152307458Y-98608724D01*
X152307394Y-98682309D01*
X151885715Y-98682309D01*
X151684041Y-98722424D01*
X151648298Y-98746307D01*
X151513069Y-98836664D01*
X150827355Y-99522379D01*
X150749648Y-99638675D01*
X150736993Y-99608124D01*
X150616876Y-99488007D01*
X150459936Y-99423000D01*
X150129750Y-99423000D01*
X150023000Y-99529750D01*
X150023000Y-100227000D01*
X150043000Y-100227000D01*
X150043000Y-100273000D01*
X150023000Y-100273000D01*
X150023000Y-100293000D01*
X149977000Y-100293000D01*
X149977000Y-100273000D01*
X149304750Y-100273000D01*
X149198000Y-100379750D01*
X149198000Y-100734935D01*
X149249844Y-100860097D01*
X149174113Y-100828651D01*
X148827408Y-100828349D01*
X148775365Y-100849853D01*
X148775365Y-100700000D01*
X148742225Y-100533393D01*
X148647850Y-100392150D01*
X148506607Y-100297775D01*
X148340000Y-100264635D01*
X147740000Y-100264635D01*
X147573393Y-100297775D01*
X147432150Y-100392150D01*
X147405000Y-100432783D01*
X147377850Y-100392150D01*
X147236607Y-100297775D01*
X147070000Y-100264635D01*
X146470000Y-100264635D01*
X146303393Y-100297775D01*
X146162150Y-100392150D01*
X146135000Y-100432783D01*
X146107850Y-100392150D01*
X145966607Y-100297775D01*
X145800000Y-100264635D01*
X145200000Y-100264635D01*
X145033393Y-100297775D01*
X144892150Y-100392150D01*
X144865000Y-100432783D01*
X144837850Y-100392150D01*
X144696607Y-100297775D01*
X144530000Y-100264635D01*
X143930000Y-100264635D01*
X143763393Y-100297775D01*
X143622150Y-100392150D01*
X143595000Y-100432783D01*
X143567850Y-100392150D01*
X143426607Y-100297775D01*
X143260000Y-100264635D01*
X142660000Y-100264635D01*
X142493393Y-100297775D01*
X142352150Y-100392150D01*
X142325000Y-100432783D01*
X142297850Y-100392150D01*
X142156607Y-100297775D01*
X141990000Y-100264635D01*
X141390000Y-100264635D01*
X141223393Y-100297775D01*
X141082150Y-100392150D01*
X141055000Y-100432783D01*
X141027850Y-100392150D01*
X140965625Y-100350573D01*
X140993020Y-100339253D01*
X141238391Y-100094310D01*
X141371349Y-99774113D01*
X141371356Y-99765065D01*
X149198000Y-99765065D01*
X149198000Y-100120250D01*
X149304750Y-100227000D01*
X149977000Y-100227000D01*
X149977000Y-99529750D01*
X149870250Y-99423000D01*
X149540064Y-99423000D01*
X149383124Y-99488007D01*
X149263007Y-99608124D01*
X149198000Y-99765065D01*
X141371356Y-99765065D01*
X141371651Y-99427408D01*
X141239253Y-99106980D01*
X140994310Y-98861609D01*
X140674113Y-98728651D01*
X140327408Y-98728349D01*
X140006980Y-98860747D01*
X139761609Y-99105690D01*
X139628651Y-99425887D01*
X139628349Y-99772592D01*
X139760747Y-100093020D01*
X139893000Y-100225504D01*
X139893000Y-100338128D01*
X139812150Y-100392150D01*
X139785000Y-100432783D01*
X139757850Y-100392150D01*
X139616607Y-100297775D01*
X139450000Y-100264635D01*
X138850000Y-100264635D01*
X138683393Y-100297775D01*
X138542150Y-100392150D01*
X138515000Y-100432783D01*
X138487850Y-100392150D01*
X138346607Y-100297775D01*
X138180000Y-100264635D01*
X137580000Y-100264635D01*
X137413393Y-100297775D01*
X137272150Y-100392150D01*
X137245000Y-100432783D01*
X137217850Y-100392150D01*
X137076607Y-100297775D01*
X136910000Y-100264635D01*
X136310000Y-100264635D01*
X136143393Y-100297775D01*
X136002150Y-100392150D01*
X135975000Y-100432783D01*
X135947850Y-100392150D01*
X135806607Y-100297775D01*
X135640000Y-100264635D01*
X135040000Y-100264635D01*
X134873393Y-100297775D01*
X134732150Y-100392150D01*
X134705000Y-100432783D01*
X134677850Y-100392150D01*
X134536607Y-100297775D01*
X134370000Y-100264635D01*
X133770000Y-100264635D01*
X133603393Y-100297775D01*
X133462150Y-100392150D01*
X133367775Y-100533393D01*
X133334635Y-100700000D01*
X133334635Y-102700000D01*
X133367775Y-102866607D01*
X133462150Y-103007850D01*
X133543000Y-103061872D01*
X133543000Y-104184472D01*
X132927000Y-103568472D01*
X132927000Y-98526040D01*
X132886885Y-98324366D01*
X132772645Y-98153395D01*
X128524605Y-93905355D01*
X128387325Y-93813626D01*
X128387325Y-93678560D01*
X128354185Y-93511953D01*
X128259810Y-93370710D01*
X128118567Y-93276335D01*
X127951960Y-93243195D01*
X127332157Y-93243195D01*
X127377000Y-93134936D01*
X127377000Y-92729750D01*
X127270250Y-92623000D01*
X126723000Y-92623000D01*
X126723000Y-92643000D01*
X126677000Y-92643000D01*
X126677000Y-92623000D01*
X126129750Y-92623000D01*
X126023000Y-92729750D01*
X126023000Y-93134936D01*
X126088007Y-93291876D01*
X126208124Y-93411993D01*
X126365065Y-93477000D01*
X126374210Y-93477000D01*
X126350855Y-93511953D01*
X126317715Y-93678560D01*
X126317715Y-94877440D01*
X126350855Y-95044047D01*
X126445230Y-95185290D01*
X126586473Y-95279665D01*
X126753080Y-95312805D01*
X127951960Y-95312805D01*
X128118567Y-95279665D01*
X128259810Y-95185290D01*
X128281499Y-95152829D01*
X129657306Y-96528636D01*
X129515225Y-96528513D01*
X128980356Y-95993644D01*
X128880616Y-95927000D01*
X128776943Y-95857728D01*
X128537000Y-95810000D01*
X128381843Y-95810000D01*
X128354185Y-95670953D01*
X128259810Y-95529710D01*
X128118567Y-95435335D01*
X127951960Y-95402195D01*
X126753080Y-95402195D01*
X126586473Y-95435335D01*
X126445230Y-95529710D01*
X126350855Y-95670953D01*
X126317715Y-95837560D01*
X126317715Y-97036440D01*
X126350855Y-97203047D01*
X126375216Y-97239506D01*
X126258124Y-97288007D01*
X126138007Y-97408124D01*
X126073000Y-97565064D01*
X126073000Y-97970250D01*
X126179750Y-98077000D01*
X126727000Y-98077000D01*
X126727000Y-98057000D01*
X126773000Y-98057000D01*
X126773000Y-98077000D01*
X127320250Y-98077000D01*
X127427000Y-97970250D01*
X127427000Y-97565064D01*
X127388371Y-97471805D01*
X127951960Y-97471805D01*
X128118567Y-97438665D01*
X128259810Y-97344290D01*
X128354185Y-97203047D01*
X128364496Y-97151208D01*
X128628486Y-97415198D01*
X128628349Y-97572592D01*
X128760747Y-97893020D01*
X129005690Y-98138391D01*
X129325887Y-98271349D01*
X129672592Y-98271651D01*
X129993020Y-98139253D01*
X130238391Y-97894310D01*
X130371349Y-97574113D01*
X130371637Y-97242967D01*
X131873000Y-98744330D01*
X131873000Y-103786762D01*
X131913115Y-103988437D01*
X132027355Y-104159407D01*
X132340948Y-104473000D01*
X129278463Y-104473000D01*
X129257850Y-104442150D01*
X129116607Y-104347775D01*
X128950000Y-104314635D01*
X128050000Y-104314635D01*
X127883393Y-104347775D01*
X127875573Y-104353000D01*
X126850906Y-104353000D01*
X126593262Y-103967408D01*
X126174561Y-103687641D01*
X125680670Y-103589400D01*
X125319330Y-103589400D01*
X124825439Y-103687641D01*
X124406738Y-103967408D01*
X124126971Y-104386109D01*
X124117500Y-104433723D01*
X124117500Y-95837560D01*
X124219675Y-95837560D01*
X124219675Y-97036440D01*
X124252815Y-97203047D01*
X124347190Y-97344290D01*
X124488433Y-97438665D01*
X124611328Y-97463110D01*
X124597775Y-97483393D01*
X124564635Y-97650000D01*
X124564635Y-98550000D01*
X124597775Y-98716607D01*
X124692150Y-98857850D01*
X124833393Y-98952225D01*
X125000000Y-98985365D01*
X125500000Y-98985365D01*
X125666607Y-98952225D01*
X125807850Y-98857850D01*
X125902225Y-98716607D01*
X125935365Y-98550000D01*
X125935365Y-98229750D01*
X126073000Y-98229750D01*
X126073000Y-98634936D01*
X126138007Y-98791876D01*
X126258124Y-98911993D01*
X126415065Y-98977000D01*
X126620250Y-98977000D01*
X126727000Y-98870250D01*
X126727000Y-98123000D01*
X126773000Y-98123000D01*
X126773000Y-98870250D01*
X126879750Y-98977000D01*
X127084935Y-98977000D01*
X127241876Y-98911993D01*
X127361993Y-98791876D01*
X127427000Y-98634936D01*
X127427000Y-98229750D01*
X127320250Y-98123000D01*
X126773000Y-98123000D01*
X126727000Y-98123000D01*
X126179750Y-98123000D01*
X126073000Y-98229750D01*
X125935365Y-98229750D01*
X125935365Y-97650000D01*
X125902225Y-97483393D01*
X125889724Y-97464683D01*
X126020527Y-97438665D01*
X126161770Y-97344290D01*
X126256145Y-97203047D01*
X126289285Y-97036440D01*
X126289285Y-95837560D01*
X126256145Y-95670953D01*
X126161770Y-95529710D01*
X126020527Y-95435335D01*
X125853920Y-95402195D01*
X124655040Y-95402195D01*
X124488433Y-95435335D01*
X124347190Y-95529710D01*
X124252815Y-95670953D01*
X124219675Y-95837560D01*
X124117500Y-95837560D01*
X124117500Y-93678560D01*
X124219675Y-93678560D01*
X124219675Y-94877440D01*
X124252815Y-95044047D01*
X124347190Y-95185290D01*
X124488433Y-95279665D01*
X124655040Y-95312805D01*
X125853920Y-95312805D01*
X126020527Y-95279665D01*
X126161770Y-95185290D01*
X126256145Y-95044047D01*
X126289285Y-94877440D01*
X126289285Y-93678560D01*
X126256145Y-93511953D01*
X126161770Y-93370710D01*
X126020527Y-93276335D01*
X125853920Y-93243195D01*
X125834460Y-93243195D01*
X125852225Y-93216607D01*
X125885365Y-93050000D01*
X125885365Y-92150000D01*
X125868471Y-92065064D01*
X126023000Y-92065064D01*
X126023000Y-92470250D01*
X126129750Y-92577000D01*
X126677000Y-92577000D01*
X126677000Y-91829750D01*
X126723000Y-91829750D01*
X126723000Y-92577000D01*
X127270250Y-92577000D01*
X127377000Y-92470250D01*
X127377000Y-92429750D01*
X133216000Y-92429750D01*
X133216000Y-93384936D01*
X133281007Y-93541876D01*
X133401124Y-93661993D01*
X133558065Y-93727000D01*
X133813250Y-93727000D01*
X133920000Y-93620250D01*
X133920000Y-92323000D01*
X133322750Y-92323000D01*
X133216000Y-92429750D01*
X127377000Y-92429750D01*
X127377000Y-92065064D01*
X127311993Y-91908124D01*
X127191876Y-91788007D01*
X127034935Y-91723000D01*
X126829750Y-91723000D01*
X126723000Y-91829750D01*
X126677000Y-91829750D01*
X126570250Y-91723000D01*
X126365065Y-91723000D01*
X126208124Y-91788007D01*
X126088007Y-91908124D01*
X126023000Y-92065064D01*
X125868471Y-92065064D01*
X125852225Y-91983393D01*
X125757850Y-91842150D01*
X125616607Y-91747775D01*
X125450000Y-91714635D01*
X124950000Y-91714635D01*
X124783393Y-91747775D01*
X124642150Y-91842150D01*
X124547775Y-91983393D01*
X124514635Y-92150000D01*
X124514635Y-93050000D01*
X124547775Y-93216607D01*
X124576040Y-93258909D01*
X124488433Y-93276335D01*
X124347190Y-93370710D01*
X124252815Y-93511953D01*
X124219675Y-93678560D01*
X124117500Y-93678560D01*
X124117500Y-91215064D01*
X133216000Y-91215064D01*
X133216000Y-92170250D01*
X133322750Y-92277000D01*
X133920000Y-92277000D01*
X133920000Y-90979750D01*
X133813250Y-90873000D01*
X133558065Y-90873000D01*
X133401124Y-90938007D01*
X133281007Y-91058124D01*
X133216000Y-91215064D01*
X124117500Y-91215064D01*
X124117500Y-86549496D01*
X137744905Y-86549496D01*
X137908268Y-86966383D01*
X137932780Y-87003070D01*
X138122459Y-87066814D01*
X138841973Y-86347300D01*
X138122459Y-85627786D01*
X137932780Y-85691530D01*
X137753512Y-86101828D01*
X137744905Y-86549496D01*
X124117500Y-86549496D01*
X124117500Y-84602466D01*
X125315349Y-84602466D01*
X125623322Y-85347816D01*
X126193084Y-85918574D01*
X126937896Y-86227847D01*
X127744366Y-86228551D01*
X128489716Y-85920578D01*
X129060474Y-85350816D01*
X129369747Y-84606004D01*
X129370451Y-83799534D01*
X129062478Y-83054184D01*
X128815467Y-82806741D01*
X138154986Y-82806741D01*
X138218730Y-82996420D01*
X138629028Y-83175688D01*
X139076696Y-83184295D01*
X139493583Y-83020932D01*
X139530270Y-82996420D01*
X139594014Y-82806741D01*
X140313986Y-82806741D01*
X140377730Y-82996420D01*
X140788028Y-83175688D01*
X141235696Y-83184295D01*
X141652583Y-83020932D01*
X141689270Y-82996420D01*
X141753014Y-82806741D01*
X141033500Y-82087227D01*
X140313986Y-82806741D01*
X139594014Y-82806741D01*
X138874500Y-82087227D01*
X138154986Y-82806741D01*
X128815467Y-82806741D01*
X128492716Y-82483426D01*
X127947172Y-82256896D01*
X137744905Y-82256896D01*
X137908268Y-82673783D01*
X137932780Y-82710470D01*
X138122459Y-82774214D01*
X138841973Y-82054700D01*
X138907027Y-82054700D01*
X139626541Y-82774214D01*
X139816220Y-82710470D01*
X139956147Y-82390213D01*
X140067268Y-82673783D01*
X140091780Y-82710470D01*
X140281459Y-82774214D01*
X141000973Y-82054700D01*
X141066027Y-82054700D01*
X141785541Y-82774214D01*
X141975220Y-82710470D01*
X142115147Y-82390213D01*
X142226268Y-82673783D01*
X142250780Y-82710470D01*
X142440459Y-82774214D01*
X143159973Y-82054700D01*
X142440459Y-81335186D01*
X142250780Y-81398930D01*
X142110853Y-81719187D01*
X141999732Y-81435617D01*
X141975220Y-81398930D01*
X141785541Y-81335186D01*
X141066027Y-82054700D01*
X141000973Y-82054700D01*
X140281459Y-81335186D01*
X140091780Y-81398930D01*
X139951853Y-81719187D01*
X139840732Y-81435617D01*
X139816220Y-81398930D01*
X139626541Y-81335186D01*
X138907027Y-82054700D01*
X138841973Y-82054700D01*
X138122459Y-81335186D01*
X137932780Y-81398930D01*
X137753512Y-81809228D01*
X137744905Y-82256896D01*
X127947172Y-82256896D01*
X127747904Y-82174153D01*
X126941434Y-82173449D01*
X126196084Y-82481422D01*
X125625326Y-83051184D01*
X125316053Y-83795996D01*
X125315349Y-84602466D01*
X124117500Y-84602466D01*
X124117500Y-81302659D01*
X138154986Y-81302659D01*
X138874500Y-82022173D01*
X139594014Y-81302659D01*
X140313986Y-81302659D01*
X141033500Y-82022173D01*
X141753014Y-81302659D01*
X141689270Y-81112980D01*
X141278972Y-80933712D01*
X140831304Y-80925105D01*
X140414417Y-81088468D01*
X140377730Y-81112980D01*
X140313986Y-81302659D01*
X139594014Y-81302659D01*
X139530270Y-81112980D01*
X139119972Y-80933712D01*
X138672304Y-80925105D01*
X138255417Y-81088468D01*
X138218730Y-81112980D01*
X138154986Y-81302659D01*
X124117500Y-81302659D01*
X124117500Y-74117500D01*
X177382500Y-74117500D01*
X177382500Y-117382500D01*
X177382500Y-117382500D01*
G37*
X177382500Y-117382500D02*
X176876570Y-117382500D01*
X176876570Y-116278590D01*
X176769820Y-116171840D01*
X175473080Y-116171840D01*
X175473080Y-116191840D01*
X175427080Y-116191840D01*
X175427080Y-116171840D01*
X174130340Y-116171840D01*
X174023590Y-116278590D01*
X174023590Y-117382500D01*
X167976410Y-117382500D01*
X167976410Y-116278590D01*
X167869660Y-116171840D01*
X166572920Y-116171840D01*
X166572920Y-116191840D01*
X166526920Y-116191840D01*
X166526920Y-116171840D01*
X165230180Y-116171840D01*
X165123430Y-116278590D01*
X165123430Y-117382500D01*
X153353842Y-117382500D01*
X153370307Y-117379225D01*
X153511550Y-117284850D01*
X153605925Y-117143607D01*
X153639065Y-116977000D01*
X153639065Y-115453000D01*
X153605925Y-115286393D01*
X153527500Y-115169021D01*
X153527500Y-115066656D01*
X153620163Y-114974154D01*
X153645150Y-115011550D01*
X153786393Y-115105925D01*
X153953000Y-115139065D01*
X154991390Y-115139065D01*
X154804558Y-115176228D01*
X154804557Y-115176229D01*
X154804556Y-115176229D01*
X154709945Y-115239446D01*
X154601143Y-115312145D01*
X154584802Y-115328486D01*
X154427408Y-115328349D01*
X154106980Y-115460747D01*
X153861609Y-115705690D01*
X153728651Y-116025887D01*
X153728349Y-116372592D01*
X153860747Y-116693020D01*
X154105690Y-116938391D01*
X154425887Y-117071349D01*
X154772592Y-117071651D01*
X155093020Y-116939253D01*
X155338391Y-116694310D01*
X155469970Y-116377435D01*
X155684442Y-116334773D01*
X155887855Y-116198857D01*
X157272487Y-114814225D01*
X165123430Y-114814225D01*
X165123430Y-116019090D01*
X165230180Y-116125840D01*
X166526920Y-116125840D01*
X166526920Y-114578910D01*
X166572920Y-114578910D01*
X166572920Y-116125840D01*
X167869660Y-116125840D01*
X167976410Y-116019090D01*
X167976410Y-114814225D01*
X174023590Y-114814225D01*
X174023590Y-116019090D01*
X174130340Y-116125840D01*
X175427080Y-116125840D01*
X175427080Y-114578910D01*
X175473080Y-114578910D01*
X175473080Y-116125840D01*
X176769820Y-116125840D01*
X176876570Y-116019090D01*
X176876570Y-114814225D01*
X176811563Y-114657284D01*
X176691446Y-114537167D01*
X176534506Y-114472160D01*
X175579830Y-114472160D01*
X175473080Y-114578910D01*
X175427080Y-114578910D01*
X175320330Y-114472160D01*
X174365654Y-114472160D01*
X174208714Y-114537167D01*
X174088597Y-114657284D01*
X174023590Y-114814225D01*
X167976410Y-114814225D01*
X167911403Y-114657284D01*
X167791286Y-114537167D01*
X167634346Y-114472160D01*
X166679670Y-114472160D01*
X166572920Y-114578910D01*
X166526920Y-114578910D01*
X166420170Y-114472160D01*
X165465494Y-114472160D01*
X165308554Y-114537167D01*
X165188437Y-114657284D01*
X165123430Y-114814225D01*
X157272487Y-114814225D01*
X158143356Y-113943356D01*
X158279272Y-113739942D01*
X158327000Y-113500000D01*
X158279272Y-113260058D01*
X158177000Y-113106996D01*
X158177000Y-112929750D01*
X159223000Y-112929750D01*
X159223000Y-113384935D01*
X159288007Y-113541876D01*
X159408124Y-113661993D01*
X159565064Y-113727000D01*
X160770250Y-113727000D01*
X160877000Y-113620250D01*
X160877000Y-112823000D01*
X160923000Y-112823000D01*
X160923000Y-113620250D01*
X161029750Y-113727000D01*
X162234936Y-113727000D01*
X162391876Y-113661993D01*
X162511993Y-113541876D01*
X162577000Y-113384935D01*
X162577000Y-113322698D01*
X167923628Y-113322698D01*
X168056799Y-113644994D01*
X168303169Y-113891795D01*
X168625233Y-114025527D01*
X168973958Y-114025832D01*
X169296254Y-113892661D01*
X169543055Y-113646291D01*
X169676787Y-113324227D01*
X169676788Y-113322698D01*
X172322908Y-113322698D01*
X172456079Y-113644994D01*
X172702449Y-113891795D01*
X173024513Y-114025527D01*
X173373238Y-114025832D01*
X173695534Y-113892661D01*
X173942335Y-113646291D01*
X174076067Y-113324227D01*
X174076372Y-112975502D01*
X173943201Y-112653206D01*
X173696831Y-112406405D01*
X173374767Y-112272673D01*
X173026042Y-112272368D01*
X172703746Y-112405539D01*
X172456945Y-112651909D01*
X172323213Y-112973973D01*
X172322908Y-113322698D01*
X169676788Y-113322698D01*
X169677092Y-112975502D01*
X169543921Y-112653206D01*
X169297551Y-112406405D01*
X168975487Y-112272673D01*
X168626762Y-112272368D01*
X168304466Y-112405539D01*
X168057665Y-112651909D01*
X167923933Y-112973973D01*
X167923628Y-113322698D01*
X162577000Y-113322698D01*
X162577000Y-112929750D01*
X162470250Y-112823000D01*
X160923000Y-112823000D01*
X160877000Y-112823000D01*
X159329750Y-112823000D01*
X159223000Y-112929750D01*
X158177000Y-112929750D01*
X158177000Y-112215065D01*
X159223000Y-112215065D01*
X159223000Y-112670250D01*
X159329750Y-112777000D01*
X160877000Y-112777000D01*
X160877000Y-111979750D01*
X160923000Y-111979750D01*
X160923000Y-112777000D01*
X162470250Y-112777000D01*
X162577000Y-112670250D01*
X162577000Y-112215065D01*
X162511993Y-112058124D01*
X162391876Y-111938007D01*
X162234936Y-111873000D01*
X161029750Y-111873000D01*
X160923000Y-111979750D01*
X160877000Y-111979750D01*
X160770250Y-111873000D01*
X159565064Y-111873000D01*
X159408124Y-111938007D01*
X159288007Y-112058124D01*
X159223000Y-112215065D01*
X158177000Y-112215065D01*
X158177000Y-110879750D01*
X162698000Y-110879750D01*
X162698000Y-111234935D01*
X162763007Y-111391876D01*
X162883124Y-111511993D01*
X163040064Y-111577000D01*
X163370250Y-111577000D01*
X163477000Y-111470250D01*
X163477000Y-110773000D01*
X163523000Y-110773000D01*
X163523000Y-111470250D01*
X163629750Y-111577000D01*
X163959936Y-111577000D01*
X164116876Y-111511993D01*
X164236993Y-111391876D01*
X164302000Y-111234935D01*
X164302000Y-110879750D01*
X164201740Y-110779490D01*
X165123430Y-110779490D01*
X165123430Y-111984355D01*
X165188437Y-112141296D01*
X165308554Y-112261413D01*
X165465494Y-112326420D01*
X166420170Y-112326420D01*
X166526920Y-112219670D01*
X166526920Y-110672740D01*
X166572920Y-110672740D01*
X166572920Y-112219670D01*
X166679670Y-112326420D01*
X167634346Y-112326420D01*
X167791286Y-112261413D01*
X167911403Y-112141296D01*
X167976410Y-111984355D01*
X167976410Y-110779490D01*
X167869660Y-110672740D01*
X166572920Y-110672740D01*
X166526920Y-110672740D01*
X165230180Y-110672740D01*
X165123430Y-110779490D01*
X164201740Y-110779490D01*
X164195250Y-110773000D01*
X163523000Y-110773000D01*
X163477000Y-110773000D01*
X162804750Y-110773000D01*
X162698000Y-110879750D01*
X158177000Y-110879750D01*
X158177000Y-110800000D01*
X158167916Y-110754334D01*
X158227000Y-110695250D01*
X158227000Y-110023000D01*
X158273000Y-110023000D01*
X158273000Y-110695250D01*
X158379750Y-110802000D01*
X158734935Y-110802000D01*
X158891876Y-110736993D01*
X159011993Y-110616876D01*
X159077000Y-110459936D01*
X159077000Y-110129750D01*
X158970250Y-110023000D01*
X158273000Y-110023000D01*
X158227000Y-110023000D01*
X158207000Y-110023000D01*
X158207000Y-109977000D01*
X158227000Y-109977000D01*
X158227000Y-109957000D01*
X158273000Y-109957000D01*
X158273000Y-109977000D01*
X158970250Y-109977000D01*
X159077000Y-109870250D01*
X159077000Y-109613712D01*
X159214635Y-109751347D01*
X159214635Y-110300000D01*
X159247775Y-110466607D01*
X159342150Y-110607850D01*
X159483393Y-110702225D01*
X159650000Y-110735365D01*
X162150000Y-110735365D01*
X162316607Y-110702225D01*
X162457850Y-110607850D01*
X162552225Y-110466607D01*
X162585365Y-110300000D01*
X162585365Y-109877000D01*
X162763128Y-109877000D01*
X162817150Y-109957850D01*
X162874776Y-109996355D01*
X162763007Y-110108124D01*
X162698000Y-110265065D01*
X162698000Y-110620250D01*
X162804750Y-110727000D01*
X163477000Y-110727000D01*
X163477000Y-110707000D01*
X163523000Y-110707000D01*
X163523000Y-110727000D01*
X164195250Y-110727000D01*
X164302000Y-110620250D01*
X164302000Y-110265065D01*
X164236993Y-110108124D01*
X164125224Y-109996355D01*
X164182850Y-109957850D01*
X164277225Y-109816607D01*
X164310365Y-109650000D01*
X164310365Y-109326347D01*
X164321587Y-109315125D01*
X165123430Y-109315125D01*
X165123430Y-110519990D01*
X165230180Y-110626740D01*
X166526920Y-110626740D01*
X166526920Y-109079810D01*
X166572920Y-109079810D01*
X166572920Y-110626740D01*
X167869660Y-110626740D01*
X167976410Y-110519990D01*
X167976410Y-109315125D01*
X167911403Y-109158184D01*
X167791286Y-109038067D01*
X167634346Y-108973060D01*
X166679670Y-108973060D01*
X166572920Y-109079810D01*
X166526920Y-109079810D01*
X166420170Y-108973060D01*
X165465494Y-108973060D01*
X165308554Y-109038067D01*
X165188437Y-109158184D01*
X165123430Y-109315125D01*
X164321587Y-109315125D01*
X165251347Y-108385365D01*
X165500000Y-108385365D01*
X165666607Y-108352225D01*
X165807850Y-108257850D01*
X165902225Y-108116607D01*
X165935365Y-107950000D01*
X165935365Y-107050000D01*
X165902225Y-106883393D01*
X165807850Y-106742150D01*
X165666607Y-106647775D01*
X165500000Y-106614635D01*
X165000000Y-106614635D01*
X164833393Y-106647775D01*
X164692150Y-106742150D01*
X164597775Y-106883393D01*
X164564635Y-107050000D01*
X164564635Y-107298653D01*
X163448653Y-108414635D01*
X163125000Y-108414635D01*
X162958393Y-108447775D01*
X162817150Y-108542150D01*
X162763128Y-108623000D01*
X162150000Y-108623000D01*
X161910057Y-108670728D01*
X161723464Y-108795405D01*
X161706644Y-108806644D01*
X161648653Y-108864635D01*
X161527000Y-108864635D01*
X161527000Y-107959712D01*
X164058356Y-105428356D01*
X164194273Y-105224942D01*
X164213207Y-105129750D01*
X164923000Y-105129750D01*
X164923000Y-105459936D01*
X164988007Y-105616876D01*
X165108124Y-105736993D01*
X165265065Y-105802000D01*
X165620250Y-105802000D01*
X165727000Y-105695250D01*
X165727000Y-105023000D01*
X165029750Y-105023000D01*
X164923000Y-105129750D01*
X164213207Y-105129750D01*
X164224790Y-105071522D01*
X164372592Y-105071651D01*
X164693020Y-104939253D01*
X164923000Y-104709674D01*
X164923000Y-104870250D01*
X165029750Y-104977000D01*
X165727000Y-104977000D01*
X165727000Y-104304750D01*
X165620250Y-104198000D01*
X165265065Y-104198000D01*
X165108124Y-104263007D01*
X165071414Y-104299717D01*
X165071651Y-104027408D01*
X164939253Y-103706980D01*
X164694310Y-103461609D01*
X164374113Y-103328651D01*
X164242000Y-103328536D01*
X164242000Y-102979190D01*
X164317225Y-102866607D01*
X164324644Y-102829309D01*
X164425887Y-102871349D01*
X164498464Y-102871412D01*
X164585057Y-102929272D01*
X164825000Y-102977000D01*
X164863128Y-102977000D01*
X164917150Y-103057850D01*
X165058393Y-103152225D01*
X165225000Y-103185365D01*
X165975000Y-103185365D01*
X166141607Y-103152225D01*
X166282850Y-103057850D01*
X166377225Y-102916607D01*
X166410365Y-102750000D01*
X166410365Y-101950000D01*
X166377225Y-101783393D01*
X166282850Y-101642150D01*
X166225224Y-101603645D01*
X166336993Y-101491876D01*
X166402000Y-101334935D01*
X166402000Y-100979750D01*
X166295250Y-100873000D01*
X165623000Y-100873000D01*
X165623000Y-100893000D01*
X165577000Y-100893000D01*
X165577000Y-100873000D01*
X164904750Y-100873000D01*
X164798000Y-100979750D01*
X164798000Y-101138570D01*
X164774113Y-101128651D01*
X164566530Y-101128470D01*
X164554943Y-101120728D01*
X164350365Y-101080035D01*
X164350365Y-100700000D01*
X164317225Y-100533393D01*
X164222850Y-100392150D01*
X164162761Y-100352000D01*
X164803412Y-100352000D01*
X164798000Y-100365065D01*
X164798000Y-100720250D01*
X164904750Y-100827000D01*
X165577000Y-100827000D01*
X165577000Y-100807000D01*
X165623000Y-100807000D01*
X165623000Y-100827000D01*
X166295250Y-100827000D01*
X166402000Y-100720250D01*
X166402000Y-100365065D01*
X166396588Y-100352000D01*
X167200000Y-100352000D01*
X167401675Y-100311885D01*
X167572645Y-100197645D01*
X167718290Y-100052000D01*
X167748000Y-100052000D01*
X167748000Y-100264243D01*
X167791922Y-100485051D01*
X167798000Y-100494147D01*
X167798000Y-100856709D01*
X167570599Y-101084110D01*
X167271907Y-101083850D01*
X166951479Y-101216248D01*
X166706108Y-101461191D01*
X166573150Y-101781388D01*
X166572848Y-102128093D01*
X166705246Y-102448521D01*
X166950189Y-102693892D01*
X167270386Y-102826850D01*
X167617091Y-102827152D01*
X167629002Y-102822230D01*
X167647775Y-102916607D01*
X167742150Y-103057850D01*
X167883393Y-103152225D01*
X168050000Y-103185365D01*
X168950000Y-103185365D01*
X169114635Y-103152617D01*
X169114635Y-103347383D01*
X168950000Y-103314635D01*
X168050000Y-103314635D01*
X167883393Y-103347775D01*
X167742150Y-103442150D01*
X167721537Y-103473000D01*
X167675000Y-103473000D01*
X167473326Y-103513115D01*
X167302355Y-103627355D01*
X166877355Y-104052355D01*
X166775759Y-104204402D01*
X166683393Y-104222775D01*
X166542150Y-104317150D01*
X166503645Y-104374776D01*
X166391876Y-104263007D01*
X166234935Y-104198000D01*
X165879750Y-104198000D01*
X165773000Y-104304750D01*
X165773000Y-104977000D01*
X165793000Y-104977000D01*
X165793000Y-105023000D01*
X165773000Y-105023000D01*
X165773000Y-105695250D01*
X165879750Y-105802000D01*
X166234935Y-105802000D01*
X166391876Y-105736993D01*
X166503645Y-105625224D01*
X166542150Y-105682850D01*
X166683393Y-105777225D01*
X166850000Y-105810365D01*
X167560766Y-105810365D01*
X167488007Y-105883124D01*
X167423000Y-106040064D01*
X167423000Y-106370250D01*
X167529750Y-106477000D01*
X168227000Y-106477000D01*
X168227000Y-105804750D01*
X168120250Y-105698000D01*
X167935176Y-105698000D01*
X167957850Y-105682850D01*
X168052225Y-105541607D01*
X168085365Y-105375000D01*
X168085365Y-104685365D01*
X168950000Y-104685365D01*
X169114635Y-104652617D01*
X169114635Y-105000000D01*
X169147775Y-105166607D01*
X169242150Y-105307850D01*
X169275341Y-105330027D01*
X169263115Y-105348325D01*
X169232612Y-105501675D01*
X169223000Y-105550000D01*
X169223000Y-105714897D01*
X169183393Y-105722775D01*
X169042150Y-105817150D01*
X169003645Y-105874776D01*
X168891876Y-105763007D01*
X168734935Y-105698000D01*
X168379750Y-105698000D01*
X168273000Y-105804750D01*
X168273000Y-106477000D01*
X168293000Y-106477000D01*
X168293000Y-106523000D01*
X168273000Y-106523000D01*
X168273000Y-106543000D01*
X168227000Y-106543000D01*
X168227000Y-106523000D01*
X167529750Y-106523000D01*
X167423000Y-106629750D01*
X167423000Y-106873000D01*
X167395281Y-106873000D01*
X167307850Y-106742150D01*
X167166607Y-106647775D01*
X167000000Y-106614635D01*
X166500000Y-106614635D01*
X166333393Y-106647775D01*
X166192150Y-106742150D01*
X166097775Y-106883393D01*
X166064635Y-107050000D01*
X166064635Y-107950000D01*
X166097775Y-108116607D01*
X166192150Y-108257850D01*
X166333393Y-108352225D01*
X166500000Y-108385365D01*
X167000000Y-108385365D01*
X167166607Y-108352225D01*
X167307850Y-108257850D01*
X167395281Y-108127000D01*
X167840288Y-108127000D01*
X168772800Y-109059512D01*
X168772800Y-109195417D01*
X168747385Y-109233453D01*
X168714245Y-109400060D01*
X168714245Y-111701300D01*
X168747385Y-111867907D01*
X168841760Y-112009150D01*
X168983003Y-112103525D01*
X169149610Y-112136665D01*
X169649990Y-112136665D01*
X169799850Y-112106856D01*
X169949710Y-112136665D01*
X170450090Y-112136665D01*
X170599950Y-112106856D01*
X170749810Y-112136665D01*
X171250190Y-112136665D01*
X171400050Y-112106856D01*
X171549910Y-112136665D01*
X172050290Y-112136665D01*
X172209037Y-112105088D01*
X172265074Y-112128300D01*
X172470450Y-112128300D01*
X172577200Y-112021550D01*
X172577200Y-110573680D01*
X172623200Y-110573680D01*
X172623200Y-112021550D01*
X172729950Y-112128300D01*
X172935326Y-112128300D01*
X173092266Y-112063293D01*
X173212383Y-111943176D01*
X173277390Y-111786235D01*
X173277390Y-110779490D01*
X174023590Y-110779490D01*
X174023590Y-111984355D01*
X174088597Y-112141296D01*
X174208714Y-112261413D01*
X174365654Y-112326420D01*
X175320330Y-112326420D01*
X175427080Y-112219670D01*
X175427080Y-110672740D01*
X175473080Y-110672740D01*
X175473080Y-112219670D01*
X175579830Y-112326420D01*
X176534506Y-112326420D01*
X176691446Y-112261413D01*
X176811563Y-112141296D01*
X176876570Y-111984355D01*
X176876570Y-110779490D01*
X176769820Y-110672740D01*
X175473080Y-110672740D01*
X175427080Y-110672740D01*
X174130340Y-110672740D01*
X174023590Y-110779490D01*
X173277390Y-110779490D01*
X173277390Y-110680430D01*
X173170640Y-110573680D01*
X172623200Y-110573680D01*
X172577200Y-110573680D01*
X172557200Y-110573680D01*
X172557200Y-110527680D01*
X172577200Y-110527680D01*
X172577200Y-109079810D01*
X172623200Y-109079810D01*
X172623200Y-110527680D01*
X173170640Y-110527680D01*
X173277390Y-110420930D01*
X173277390Y-109315125D01*
X174023590Y-109315125D01*
X174023590Y-110519990D01*
X174130340Y-110626740D01*
X175427080Y-110626740D01*
X175427080Y-109079810D01*
X175473080Y-109079810D01*
X175473080Y-110626740D01*
X176769820Y-110626740D01*
X176876570Y-110519990D01*
X176876570Y-109315125D01*
X176811563Y-109158184D01*
X176691446Y-109038067D01*
X176534506Y-108973060D01*
X175579830Y-108973060D01*
X175473080Y-109079810D01*
X175427080Y-109079810D01*
X175320330Y-108973060D01*
X174365654Y-108973060D01*
X174208714Y-109038067D01*
X174088597Y-109158184D01*
X174023590Y-109315125D01*
X173277390Y-109315125D01*
X173212383Y-109158184D01*
X173092266Y-109038067D01*
X172935326Y-108973060D01*
X172729950Y-108973060D01*
X172623200Y-109079810D01*
X172577200Y-109079810D01*
X172470450Y-108973060D01*
X172265074Y-108973060D01*
X172209037Y-108996272D01*
X172050290Y-108964695D01*
X171549910Y-108964695D01*
X171501983Y-108974228D01*
X171486885Y-108898326D01*
X171372645Y-108727355D01*
X171195290Y-108550000D01*
X171772645Y-107972645D01*
X171886885Y-107801675D01*
X171927000Y-107600000D01*
X171927000Y-104506170D01*
X171886885Y-104304496D01*
X171835341Y-104227355D01*
X171772645Y-104133524D01*
X171266475Y-103627355D01*
X171095505Y-103513115D01*
X170893830Y-103473000D01*
X170885365Y-103473000D01*
X170885365Y-103212999D01*
X171025887Y-103271349D01*
X171372592Y-103271651D01*
X171693020Y-103139253D01*
X171805469Y-103027000D01*
X171881710Y-103027000D01*
X172927355Y-104072645D01*
X173098325Y-104186885D01*
X173112151Y-104189635D01*
X173300000Y-104227000D01*
X175000000Y-104227000D01*
X175201675Y-104186885D01*
X175372645Y-104072645D01*
X176372646Y-103072645D01*
X176466577Y-102932068D01*
X176616607Y-102902225D01*
X176757850Y-102807850D01*
X176852225Y-102666607D01*
X176885365Y-102500000D01*
X176885365Y-102000000D01*
X176852225Y-101833393D01*
X176757850Y-101692150D01*
X176616607Y-101597775D01*
X176450000Y-101564635D01*
X175550000Y-101564635D01*
X175383393Y-101597775D01*
X175242150Y-101692150D01*
X175147775Y-101833393D01*
X175114635Y-102000000D01*
X175114635Y-102500000D01*
X175147775Y-102666607D01*
X175203982Y-102750727D01*
X174781710Y-103173000D01*
X173518290Y-103173000D01*
X173396270Y-103050980D01*
X173477000Y-102970250D01*
X173477000Y-102273000D01*
X173523000Y-102273000D01*
X173523000Y-102970250D01*
X173629750Y-103077000D01*
X173959936Y-103077000D01*
X174116876Y-103011993D01*
X174236993Y-102891876D01*
X174302000Y-102734935D01*
X174302000Y-102379750D01*
X174195250Y-102273000D01*
X173523000Y-102273000D01*
X173477000Y-102273000D01*
X173457000Y-102273000D01*
X173457000Y-102227000D01*
X173477000Y-102227000D01*
X173477000Y-102207000D01*
X173523000Y-102207000D01*
X173523000Y-102227000D01*
X174195250Y-102227000D01*
X174302000Y-102120250D01*
X174302000Y-101765065D01*
X174236993Y-101608124D01*
X174125224Y-101496355D01*
X174182850Y-101457850D01*
X174277225Y-101316607D01*
X174310365Y-101150000D01*
X174310365Y-100350000D01*
X174277225Y-100183393D01*
X174182850Y-100042150D01*
X174041607Y-99947775D01*
X173875000Y-99914635D01*
X173576347Y-99914635D01*
X173087011Y-99425299D01*
X173192723Y-99404272D01*
X173396136Y-99268356D01*
X173695147Y-98969345D01*
X174442680Y-98969345D01*
X174609287Y-98936205D01*
X174750530Y-98841830D01*
X174844905Y-98700587D01*
X174878045Y-98533980D01*
X174878045Y-98020127D01*
X175094435Y-97803737D01*
X175094435Y-98579700D01*
X175127575Y-98746307D01*
X175221950Y-98887550D01*
X175363193Y-98981925D01*
X175529800Y-99015065D01*
X175602240Y-99015065D01*
X175602240Y-100064635D01*
X175550000Y-100064635D01*
X175383393Y-100097775D01*
X175242150Y-100192150D01*
X175147775Y-100333393D01*
X175114635Y-100500000D01*
X175114635Y-101000000D01*
X175147775Y-101166607D01*
X175242150Y-101307850D01*
X175383393Y-101402225D01*
X175550000Y-101435365D01*
X176450000Y-101435365D01*
X176616607Y-101402225D01*
X176757850Y-101307850D01*
X176852225Y-101166607D01*
X176885365Y-101000000D01*
X176885365Y-100500000D01*
X176852225Y-100333393D01*
X176757850Y-100192150D01*
X176656240Y-100124257D01*
X176656240Y-99015065D01*
X176728680Y-99015065D01*
X176895287Y-98981925D01*
X177036530Y-98887550D01*
X177130905Y-98746307D01*
X177164045Y-98579700D01*
X177164045Y-97380820D01*
X177130905Y-97214213D01*
X177036530Y-97072970D01*
X176895287Y-96978595D01*
X176728680Y-96945455D01*
X175952717Y-96945455D01*
X175981147Y-96917025D01*
X176728680Y-96917025D01*
X176895287Y-96883885D01*
X177036530Y-96789510D01*
X177130905Y-96648267D01*
X177164045Y-96481660D01*
X177164045Y-95282780D01*
X177130905Y-95116173D01*
X177036530Y-94974930D01*
X176895287Y-94880555D01*
X176728680Y-94847415D01*
X175529800Y-94847415D01*
X175363193Y-94880555D01*
X175221950Y-94974930D01*
X175127575Y-95116173D01*
X175094435Y-95282780D01*
X175094435Y-96030313D01*
X174878045Y-96246703D01*
X174878045Y-95237060D01*
X174844905Y-95070453D01*
X174750530Y-94929210D01*
X174609287Y-94834835D01*
X174442680Y-94801695D01*
X174370240Y-94801695D01*
X174370240Y-94743240D01*
X174330125Y-94541566D01*
X174330125Y-94541565D01*
X174215885Y-94370595D01*
X173972645Y-94127355D01*
X173801675Y-94013115D01*
X173600000Y-93973000D01*
X172920049Y-93973000D01*
X172902225Y-93883393D01*
X172807850Y-93742150D01*
X172666607Y-93647775D01*
X172500000Y-93614635D01*
X172000000Y-93614635D01*
X171833393Y-93647775D01*
X171692150Y-93742150D01*
X171597775Y-93883393D01*
X171564635Y-94050000D01*
X171564635Y-94769345D01*
X171435365Y-94640075D01*
X171435365Y-94050000D01*
X171402225Y-93883393D01*
X171307850Y-93742150D01*
X171166607Y-93647775D01*
X171000000Y-93614635D01*
X170500000Y-93614635D01*
X170333393Y-93647775D01*
X170192150Y-93742150D01*
X170097775Y-93883393D01*
X170064635Y-94050000D01*
X170064635Y-94950000D01*
X170097775Y-95116607D01*
X170192150Y-95257850D01*
X170333393Y-95352225D01*
X170500000Y-95385365D01*
X170690075Y-95385365D01*
X171473000Y-96168290D01*
X171473000Y-97118130D01*
X171472244Y-97116999D01*
X171285051Y-96991922D01*
X171064243Y-96948000D01*
X170852000Y-96948000D01*
X170852000Y-96923000D01*
X170298000Y-96923000D01*
X170298000Y-96943000D01*
X170252000Y-96943000D01*
X170252000Y-96923000D01*
X170232000Y-96923000D01*
X170232000Y-96877000D01*
X170252000Y-96877000D01*
X170252000Y-96280313D01*
X170298000Y-96280313D01*
X170298000Y-96877000D01*
X170852000Y-96877000D01*
X170852000Y-96727000D01*
X170799277Y-96507942D01*
X170666737Y-96325735D01*
X170474559Y-96208119D01*
X170387908Y-96184155D01*
X170298000Y-96280313D01*
X170252000Y-96280313D01*
X170162092Y-96184155D01*
X170075441Y-96208119D01*
X169959837Y-96278870D01*
X169927009Y-96256935D01*
X169927009Y-92734309D01*
X169886894Y-92532635D01*
X169845209Y-92470250D01*
X169772654Y-92361663D01*
X168738334Y-91327344D01*
X168567364Y-91213104D01*
X168365689Y-91172989D01*
X165934311Y-91172989D01*
X165732637Y-91213104D01*
X165675905Y-91251011D01*
X165561665Y-91327344D01*
X164727344Y-92161666D01*
X164613104Y-92332636D01*
X164613104Y-92332637D01*
X164572989Y-92534311D01*
X164572989Y-93116021D01*
X164340769Y-93348241D01*
X164350365Y-93300000D01*
X164350365Y-91300000D01*
X164317225Y-91133393D01*
X164222850Y-90992150D01*
X164081607Y-90897775D01*
X163915000Y-90864635D01*
X163315000Y-90864635D01*
X163150500Y-90897356D01*
X163150500Y-87347341D01*
X163260212Y-87302009D01*
X163577096Y-86985677D01*
X163748804Y-86572158D01*
X163749195Y-86124406D01*
X163578209Y-85710588D01*
X163261877Y-85393704D01*
X162848358Y-85221996D01*
X162400606Y-85221605D01*
X161986788Y-85392591D01*
X161669904Y-85708923D01*
X161543902Y-86012369D01*
X161419209Y-85710588D01*
X161102877Y-85393704D01*
X160689358Y-85221996D01*
X160241606Y-85221605D01*
X159827788Y-85392591D01*
X159510904Y-85708923D01*
X159384902Y-86012369D01*
X159260209Y-85710588D01*
X158943877Y-85393704D01*
X158530358Y-85221996D01*
X158082606Y-85221605D01*
X158014916Y-85249574D01*
X158662024Y-84602466D01*
X172127549Y-84602466D01*
X172435522Y-85347816D01*
X173005284Y-85918574D01*
X173750096Y-86227847D01*
X174556566Y-86228551D01*
X175301916Y-85920578D01*
X175872674Y-85350816D01*
X176181947Y-84606004D01*
X176182651Y-83799534D01*
X175874678Y-83054184D01*
X175304916Y-82483426D01*
X174560104Y-82174153D01*
X173753634Y-82173449D01*
X173008284Y-82481422D01*
X172437526Y-83051184D01*
X172128253Y-83795996D01*
X172127549Y-84602466D01*
X158662024Y-84602466D01*
X160130010Y-83134481D01*
X160239642Y-83180004D01*
X160687394Y-83180395D01*
X161101212Y-83009409D01*
X161418096Y-82693077D01*
X161544098Y-82389631D01*
X161668791Y-82691412D01*
X161985123Y-83008296D01*
X162398642Y-83180004D01*
X162846394Y-83180395D01*
X163260212Y-83009409D01*
X163577096Y-82693077D01*
X163748804Y-82279558D01*
X163749195Y-81831806D01*
X163578209Y-81417988D01*
X163261877Y-81101104D01*
X162848358Y-80929396D01*
X162400606Y-80929005D01*
X161986788Y-81099991D01*
X161669904Y-81416323D01*
X161543902Y-81719769D01*
X161419209Y-81417988D01*
X161102877Y-81101104D01*
X160689358Y-80929396D01*
X160241606Y-80929005D01*
X159827788Y-81099991D01*
X159510904Y-81416323D01*
X159384902Y-81719769D01*
X159260209Y-81417988D01*
X158943877Y-81101104D01*
X158530358Y-80929396D01*
X158082606Y-80929005D01*
X157764026Y-81060640D01*
X157679644Y-80934354D01*
X157428844Y-80683554D01*
X157257874Y-80569314D01*
X157056199Y-80529199D01*
X144872219Y-80529199D01*
X144704004Y-80562659D01*
X144670544Y-80569314D01*
X144499574Y-80683554D01*
X144375266Y-80807862D01*
X144200000Y-80773000D01*
X143998326Y-80813115D01*
X143827355Y-80927355D01*
X143736077Y-81063961D01*
X143437972Y-80933712D01*
X142990304Y-80925105D01*
X142573417Y-81088468D01*
X142536730Y-81112980D01*
X142472986Y-81302659D01*
X143192500Y-82022173D01*
X143206642Y-82008031D01*
X143239169Y-82040558D01*
X143225027Y-82054700D01*
X143239169Y-82068842D01*
X143206642Y-82101369D01*
X143192500Y-82087227D01*
X142472986Y-82806741D01*
X142536730Y-82996420D01*
X142947028Y-83175688D01*
X143394696Y-83184295D01*
X143673000Y-83075238D01*
X143673000Y-85328148D01*
X143417358Y-85221996D01*
X142969606Y-85221605D01*
X142858149Y-85267658D01*
X142317845Y-84727355D01*
X142146875Y-84613115D01*
X141945200Y-84573000D01*
X140803018Y-84573000D01*
X140601344Y-84613115D01*
X140430373Y-84727354D01*
X139586079Y-85571649D01*
X139530270Y-85405580D01*
X139119972Y-85226312D01*
X138672304Y-85217705D01*
X138255417Y-85381068D01*
X138218730Y-85405580D01*
X138154986Y-85595259D01*
X138874500Y-86314773D01*
X138888642Y-86300631D01*
X138921169Y-86333158D01*
X138907027Y-86347300D01*
X138921169Y-86361442D01*
X138888642Y-86393969D01*
X138874500Y-86379827D01*
X138154986Y-87099341D01*
X138218730Y-87289020D01*
X138629028Y-87468288D01*
X139076696Y-87476895D01*
X139346001Y-87371364D01*
X139346001Y-88118709D01*
X136600075Y-90864635D01*
X136310000Y-90864635D01*
X136143393Y-90897775D01*
X136002150Y-90992150D01*
X135975000Y-91032783D01*
X135947850Y-90992150D01*
X135806607Y-90897775D01*
X135640000Y-90864635D01*
X135040000Y-90864635D01*
X134873393Y-90897775D01*
X134732150Y-90992150D01*
X134637775Y-91133393D01*
X134637254Y-91136010D01*
X134604993Y-91058124D01*
X134484876Y-90938007D01*
X134327935Y-90873000D01*
X134072750Y-90873000D01*
X133966000Y-90979750D01*
X133966000Y-92277000D01*
X133986000Y-92277000D01*
X133986000Y-92323000D01*
X133966000Y-92323000D01*
X133966000Y-93620250D01*
X134072750Y-93727000D01*
X134327935Y-93727000D01*
X134484876Y-93661993D01*
X134604993Y-93541876D01*
X134637254Y-93463990D01*
X134637775Y-93466607D01*
X134732150Y-93607850D01*
X134873393Y-93702225D01*
X135040000Y-93735365D01*
X135640000Y-93735365D01*
X135806607Y-93702225D01*
X135947850Y-93607850D01*
X135975000Y-93567217D01*
X136002150Y-93607850D01*
X136143393Y-93702225D01*
X136310000Y-93735365D01*
X136910000Y-93735365D01*
X137076607Y-93702225D01*
X137217850Y-93607850D01*
X137245000Y-93567217D01*
X137272150Y-93607850D01*
X137413393Y-93702225D01*
X137580000Y-93735365D01*
X138180000Y-93735365D01*
X138346607Y-93702225D01*
X138487850Y-93607850D01*
X138515000Y-93567217D01*
X138542150Y-93607850D01*
X138683393Y-93702225D01*
X138850000Y-93735365D01*
X139450000Y-93735365D01*
X139616607Y-93702225D01*
X139757850Y-93607850D01*
X139785000Y-93567217D01*
X139812150Y-93607850D01*
X139930133Y-93686683D01*
X139933115Y-93701675D01*
X140047355Y-93872645D01*
X140547355Y-94372645D01*
X140718326Y-94486885D01*
X140920000Y-94527000D01*
X140981710Y-94527000D01*
X142727355Y-96272645D01*
X142898326Y-96386885D01*
X143100000Y-96427000D01*
X149300000Y-96427000D01*
X149501675Y-96386885D01*
X149672645Y-96272645D01*
X150972646Y-94972645D01*
X151086885Y-94801674D01*
X151127000Y-94600000D01*
X151127000Y-94372290D01*
X151527354Y-94772645D01*
X151620428Y-94834835D01*
X151698326Y-94886885D01*
X151900000Y-94927000D01*
X152073000Y-94927000D01*
X152073000Y-98155975D01*
X152113115Y-98357650D01*
X152227355Y-98528620D01*
X152307458Y-98608724D01*
X152307394Y-98682309D01*
X151885715Y-98682309D01*
X151684041Y-98722424D01*
X151648298Y-98746307D01*
X151513069Y-98836664D01*
X150827355Y-99522379D01*
X150749648Y-99638675D01*
X150736993Y-99608124D01*
X150616876Y-99488007D01*
X150459936Y-99423000D01*
X150129750Y-99423000D01*
X150023000Y-99529750D01*
X150023000Y-100227000D01*
X150043000Y-100227000D01*
X150043000Y-100273000D01*
X150023000Y-100273000D01*
X150023000Y-100293000D01*
X149977000Y-100293000D01*
X149977000Y-100273000D01*
X149304750Y-100273000D01*
X149198000Y-100379750D01*
X149198000Y-100734935D01*
X149249844Y-100860097D01*
X149174113Y-100828651D01*
X148827408Y-100828349D01*
X148775365Y-100849853D01*
X148775365Y-100700000D01*
X148742225Y-100533393D01*
X148647850Y-100392150D01*
X148506607Y-100297775D01*
X148340000Y-100264635D01*
X147740000Y-100264635D01*
X147573393Y-100297775D01*
X147432150Y-100392150D01*
X147405000Y-100432783D01*
X147377850Y-100392150D01*
X147236607Y-100297775D01*
X147070000Y-100264635D01*
X146470000Y-100264635D01*
X146303393Y-100297775D01*
X146162150Y-100392150D01*
X146135000Y-100432783D01*
X146107850Y-100392150D01*
X145966607Y-100297775D01*
X145800000Y-100264635D01*
X145200000Y-100264635D01*
X145033393Y-100297775D01*
X144892150Y-100392150D01*
X144865000Y-100432783D01*
X144837850Y-100392150D01*
X144696607Y-100297775D01*
X144530000Y-100264635D01*
X143930000Y-100264635D01*
X143763393Y-100297775D01*
X143622150Y-100392150D01*
X143595000Y-100432783D01*
X143567850Y-100392150D01*
X143426607Y-100297775D01*
X143260000Y-100264635D01*
X142660000Y-100264635D01*
X142493393Y-100297775D01*
X142352150Y-100392150D01*
X142325000Y-100432783D01*
X142297850Y-100392150D01*
X142156607Y-100297775D01*
X141990000Y-100264635D01*
X141390000Y-100264635D01*
X141223393Y-100297775D01*
X141082150Y-100392150D01*
X141055000Y-100432783D01*
X141027850Y-100392150D01*
X140965625Y-100350573D01*
X140993020Y-100339253D01*
X141238391Y-100094310D01*
X141371349Y-99774113D01*
X141371356Y-99765065D01*
X149198000Y-99765065D01*
X149198000Y-100120250D01*
X149304750Y-100227000D01*
X149977000Y-100227000D01*
X149977000Y-99529750D01*
X149870250Y-99423000D01*
X149540064Y-99423000D01*
X149383124Y-99488007D01*
X149263007Y-99608124D01*
X149198000Y-99765065D01*
X141371356Y-99765065D01*
X141371651Y-99427408D01*
X141239253Y-99106980D01*
X140994310Y-98861609D01*
X140674113Y-98728651D01*
X140327408Y-98728349D01*
X140006980Y-98860747D01*
X139761609Y-99105690D01*
X139628651Y-99425887D01*
X139628349Y-99772592D01*
X139760747Y-100093020D01*
X139893000Y-100225504D01*
X139893000Y-100338128D01*
X139812150Y-100392150D01*
X139785000Y-100432783D01*
X139757850Y-100392150D01*
X139616607Y-100297775D01*
X139450000Y-100264635D01*
X138850000Y-100264635D01*
X138683393Y-100297775D01*
X138542150Y-100392150D01*
X138515000Y-100432783D01*
X138487850Y-100392150D01*
X138346607Y-100297775D01*
X138180000Y-100264635D01*
X137580000Y-100264635D01*
X137413393Y-100297775D01*
X137272150Y-100392150D01*
X137245000Y-100432783D01*
X137217850Y-100392150D01*
X137076607Y-100297775D01*
X136910000Y-100264635D01*
X136310000Y-100264635D01*
X136143393Y-100297775D01*
X136002150Y-100392150D01*
X135975000Y-100432783D01*
X135947850Y-100392150D01*
X135806607Y-100297775D01*
X135640000Y-100264635D01*
X135040000Y-100264635D01*
X134873393Y-100297775D01*
X134732150Y-100392150D01*
X134705000Y-100432783D01*
X134677850Y-100392150D01*
X134536607Y-100297775D01*
X134370000Y-100264635D01*
X133770000Y-100264635D01*
X133603393Y-100297775D01*
X133462150Y-100392150D01*
X133367775Y-100533393D01*
X133334635Y-100700000D01*
X133334635Y-102700000D01*
X133367775Y-102866607D01*
X133462150Y-103007850D01*
X133543000Y-103061872D01*
X133543000Y-104184472D01*
X132927000Y-103568472D01*
X132927000Y-98526040D01*
X132886885Y-98324366D01*
X132772645Y-98153395D01*
X128524605Y-93905355D01*
X128387325Y-93813626D01*
X128387325Y-93678560D01*
X128354185Y-93511953D01*
X128259810Y-93370710D01*
X128118567Y-93276335D01*
X127951960Y-93243195D01*
X127332157Y-93243195D01*
X127377000Y-93134936D01*
X127377000Y-92729750D01*
X127270250Y-92623000D01*
X126723000Y-92623000D01*
X126723000Y-92643000D01*
X126677000Y-92643000D01*
X126677000Y-92623000D01*
X126129750Y-92623000D01*
X126023000Y-92729750D01*
X126023000Y-93134936D01*
X126088007Y-93291876D01*
X126208124Y-93411993D01*
X126365065Y-93477000D01*
X126374210Y-93477000D01*
X126350855Y-93511953D01*
X126317715Y-93678560D01*
X126317715Y-94877440D01*
X126350855Y-95044047D01*
X126445230Y-95185290D01*
X126586473Y-95279665D01*
X126753080Y-95312805D01*
X127951960Y-95312805D01*
X128118567Y-95279665D01*
X128259810Y-95185290D01*
X128281499Y-95152829D01*
X129657306Y-96528636D01*
X129515225Y-96528513D01*
X128980356Y-95993644D01*
X128880616Y-95927000D01*
X128776943Y-95857728D01*
X128537000Y-95810000D01*
X128381843Y-95810000D01*
X128354185Y-95670953D01*
X128259810Y-95529710D01*
X128118567Y-95435335D01*
X127951960Y-95402195D01*
X126753080Y-95402195D01*
X126586473Y-95435335D01*
X126445230Y-95529710D01*
X126350855Y-95670953D01*
X126317715Y-95837560D01*
X126317715Y-97036440D01*
X126350855Y-97203047D01*
X126375216Y-97239506D01*
X126258124Y-97288007D01*
X126138007Y-97408124D01*
X126073000Y-97565064D01*
X126073000Y-97970250D01*
X126179750Y-98077000D01*
X126727000Y-98077000D01*
X126727000Y-98057000D01*
X126773000Y-98057000D01*
X126773000Y-98077000D01*
X127320250Y-98077000D01*
X127427000Y-97970250D01*
X127427000Y-97565064D01*
X127388371Y-97471805D01*
X127951960Y-97471805D01*
X128118567Y-97438665D01*
X128259810Y-97344290D01*
X128354185Y-97203047D01*
X128364496Y-97151208D01*
X128628486Y-97415198D01*
X128628349Y-97572592D01*
X128760747Y-97893020D01*
X129005690Y-98138391D01*
X129325887Y-98271349D01*
X129672592Y-98271651D01*
X129993020Y-98139253D01*
X130238391Y-97894310D01*
X130371349Y-97574113D01*
X130371637Y-97242967D01*
X131873000Y-98744330D01*
X131873000Y-103786762D01*
X131913115Y-103988437D01*
X132027355Y-104159407D01*
X132340948Y-104473000D01*
X129278463Y-104473000D01*
X129257850Y-104442150D01*
X129116607Y-104347775D01*
X128950000Y-104314635D01*
X128050000Y-104314635D01*
X127883393Y-104347775D01*
X127875573Y-104353000D01*
X126850906Y-104353000D01*
X126593262Y-103967408D01*
X126174561Y-103687641D01*
X125680670Y-103589400D01*
X125319330Y-103589400D01*
X124825439Y-103687641D01*
X124406738Y-103967408D01*
X124126971Y-104386109D01*
X124117500Y-104433723D01*
X124117500Y-95837560D01*
X124219675Y-95837560D01*
X124219675Y-97036440D01*
X124252815Y-97203047D01*
X124347190Y-97344290D01*
X124488433Y-97438665D01*
X124611328Y-97463110D01*
X124597775Y-97483393D01*
X124564635Y-97650000D01*
X124564635Y-98550000D01*
X124597775Y-98716607D01*
X124692150Y-98857850D01*
X124833393Y-98952225D01*
X125000000Y-98985365D01*
X125500000Y-98985365D01*
X125666607Y-98952225D01*
X125807850Y-98857850D01*
X125902225Y-98716607D01*
X125935365Y-98550000D01*
X125935365Y-98229750D01*
X126073000Y-98229750D01*
X126073000Y-98634936D01*
X126138007Y-98791876D01*
X126258124Y-98911993D01*
X126415065Y-98977000D01*
X126620250Y-98977000D01*
X126727000Y-98870250D01*
X126727000Y-98123000D01*
X126773000Y-98123000D01*
X126773000Y-98870250D01*
X126879750Y-98977000D01*
X127084935Y-98977000D01*
X127241876Y-98911993D01*
X127361993Y-98791876D01*
X127427000Y-98634936D01*
X127427000Y-98229750D01*
X127320250Y-98123000D01*
X126773000Y-98123000D01*
X126727000Y-98123000D01*
X126179750Y-98123000D01*
X126073000Y-98229750D01*
X125935365Y-98229750D01*
X125935365Y-97650000D01*
X125902225Y-97483393D01*
X125889724Y-97464683D01*
X126020527Y-97438665D01*
X126161770Y-97344290D01*
X126256145Y-97203047D01*
X126289285Y-97036440D01*
X126289285Y-95837560D01*
X126256145Y-95670953D01*
X126161770Y-95529710D01*
X126020527Y-95435335D01*
X125853920Y-95402195D01*
X124655040Y-95402195D01*
X124488433Y-95435335D01*
X124347190Y-95529710D01*
X124252815Y-95670953D01*
X124219675Y-95837560D01*
X124117500Y-95837560D01*
X124117500Y-93678560D01*
X124219675Y-93678560D01*
X124219675Y-94877440D01*
X124252815Y-95044047D01*
X124347190Y-95185290D01*
X124488433Y-95279665D01*
X124655040Y-95312805D01*
X125853920Y-95312805D01*
X126020527Y-95279665D01*
X126161770Y-95185290D01*
X126256145Y-95044047D01*
X126289285Y-94877440D01*
X126289285Y-93678560D01*
X126256145Y-93511953D01*
X126161770Y-93370710D01*
X126020527Y-93276335D01*
X125853920Y-93243195D01*
X125834460Y-93243195D01*
X125852225Y-93216607D01*
X125885365Y-93050000D01*
X125885365Y-92150000D01*
X125868471Y-92065064D01*
X126023000Y-92065064D01*
X126023000Y-92470250D01*
X126129750Y-92577000D01*
X126677000Y-92577000D01*
X126677000Y-91829750D01*
X126723000Y-91829750D01*
X126723000Y-92577000D01*
X127270250Y-92577000D01*
X127377000Y-92470250D01*
X127377000Y-92429750D01*
X133216000Y-92429750D01*
X133216000Y-93384936D01*
X133281007Y-93541876D01*
X133401124Y-93661993D01*
X133558065Y-93727000D01*
X133813250Y-93727000D01*
X133920000Y-93620250D01*
X133920000Y-92323000D01*
X133322750Y-92323000D01*
X133216000Y-92429750D01*
X127377000Y-92429750D01*
X127377000Y-92065064D01*
X127311993Y-91908124D01*
X127191876Y-91788007D01*
X127034935Y-91723000D01*
X126829750Y-91723000D01*
X126723000Y-91829750D01*
X126677000Y-91829750D01*
X126570250Y-91723000D01*
X126365065Y-91723000D01*
X126208124Y-91788007D01*
X126088007Y-91908124D01*
X126023000Y-92065064D01*
X125868471Y-92065064D01*
X125852225Y-91983393D01*
X125757850Y-91842150D01*
X125616607Y-91747775D01*
X125450000Y-91714635D01*
X124950000Y-91714635D01*
X124783393Y-91747775D01*
X124642150Y-91842150D01*
X124547775Y-91983393D01*
X124514635Y-92150000D01*
X124514635Y-93050000D01*
X124547775Y-93216607D01*
X124576040Y-93258909D01*
X124488433Y-93276335D01*
X124347190Y-93370710D01*
X124252815Y-93511953D01*
X124219675Y-93678560D01*
X124117500Y-93678560D01*
X124117500Y-91215064D01*
X133216000Y-91215064D01*
X133216000Y-92170250D01*
X133322750Y-92277000D01*
X133920000Y-92277000D01*
X133920000Y-90979750D01*
X133813250Y-90873000D01*
X133558065Y-90873000D01*
X133401124Y-90938007D01*
X133281007Y-91058124D01*
X133216000Y-91215064D01*
X124117500Y-91215064D01*
X124117500Y-86549496D01*
X137744905Y-86549496D01*
X137908268Y-86966383D01*
X137932780Y-87003070D01*
X138122459Y-87066814D01*
X138841973Y-86347300D01*
X138122459Y-85627786D01*
X137932780Y-85691530D01*
X137753512Y-86101828D01*
X137744905Y-86549496D01*
X124117500Y-86549496D01*
X124117500Y-84602466D01*
X125315349Y-84602466D01*
X125623322Y-85347816D01*
X126193084Y-85918574D01*
X126937896Y-86227847D01*
X127744366Y-86228551D01*
X128489716Y-85920578D01*
X129060474Y-85350816D01*
X129369747Y-84606004D01*
X129370451Y-83799534D01*
X129062478Y-83054184D01*
X128815467Y-82806741D01*
X138154986Y-82806741D01*
X138218730Y-82996420D01*
X138629028Y-83175688D01*
X139076696Y-83184295D01*
X139493583Y-83020932D01*
X139530270Y-82996420D01*
X139594014Y-82806741D01*
X140313986Y-82806741D01*
X140377730Y-82996420D01*
X140788028Y-83175688D01*
X141235696Y-83184295D01*
X141652583Y-83020932D01*
X141689270Y-82996420D01*
X141753014Y-82806741D01*
X141033500Y-82087227D01*
X140313986Y-82806741D01*
X139594014Y-82806741D01*
X138874500Y-82087227D01*
X138154986Y-82806741D01*
X128815467Y-82806741D01*
X128492716Y-82483426D01*
X127947172Y-82256896D01*
X137744905Y-82256896D01*
X137908268Y-82673783D01*
X137932780Y-82710470D01*
X138122459Y-82774214D01*
X138841973Y-82054700D01*
X138907027Y-82054700D01*
X139626541Y-82774214D01*
X139816220Y-82710470D01*
X139956147Y-82390213D01*
X140067268Y-82673783D01*
X140091780Y-82710470D01*
X140281459Y-82774214D01*
X141000973Y-82054700D01*
X141066027Y-82054700D01*
X141785541Y-82774214D01*
X141975220Y-82710470D01*
X142115147Y-82390213D01*
X142226268Y-82673783D01*
X142250780Y-82710470D01*
X142440459Y-82774214D01*
X143159973Y-82054700D01*
X142440459Y-81335186D01*
X142250780Y-81398930D01*
X142110853Y-81719187D01*
X141999732Y-81435617D01*
X141975220Y-81398930D01*
X141785541Y-81335186D01*
X141066027Y-82054700D01*
X141000973Y-82054700D01*
X140281459Y-81335186D01*
X140091780Y-81398930D01*
X139951853Y-81719187D01*
X139840732Y-81435617D01*
X139816220Y-81398930D01*
X139626541Y-81335186D01*
X138907027Y-82054700D01*
X138841973Y-82054700D01*
X138122459Y-81335186D01*
X137932780Y-81398930D01*
X137753512Y-81809228D01*
X137744905Y-82256896D01*
X127947172Y-82256896D01*
X127747904Y-82174153D01*
X126941434Y-82173449D01*
X126196084Y-82481422D01*
X125625326Y-83051184D01*
X125316053Y-83795996D01*
X125315349Y-84602466D01*
X124117500Y-84602466D01*
X124117500Y-81302659D01*
X138154986Y-81302659D01*
X138874500Y-82022173D01*
X139594014Y-81302659D01*
X140313986Y-81302659D01*
X141033500Y-82022173D01*
X141753014Y-81302659D01*
X141689270Y-81112980D01*
X141278972Y-80933712D01*
X140831304Y-80925105D01*
X140414417Y-81088468D01*
X140377730Y-81112980D01*
X140313986Y-81302659D01*
X139594014Y-81302659D01*
X139530270Y-81112980D01*
X139119972Y-80933712D01*
X138672304Y-80925105D01*
X138255417Y-81088468D01*
X138218730Y-81112980D01*
X138154986Y-81302659D01*
X124117500Y-81302659D01*
X124117500Y-74117500D01*
X177382500Y-74117500D01*
X177382500Y-117382500D01*
G36*
X145703644Y-112643356D02*
X145907057Y-112779272D01*
X146147000Y-112827000D01*
X148028389Y-112827000D01*
X148028349Y-112872592D01*
X148160747Y-113193020D01*
X148405690Y-113438391D01*
X148725887Y-113571349D01*
X149072592Y-113571651D01*
X149393020Y-113439253D01*
X149638391Y-113194310D01*
X149771349Y-112874113D01*
X149771573Y-112616863D01*
X150838440Y-113683730D01*
X150662470Y-113756439D01*
X150608434Y-113810380D01*
X150560801Y-113762664D01*
X150240604Y-113629706D01*
X149893899Y-113629404D01*
X149573471Y-113761802D01*
X149328100Y-114006745D01*
X149195142Y-114326942D01*
X149194840Y-114673647D01*
X149327238Y-114994075D01*
X149402426Y-115069395D01*
X149400050Y-115070983D01*
X149369807Y-115050775D01*
X149203200Y-115017635D01*
X148796800Y-115017635D01*
X148630193Y-115050775D01*
X148599950Y-115070983D01*
X148569707Y-115050775D01*
X148403100Y-115017635D01*
X147996700Y-115017635D01*
X147830093Y-115050775D01*
X147798581Y-115071831D01*
X147687935Y-115026000D01*
X147529550Y-115026000D01*
X147422800Y-115132750D01*
X147422800Y-116192000D01*
X147442800Y-116192000D01*
X147442800Y-116238000D01*
X147422800Y-116238000D01*
X147422800Y-116258000D01*
X147376800Y-116258000D01*
X147376800Y-116238000D01*
X146622700Y-116238000D01*
X146622700Y-116258000D01*
X146576700Y-116258000D01*
X146576700Y-116238000D01*
X145822600Y-116238000D01*
X145822600Y-116258000D01*
X145776600Y-116258000D01*
X145776600Y-116238000D01*
X145756600Y-116238000D01*
X145756600Y-116192000D01*
X145776600Y-116192000D01*
X145776600Y-115132750D01*
X145822600Y-115132750D01*
X145822600Y-116192000D01*
X146576700Y-116192000D01*
X146576700Y-115132750D01*
X146622700Y-115132750D01*
X146622700Y-116192000D01*
X147376800Y-116192000D01*
X147376800Y-115132750D01*
X147270050Y-115026000D01*
X147111665Y-115026000D01*
X146999750Y-115072357D01*
X146887835Y-115026000D01*
X146729450Y-115026000D01*
X146622700Y-115132750D01*
X146576700Y-115132750D01*
X146469950Y-115026000D01*
X146311565Y-115026000D01*
X146199650Y-115072357D01*
X146087735Y-115026000D01*
X145929350Y-115026000D01*
X145822600Y-115132750D01*
X145776600Y-115132750D01*
X145669850Y-115026000D01*
X145511465Y-115026000D01*
X145400819Y-115071831D01*
X145369307Y-115050775D01*
X145202700Y-115017635D01*
X144796300Y-115017635D01*
X144629693Y-115050775D01*
X144488450Y-115145150D01*
X144394075Y-115286393D01*
X144360935Y-115453000D01*
X144360935Y-116977000D01*
X144394075Y-117143607D01*
X144488450Y-117284850D01*
X144629693Y-117379225D01*
X144646158Y-117382500D01*
X141635365Y-117382500D01*
X141635365Y-115600000D01*
X141602225Y-115433393D01*
X141507850Y-115292150D01*
X141366607Y-115197775D01*
X141200000Y-115164635D01*
X140803955Y-115164635D01*
X142096000Y-113872590D01*
X142096000Y-113988536D01*
X142141831Y-114099181D01*
X142120775Y-114130693D01*
X142087635Y-114297300D01*
X142087635Y-114703700D01*
X142120775Y-114870307D01*
X142215150Y-115011550D01*
X142356393Y-115105925D01*
X142523000Y-115139065D01*
X144047000Y-115139065D01*
X144213607Y-115105925D01*
X144354850Y-115011550D01*
X144449225Y-114870307D01*
X144482365Y-114703700D01*
X144482365Y-114297300D01*
X144449225Y-114130693D01*
X144428169Y-114099181D01*
X144474000Y-113988536D01*
X144474000Y-113830150D01*
X144367250Y-113723400D01*
X143308000Y-113723400D01*
X143308000Y-113743400D01*
X143262000Y-113743400D01*
X143262000Y-113723400D01*
X143242000Y-113723400D01*
X143242000Y-113677400D01*
X143262000Y-113677400D01*
X143262000Y-113657400D01*
X143308000Y-113657400D01*
X143308000Y-113677400D01*
X144367250Y-113677400D01*
X144474000Y-113570650D01*
X144474000Y-113412264D01*
X144428169Y-113301619D01*
X144449225Y-113270107D01*
X144482365Y-113103500D01*
X144482365Y-112697100D01*
X144449225Y-112530493D01*
X144429017Y-112500250D01*
X144449225Y-112470007D01*
X144482365Y-112303400D01*
X144482365Y-111897000D01*
X144449225Y-111730393D01*
X144428169Y-111698881D01*
X144474000Y-111588236D01*
X144474000Y-111429850D01*
X144367252Y-111323102D01*
X144383390Y-111323102D01*
X145703644Y-112643356D01*
X145703644Y-112643356D01*
G37*
X145703644Y-112643356D02*
X145907057Y-112779272D01*
X146147000Y-112827000D01*
X148028389Y-112827000D01*
X148028349Y-112872592D01*
X148160747Y-113193020D01*
X148405690Y-113438391D01*
X148725887Y-113571349D01*
X149072592Y-113571651D01*
X149393020Y-113439253D01*
X149638391Y-113194310D01*
X149771349Y-112874113D01*
X149771573Y-112616863D01*
X150838440Y-113683730D01*
X150662470Y-113756439D01*
X150608434Y-113810380D01*
X150560801Y-113762664D01*
X150240604Y-113629706D01*
X149893899Y-113629404D01*
X149573471Y-113761802D01*
X149328100Y-114006745D01*
X149195142Y-114326942D01*
X149194840Y-114673647D01*
X149327238Y-114994075D01*
X149402426Y-115069395D01*
X149400050Y-115070983D01*
X149369807Y-115050775D01*
X149203200Y-115017635D01*
X148796800Y-115017635D01*
X148630193Y-115050775D01*
X148599950Y-115070983D01*
X148569707Y-115050775D01*
X148403100Y-115017635D01*
X147996700Y-115017635D01*
X147830093Y-115050775D01*
X147798581Y-115071831D01*
X147687935Y-115026000D01*
X147529550Y-115026000D01*
X147422800Y-115132750D01*
X147422800Y-116192000D01*
X147442800Y-116192000D01*
X147442800Y-116238000D01*
X147422800Y-116238000D01*
X147422800Y-116258000D01*
X147376800Y-116258000D01*
X147376800Y-116238000D01*
X146622700Y-116238000D01*
X146622700Y-116258000D01*
X146576700Y-116258000D01*
X146576700Y-116238000D01*
X145822600Y-116238000D01*
X145822600Y-116258000D01*
X145776600Y-116258000D01*
X145776600Y-116238000D01*
X145756600Y-116238000D01*
X145756600Y-116192000D01*
X145776600Y-116192000D01*
X145776600Y-115132750D01*
X145822600Y-115132750D01*
X145822600Y-116192000D01*
X146576700Y-116192000D01*
X146576700Y-115132750D01*
X146622700Y-115132750D01*
X146622700Y-116192000D01*
X147376800Y-116192000D01*
X147376800Y-115132750D01*
X147270050Y-115026000D01*
X147111665Y-115026000D01*
X146999750Y-115072357D01*
X146887835Y-115026000D01*
X146729450Y-115026000D01*
X146622700Y-115132750D01*
X146576700Y-115132750D01*
X146469950Y-115026000D01*
X146311565Y-115026000D01*
X146199650Y-115072357D01*
X146087735Y-115026000D01*
X145929350Y-115026000D01*
X145822600Y-115132750D01*
X145776600Y-115132750D01*
X145669850Y-115026000D01*
X145511465Y-115026000D01*
X145400819Y-115071831D01*
X145369307Y-115050775D01*
X145202700Y-115017635D01*
X144796300Y-115017635D01*
X144629693Y-115050775D01*
X144488450Y-115145150D01*
X144394075Y-115286393D01*
X144360935Y-115453000D01*
X144360935Y-116977000D01*
X144394075Y-117143607D01*
X144488450Y-117284850D01*
X144629693Y-117379225D01*
X144646158Y-117382500D01*
X141635365Y-117382500D01*
X141635365Y-115600000D01*
X141602225Y-115433393D01*
X141507850Y-115292150D01*
X141366607Y-115197775D01*
X141200000Y-115164635D01*
X140803955Y-115164635D01*
X142096000Y-113872590D01*
X142096000Y-113988536D01*
X142141831Y-114099181D01*
X142120775Y-114130693D01*
X142087635Y-114297300D01*
X142087635Y-114703700D01*
X142120775Y-114870307D01*
X142215150Y-115011550D01*
X142356393Y-115105925D01*
X142523000Y-115139065D01*
X144047000Y-115139065D01*
X144213607Y-115105925D01*
X144354850Y-115011550D01*
X144449225Y-114870307D01*
X144482365Y-114703700D01*
X144482365Y-114297300D01*
X144449225Y-114130693D01*
X144428169Y-114099181D01*
X144474000Y-113988536D01*
X144474000Y-113830150D01*
X144367250Y-113723400D01*
X143308000Y-113723400D01*
X143308000Y-113743400D01*
X143262000Y-113743400D01*
X143262000Y-113723400D01*
X143242000Y-113723400D01*
X143242000Y-113677400D01*
X143262000Y-113677400D01*
X143262000Y-113657400D01*
X143308000Y-113657400D01*
X143308000Y-113677400D01*
X144367250Y-113677400D01*
X144474000Y-113570650D01*
X144474000Y-113412264D01*
X144428169Y-113301619D01*
X144449225Y-113270107D01*
X144482365Y-113103500D01*
X144482365Y-112697100D01*
X144449225Y-112530493D01*
X144429017Y-112500250D01*
X144449225Y-112470007D01*
X144482365Y-112303400D01*
X144482365Y-111897000D01*
X144449225Y-111730393D01*
X144428169Y-111698881D01*
X144474000Y-111588236D01*
X144474000Y-111429850D01*
X144367252Y-111323102D01*
X144383390Y-111323102D01*
X145703644Y-112643356D01*
G36*
X142099710Y-108472346D02*
X142140902Y-108499870D01*
X142120775Y-108529993D01*
X142087635Y-108696600D01*
X142087635Y-109103000D01*
X142120775Y-109269607D01*
X142140983Y-109299850D01*
X142120775Y-109330093D01*
X142087635Y-109496700D01*
X142087635Y-109873000D01*
X141745168Y-109873000D01*
X141707850Y-109817150D01*
X141566607Y-109722775D01*
X141400000Y-109689635D01*
X140600000Y-109689635D01*
X140433393Y-109722775D01*
X140292150Y-109817150D01*
X140253645Y-109874776D01*
X140141876Y-109763007D01*
X139984935Y-109698000D01*
X139629750Y-109698000D01*
X139523000Y-109804750D01*
X139523000Y-110477000D01*
X139543000Y-110477000D01*
X139543000Y-110523000D01*
X139523000Y-110523000D01*
X139523000Y-110543000D01*
X139477000Y-110543000D01*
X139477000Y-110523000D01*
X138779750Y-110523000D01*
X138673000Y-110629750D01*
X138673000Y-110959936D01*
X138722734Y-111080004D01*
X138633393Y-111097775D01*
X138492150Y-111192150D01*
X138397775Y-111333393D01*
X138364635Y-111500000D01*
X138364635Y-111894344D01*
X138147645Y-111677355D01*
X137995598Y-111575759D01*
X137977225Y-111483393D01*
X137882850Y-111342150D01*
X137741607Y-111247775D01*
X137575000Y-111214635D01*
X136825000Y-111214635D01*
X136658393Y-111247775D01*
X136517150Y-111342150D01*
X136422775Y-111483393D01*
X136389635Y-111650000D01*
X136389635Y-112450000D01*
X136422775Y-112616607D01*
X136517150Y-112757850D01*
X136574776Y-112796355D01*
X136463007Y-112908124D01*
X136398000Y-113065065D01*
X136398000Y-113420250D01*
X136504750Y-113527000D01*
X137177000Y-113527000D01*
X137177000Y-113507000D01*
X137223000Y-113507000D01*
X137223000Y-113527000D01*
X137895250Y-113527000D01*
X138002000Y-113420250D01*
X138002000Y-113065065D01*
X137939561Y-112914324D01*
X137973326Y-112936885D01*
X138175000Y-112977000D01*
X138364635Y-112977000D01*
X138364635Y-113400000D01*
X138397775Y-113566607D01*
X138492150Y-113707850D01*
X138633393Y-113802225D01*
X138800000Y-113835365D01*
X140642645Y-113835365D01*
X139627355Y-114850655D01*
X139513115Y-115021625D01*
X139499314Y-115091007D01*
X139484669Y-115164635D01*
X138800000Y-115164635D01*
X138633393Y-115197775D01*
X138492150Y-115292150D01*
X138397775Y-115433393D01*
X138364635Y-115600000D01*
X138364635Y-116523000D01*
X137985103Y-116523000D01*
X137977225Y-116483393D01*
X137882850Y-116342150D01*
X137825224Y-116303645D01*
X137936993Y-116191876D01*
X138002000Y-116034935D01*
X138002000Y-115679750D01*
X137895250Y-115573000D01*
X137223000Y-115573000D01*
X137223000Y-115593000D01*
X137177000Y-115593000D01*
X137177000Y-115573000D01*
X136504750Y-115573000D01*
X136398000Y-115679750D01*
X136398000Y-116034935D01*
X136463007Y-116191876D01*
X136574776Y-116303645D01*
X136517150Y-116342150D01*
X136422775Y-116483393D01*
X136389635Y-116650000D01*
X136389635Y-117382500D01*
X124117500Y-117382500D01*
X124117500Y-116134595D01*
X124122007Y-116145476D01*
X124242124Y-116265593D01*
X124399065Y-116330600D01*
X125370250Y-116330600D01*
X125477000Y-116223850D01*
X125477000Y-115063000D01*
X125523000Y-115063000D01*
X125523000Y-116223850D01*
X125629750Y-116330600D01*
X126600935Y-116330600D01*
X126757876Y-116265593D01*
X126877993Y-116145476D01*
X126943000Y-115988536D01*
X126943000Y-115169750D01*
X126838315Y-115065065D01*
X136398000Y-115065065D01*
X136398000Y-115420250D01*
X136504750Y-115527000D01*
X137177000Y-115527000D01*
X137177000Y-114829750D01*
X137223000Y-114829750D01*
X137223000Y-115527000D01*
X137895250Y-115527000D01*
X138002000Y-115420250D01*
X138002000Y-115065065D01*
X137936993Y-114908124D01*
X137816876Y-114788007D01*
X137659936Y-114723000D01*
X137329750Y-114723000D01*
X137223000Y-114829750D01*
X137177000Y-114829750D01*
X137070250Y-114723000D01*
X136740064Y-114723000D01*
X136583124Y-114788007D01*
X136463007Y-114908124D01*
X136398000Y-115065065D01*
X126838315Y-115065065D01*
X126836250Y-115063000D01*
X125523000Y-115063000D01*
X125477000Y-115063000D01*
X125457000Y-115063000D01*
X125457000Y-115017000D01*
X125477000Y-115017000D01*
X125477000Y-114997000D01*
X125523000Y-114997000D01*
X125523000Y-115017000D01*
X126836250Y-115017000D01*
X126943000Y-114910250D01*
X126943000Y-114091464D01*
X126877993Y-113934524D01*
X126757876Y-113814407D01*
X126600935Y-113749400D01*
X125887796Y-113749400D01*
X126174561Y-113692359D01*
X126193431Y-113679750D01*
X136398000Y-113679750D01*
X136398000Y-114034935D01*
X136463007Y-114191876D01*
X136583124Y-114311993D01*
X136740064Y-114377000D01*
X137070250Y-114377000D01*
X137177000Y-114270250D01*
X137177000Y-113573000D01*
X137223000Y-113573000D01*
X137223000Y-114270250D01*
X137329750Y-114377000D01*
X137659936Y-114377000D01*
X137816876Y-114311993D01*
X137936993Y-114191876D01*
X138002000Y-114034935D01*
X138002000Y-113679750D01*
X137895250Y-113573000D01*
X137223000Y-113573000D01*
X137177000Y-113573000D01*
X136504750Y-113573000D01*
X136398000Y-113679750D01*
X126193431Y-113679750D01*
X126593262Y-113412592D01*
X126873029Y-112993891D01*
X126971270Y-112500000D01*
X126876107Y-112021583D01*
X128970690Y-109927000D01*
X132945640Y-109927000D01*
X133904315Y-110885675D01*
X133904055Y-111184368D01*
X134036453Y-111504796D01*
X134281396Y-111750167D01*
X134601593Y-111883125D01*
X134948298Y-111883427D01*
X135268726Y-111751029D01*
X135514097Y-111506086D01*
X135647055Y-111185889D01*
X135647357Y-110839184D01*
X135527193Y-110548365D01*
X135825567Y-110548625D01*
X136145995Y-110416227D01*
X136391366Y-110171284D01*
X136445853Y-110040064D01*
X138673000Y-110040064D01*
X138673000Y-110370250D01*
X138779750Y-110477000D01*
X139477000Y-110477000D01*
X139477000Y-109804750D01*
X139370250Y-109698000D01*
X139015065Y-109698000D01*
X138858124Y-109763007D01*
X138738007Y-109883124D01*
X138673000Y-110040064D01*
X136445853Y-110040064D01*
X136474948Y-109969998D01*
X136748288Y-109970236D01*
X137068716Y-109837838D01*
X137314087Y-109592895D01*
X137447045Y-109272698D01*
X137447259Y-109027001D01*
X137569904Y-109027108D01*
X137890332Y-108894710D01*
X138135703Y-108649767D01*
X138138289Y-108643540D01*
X138267349Y-108772601D01*
X138349384Y-108827415D01*
X138438321Y-108886841D01*
X138639995Y-108926956D01*
X140381727Y-108926956D01*
X140583402Y-108886841D01*
X140754372Y-108772601D01*
X140900136Y-108626837D01*
X141198829Y-108627097D01*
X141519257Y-108494699D01*
X141764628Y-108249756D01*
X141797634Y-108170270D01*
X142099710Y-108472346D01*
X142099710Y-108472346D01*
G37*
X142099710Y-108472346D02*
X142140902Y-108499870D01*
X142120775Y-108529993D01*
X142087635Y-108696600D01*
X142087635Y-109103000D01*
X142120775Y-109269607D01*
X142140983Y-109299850D01*
X142120775Y-109330093D01*
X142087635Y-109496700D01*
X142087635Y-109873000D01*
X141745168Y-109873000D01*
X141707850Y-109817150D01*
X141566607Y-109722775D01*
X141400000Y-109689635D01*
X140600000Y-109689635D01*
X140433393Y-109722775D01*
X140292150Y-109817150D01*
X140253645Y-109874776D01*
X140141876Y-109763007D01*
X139984935Y-109698000D01*
X139629750Y-109698000D01*
X139523000Y-109804750D01*
X139523000Y-110477000D01*
X139543000Y-110477000D01*
X139543000Y-110523000D01*
X139523000Y-110523000D01*
X139523000Y-110543000D01*
X139477000Y-110543000D01*
X139477000Y-110523000D01*
X138779750Y-110523000D01*
X138673000Y-110629750D01*
X138673000Y-110959936D01*
X138722734Y-111080004D01*
X138633393Y-111097775D01*
X138492150Y-111192150D01*
X138397775Y-111333393D01*
X138364635Y-111500000D01*
X138364635Y-111894344D01*
X138147645Y-111677355D01*
X137995598Y-111575759D01*
X137977225Y-111483393D01*
X137882850Y-111342150D01*
X137741607Y-111247775D01*
X137575000Y-111214635D01*
X136825000Y-111214635D01*
X136658393Y-111247775D01*
X136517150Y-111342150D01*
X136422775Y-111483393D01*
X136389635Y-111650000D01*
X136389635Y-112450000D01*
X136422775Y-112616607D01*
X136517150Y-112757850D01*
X136574776Y-112796355D01*
X136463007Y-112908124D01*
X136398000Y-113065065D01*
X136398000Y-113420250D01*
X136504750Y-113527000D01*
X137177000Y-113527000D01*
X137177000Y-113507000D01*
X137223000Y-113507000D01*
X137223000Y-113527000D01*
X137895250Y-113527000D01*
X138002000Y-113420250D01*
X138002000Y-113065065D01*
X137939561Y-112914324D01*
X137973326Y-112936885D01*
X138175000Y-112977000D01*
X138364635Y-112977000D01*
X138364635Y-113400000D01*
X138397775Y-113566607D01*
X138492150Y-113707850D01*
X138633393Y-113802225D01*
X138800000Y-113835365D01*
X140642645Y-113835365D01*
X139627355Y-114850655D01*
X139513115Y-115021625D01*
X139499314Y-115091007D01*
X139484669Y-115164635D01*
X138800000Y-115164635D01*
X138633393Y-115197775D01*
X138492150Y-115292150D01*
X138397775Y-115433393D01*
X138364635Y-115600000D01*
X138364635Y-116523000D01*
X137985103Y-116523000D01*
X137977225Y-116483393D01*
X137882850Y-116342150D01*
X137825224Y-116303645D01*
X137936993Y-116191876D01*
X138002000Y-116034935D01*
X138002000Y-115679750D01*
X137895250Y-115573000D01*
X137223000Y-115573000D01*
X137223000Y-115593000D01*
X137177000Y-115593000D01*
X137177000Y-115573000D01*
X136504750Y-115573000D01*
X136398000Y-115679750D01*
X136398000Y-116034935D01*
X136463007Y-116191876D01*
X136574776Y-116303645D01*
X136517150Y-116342150D01*
X136422775Y-116483393D01*
X136389635Y-116650000D01*
X136389635Y-117382500D01*
X124117500Y-117382500D01*
X124117500Y-116134595D01*
X124122007Y-116145476D01*
X124242124Y-116265593D01*
X124399065Y-116330600D01*
X125370250Y-116330600D01*
X125477000Y-116223850D01*
X125477000Y-115063000D01*
X125523000Y-115063000D01*
X125523000Y-116223850D01*
X125629750Y-116330600D01*
X126600935Y-116330600D01*
X126757876Y-116265593D01*
X126877993Y-116145476D01*
X126943000Y-115988536D01*
X126943000Y-115169750D01*
X126838315Y-115065065D01*
X136398000Y-115065065D01*
X136398000Y-115420250D01*
X136504750Y-115527000D01*
X137177000Y-115527000D01*
X137177000Y-114829750D01*
X137223000Y-114829750D01*
X137223000Y-115527000D01*
X137895250Y-115527000D01*
X138002000Y-115420250D01*
X138002000Y-115065065D01*
X137936993Y-114908124D01*
X137816876Y-114788007D01*
X137659936Y-114723000D01*
X137329750Y-114723000D01*
X137223000Y-114829750D01*
X137177000Y-114829750D01*
X137070250Y-114723000D01*
X136740064Y-114723000D01*
X136583124Y-114788007D01*
X136463007Y-114908124D01*
X136398000Y-115065065D01*
X126838315Y-115065065D01*
X126836250Y-115063000D01*
X125523000Y-115063000D01*
X125477000Y-115063000D01*
X125457000Y-115063000D01*
X125457000Y-115017000D01*
X125477000Y-115017000D01*
X125477000Y-114997000D01*
X125523000Y-114997000D01*
X125523000Y-115017000D01*
X126836250Y-115017000D01*
X126943000Y-114910250D01*
X126943000Y-114091464D01*
X126877993Y-113934524D01*
X126757876Y-113814407D01*
X126600935Y-113749400D01*
X125887796Y-113749400D01*
X126174561Y-113692359D01*
X126193431Y-113679750D01*
X136398000Y-113679750D01*
X136398000Y-114034935D01*
X136463007Y-114191876D01*
X136583124Y-114311993D01*
X136740064Y-114377000D01*
X137070250Y-114377000D01*
X137177000Y-114270250D01*
X137177000Y-113573000D01*
X137223000Y-113573000D01*
X137223000Y-114270250D01*
X137329750Y-114377000D01*
X137659936Y-114377000D01*
X137816876Y-114311993D01*
X137936993Y-114191876D01*
X138002000Y-114034935D01*
X138002000Y-113679750D01*
X137895250Y-113573000D01*
X137223000Y-113573000D01*
X137177000Y-113573000D01*
X136504750Y-113573000D01*
X136398000Y-113679750D01*
X126193431Y-113679750D01*
X126593262Y-113412592D01*
X126873029Y-112993891D01*
X126971270Y-112500000D01*
X126876107Y-112021583D01*
X128970690Y-109927000D01*
X132945640Y-109927000D01*
X133904315Y-110885675D01*
X133904055Y-111184368D01*
X134036453Y-111504796D01*
X134281396Y-111750167D01*
X134601593Y-111883125D01*
X134948298Y-111883427D01*
X135268726Y-111751029D01*
X135514097Y-111506086D01*
X135647055Y-111185889D01*
X135647357Y-110839184D01*
X135527193Y-110548365D01*
X135825567Y-110548625D01*
X136145995Y-110416227D01*
X136391366Y-110171284D01*
X136445853Y-110040064D01*
X138673000Y-110040064D01*
X138673000Y-110370250D01*
X138779750Y-110477000D01*
X139477000Y-110477000D01*
X139477000Y-109804750D01*
X139370250Y-109698000D01*
X139015065Y-109698000D01*
X138858124Y-109763007D01*
X138738007Y-109883124D01*
X138673000Y-110040064D01*
X136445853Y-110040064D01*
X136474948Y-109969998D01*
X136748288Y-109970236D01*
X137068716Y-109837838D01*
X137314087Y-109592895D01*
X137447045Y-109272698D01*
X137447259Y-109027001D01*
X137569904Y-109027108D01*
X137890332Y-108894710D01*
X138135703Y-108649767D01*
X138138289Y-108643540D01*
X138267349Y-108772601D01*
X138349384Y-108827415D01*
X138438321Y-108886841D01*
X138639995Y-108926956D01*
X140381727Y-108926956D01*
X140583402Y-108886841D01*
X140754372Y-108772601D01*
X140900136Y-108626837D01*
X141198829Y-108627097D01*
X141519257Y-108494699D01*
X141764628Y-108249756D01*
X141797634Y-108170270D01*
X142099710Y-108472346D01*
G36*
X142096000Y-111170350D02*
X142202750Y-111277100D01*
X143262000Y-111277100D01*
X143262000Y-111257100D01*
X143308000Y-111257100D01*
X143308000Y-111277100D01*
X143328000Y-111277100D01*
X143328000Y-111323100D01*
X143308000Y-111323100D01*
X143308000Y-111343100D01*
X143262000Y-111343100D01*
X143262000Y-111323100D01*
X142202750Y-111323100D01*
X142096000Y-111429850D01*
X142096000Y-111573200D01*
X141635365Y-111573200D01*
X141635365Y-111500000D01*
X141602225Y-111333393D01*
X141564919Y-111277561D01*
X141566607Y-111277225D01*
X141707850Y-111182850D01*
X141745168Y-111127000D01*
X142096000Y-111127000D01*
X142096000Y-111170350D01*
X142096000Y-111170350D01*
G37*
X142096000Y-111170350D02*
X142202750Y-111277100D01*
X143262000Y-111277100D01*
X143262000Y-111257100D01*
X143308000Y-111257100D01*
X143308000Y-111277100D01*
X143328000Y-111277100D01*
X143328000Y-111323100D01*
X143308000Y-111323100D01*
X143308000Y-111343100D01*
X143262000Y-111343100D01*
X143262000Y-111323100D01*
X142202750Y-111323100D01*
X142096000Y-111429850D01*
X142096000Y-111573200D01*
X141635365Y-111573200D01*
X141635365Y-111500000D01*
X141602225Y-111333393D01*
X141564919Y-111277561D01*
X141566607Y-111277225D01*
X141707850Y-111182850D01*
X141745168Y-111127000D01*
X142096000Y-111127000D01*
X142096000Y-111170350D01*
G36*
X155914635Y-110375000D02*
X155947775Y-110541607D01*
X156042150Y-110682850D01*
X156183393Y-110777225D01*
X156334695Y-110807321D01*
X156171021Y-110874949D01*
X155925650Y-111119892D01*
X155912365Y-111151886D01*
X155912365Y-111096900D01*
X155879225Y-110930293D01*
X155858169Y-110898781D01*
X155904000Y-110788136D01*
X155904000Y-110629750D01*
X155797250Y-110523000D01*
X154738000Y-110523000D01*
X154738000Y-110543000D01*
X154692000Y-110543000D01*
X154692000Y-110523000D01*
X154672000Y-110523000D01*
X154672000Y-110477000D01*
X154692000Y-110477000D01*
X154692000Y-110457000D01*
X154738000Y-110457000D01*
X154738000Y-110477000D01*
X155797250Y-110477000D01*
X155904000Y-110370250D01*
X155904000Y-110326900D01*
X155914635Y-110326900D01*
X155914635Y-110375000D01*
X155914635Y-110375000D01*
G37*
X155914635Y-110375000D02*
X155947775Y-110541607D01*
X156042150Y-110682850D01*
X156183393Y-110777225D01*
X156334695Y-110807321D01*
X156171021Y-110874949D01*
X155925650Y-111119892D01*
X155912365Y-111151886D01*
X155912365Y-111096900D01*
X155879225Y-110930293D01*
X155858169Y-110898781D01*
X155904000Y-110788136D01*
X155904000Y-110629750D01*
X155797250Y-110523000D01*
X154738000Y-110523000D01*
X154738000Y-110543000D01*
X154692000Y-110543000D01*
X154692000Y-110523000D01*
X154672000Y-110523000D01*
X154672000Y-110477000D01*
X154692000Y-110477000D01*
X154692000Y-110457000D01*
X154738000Y-110457000D01*
X154738000Y-110477000D01*
X155797250Y-110477000D01*
X155904000Y-110370250D01*
X155904000Y-110326900D01*
X155914635Y-110326900D01*
X155914635Y-110375000D01*
G36*
X151027655Y-106119645D02*
X151380654Y-106472645D01*
X151494894Y-106548978D01*
X151551626Y-106586885D01*
X151753300Y-106627000D01*
X153400000Y-106627000D01*
X153517635Y-106603601D01*
X153517635Y-106702700D01*
X153550775Y-106869307D01*
X153570983Y-106899550D01*
X153550775Y-106929793D01*
X153517635Y-107096400D01*
X153517635Y-107502800D01*
X153550775Y-107669407D01*
X153570983Y-107699650D01*
X153550775Y-107729893D01*
X153517635Y-107896500D01*
X153517635Y-108302900D01*
X153550775Y-108469507D01*
X153570983Y-108499750D01*
X153550775Y-108529993D01*
X153517635Y-108696600D01*
X153517635Y-109103000D01*
X153550775Y-109269607D01*
X153570983Y-109299850D01*
X153550775Y-109330093D01*
X153517635Y-109496700D01*
X153517635Y-109903100D01*
X153550775Y-110069707D01*
X153571831Y-110101219D01*
X153526000Y-110211864D01*
X153526000Y-110370250D01*
X153632748Y-110476998D01*
X153526000Y-110476998D01*
X153526000Y-110487540D01*
X153452900Y-110473000D01*
X151026941Y-110473000D01*
X151027097Y-110293695D01*
X150894699Y-109973267D01*
X150649756Y-109727896D01*
X150329559Y-109594938D01*
X149982854Y-109594636D01*
X149979143Y-109596169D01*
X150071349Y-109374113D01*
X150071611Y-109073680D01*
X150172746Y-108972545D01*
X150286985Y-108801574D01*
X150327100Y-108599900D01*
X150327100Y-105968461D01*
X150397000Y-105982365D01*
X150803400Y-105982365D01*
X150920379Y-105959097D01*
X151027655Y-106119645D01*
X151027655Y-106119645D01*
G37*
X151027655Y-106119645D02*
X151380654Y-106472645D01*
X151494894Y-106548978D01*
X151551626Y-106586885D01*
X151753300Y-106627000D01*
X153400000Y-106627000D01*
X153517635Y-106603601D01*
X153517635Y-106702700D01*
X153550775Y-106869307D01*
X153570983Y-106899550D01*
X153550775Y-106929793D01*
X153517635Y-107096400D01*
X153517635Y-107502800D01*
X153550775Y-107669407D01*
X153570983Y-107699650D01*
X153550775Y-107729893D01*
X153517635Y-107896500D01*
X153517635Y-108302900D01*
X153550775Y-108469507D01*
X153570983Y-108499750D01*
X153550775Y-108529993D01*
X153517635Y-108696600D01*
X153517635Y-109103000D01*
X153550775Y-109269607D01*
X153570983Y-109299850D01*
X153550775Y-109330093D01*
X153517635Y-109496700D01*
X153517635Y-109903100D01*
X153550775Y-110069707D01*
X153571831Y-110101219D01*
X153526000Y-110211864D01*
X153526000Y-110370250D01*
X153632748Y-110476998D01*
X153526000Y-110476998D01*
X153526000Y-110487540D01*
X153452900Y-110473000D01*
X151026941Y-110473000D01*
X151027097Y-110293695D01*
X150894699Y-109973267D01*
X150649756Y-109727896D01*
X150329559Y-109594938D01*
X149982854Y-109594636D01*
X149979143Y-109596169D01*
X150071349Y-109374113D01*
X150071611Y-109073680D01*
X150172746Y-108972545D01*
X150286985Y-108801574D01*
X150327100Y-108599900D01*
X150327100Y-105968461D01*
X150397000Y-105982365D01*
X150803400Y-105982365D01*
X150920379Y-105959097D01*
X151027655Y-106119645D01*
G36*
X164039026Y-98661885D02*
X164240700Y-98702000D01*
X166986946Y-98702000D01*
X166984155Y-98712092D01*
X167080313Y-98802000D01*
X167677000Y-98802000D01*
X167677000Y-98782000D01*
X167723000Y-98782000D01*
X167723000Y-98802000D01*
X167743000Y-98802000D01*
X167743000Y-98848000D01*
X167723000Y-98848000D01*
X167723000Y-98868000D01*
X167677000Y-98868000D01*
X167677000Y-98848000D01*
X167080313Y-98848000D01*
X166984155Y-98937908D01*
X167008119Y-99024559D01*
X167078870Y-99140163D01*
X167002679Y-99254192D01*
X166997008Y-99282702D01*
X166981710Y-99298000D01*
X158343290Y-99298000D01*
X158171391Y-99126101D01*
X158171651Y-98827408D01*
X158088840Y-98626989D01*
X163986800Y-98626989D01*
X164039026Y-98661885D01*
X164039026Y-98661885D01*
G37*
X164039026Y-98661885D02*
X164240700Y-98702000D01*
X166986946Y-98702000D01*
X166984155Y-98712092D01*
X167080313Y-98802000D01*
X167677000Y-98802000D01*
X167677000Y-98782000D01*
X167723000Y-98782000D01*
X167723000Y-98802000D01*
X167743000Y-98802000D01*
X167743000Y-98848000D01*
X167723000Y-98848000D01*
X167723000Y-98868000D01*
X167677000Y-98868000D01*
X167677000Y-98848000D01*
X167080313Y-98848000D01*
X166984155Y-98937908D01*
X167008119Y-99024559D01*
X167078870Y-99140163D01*
X167002679Y-99254192D01*
X166997008Y-99282702D01*
X166981710Y-99298000D01*
X158343290Y-99298000D01*
X158171391Y-99126101D01*
X158171651Y-98827408D01*
X158088840Y-98626989D01*
X163986800Y-98626989D01*
X164039026Y-98661885D01*
G36*
X169323000Y-98477000D02*
X169343000Y-98477000D01*
X169343000Y-98523000D01*
X169323000Y-98523000D01*
X169323000Y-98543000D01*
X169277000Y-98543000D01*
X169277000Y-98523000D01*
X169257000Y-98523000D01*
X169257000Y-98477000D01*
X169277000Y-98477000D01*
X169277000Y-98457000D01*
X169323000Y-98457000D01*
X169323000Y-98477000D01*
X169323000Y-98477000D01*
G37*
X169323000Y-98477000D02*
X169343000Y-98477000D01*
X169343000Y-98523000D01*
X169323000Y-98523000D01*
X169323000Y-98543000D01*
X169277000Y-98543000D01*
X169277000Y-98523000D01*
X169257000Y-98523000D01*
X169257000Y-98477000D01*
X169277000Y-98477000D01*
X169277000Y-98457000D01*
X169323000Y-98457000D01*
X169323000Y-98477000D01*
G36*
X168373000Y-93018291D02*
X168373000Y-94069713D01*
X168274113Y-94028651D01*
X167927408Y-94028349D01*
X167846081Y-94061952D01*
X167832850Y-94042150D01*
X167775224Y-94003645D01*
X167886993Y-93891876D01*
X167952000Y-93734935D01*
X167952000Y-93379750D01*
X167845250Y-93273000D01*
X167173000Y-93273000D01*
X167173000Y-93293000D01*
X167127000Y-93293000D01*
X167127000Y-93273000D01*
X166454750Y-93273000D01*
X166348000Y-93379750D01*
X166348000Y-93734935D01*
X166413007Y-93891876D01*
X166524776Y-94003645D01*
X166467150Y-94042150D01*
X166372775Y-94183393D01*
X166339635Y-94350000D01*
X166339635Y-94673653D01*
X166056644Y-94956644D01*
X165920728Y-95160057D01*
X165873000Y-95400000D01*
X165873000Y-96900000D01*
X165920728Y-97139943D01*
X166032713Y-97307540D01*
X166056644Y-97343356D01*
X166361288Y-97648000D01*
X164419589Y-97648000D01*
X164367364Y-97613104D01*
X164165689Y-97572989D01*
X162172301Y-97572989D01*
X165872645Y-93872646D01*
X165986885Y-93701675D01*
X166004198Y-93614635D01*
X166027000Y-93500000D01*
X166027000Y-93018290D01*
X166395924Y-92649367D01*
X166348000Y-92765065D01*
X166348000Y-93120250D01*
X166454750Y-93227000D01*
X167127000Y-93227000D01*
X167127000Y-93207000D01*
X167173000Y-93207000D01*
X167173000Y-93227000D01*
X167845250Y-93227000D01*
X167952000Y-93120250D01*
X167952000Y-92765065D01*
X167894812Y-92627000D01*
X167981710Y-92627000D01*
X168373000Y-93018291D01*
X168373000Y-93018291D01*
G37*
X168373000Y-93018291D02*
X168373000Y-94069713D01*
X168274113Y-94028651D01*
X167927408Y-94028349D01*
X167846081Y-94061952D01*
X167832850Y-94042150D01*
X167775224Y-94003645D01*
X167886993Y-93891876D01*
X167952000Y-93734935D01*
X167952000Y-93379750D01*
X167845250Y-93273000D01*
X167173000Y-93273000D01*
X167173000Y-93293000D01*
X167127000Y-93293000D01*
X167127000Y-93273000D01*
X166454750Y-93273000D01*
X166348000Y-93379750D01*
X166348000Y-93734935D01*
X166413007Y-93891876D01*
X166524776Y-94003645D01*
X166467150Y-94042150D01*
X166372775Y-94183393D01*
X166339635Y-94350000D01*
X166339635Y-94673653D01*
X166056644Y-94956644D01*
X165920728Y-95160057D01*
X165873000Y-95400000D01*
X165873000Y-96900000D01*
X165920728Y-97139943D01*
X166032713Y-97307540D01*
X166056644Y-97343356D01*
X166361288Y-97648000D01*
X164419589Y-97648000D01*
X164367364Y-97613104D01*
X164165689Y-97572989D01*
X162172301Y-97572989D01*
X165872645Y-93872646D01*
X165986885Y-93701675D01*
X166004198Y-93614635D01*
X166027000Y-93500000D01*
X166027000Y-93018290D01*
X166395924Y-92649367D01*
X166348000Y-92765065D01*
X166348000Y-93120250D01*
X166454750Y-93227000D01*
X167127000Y-93227000D01*
X167127000Y-93207000D01*
X167173000Y-93207000D01*
X167173000Y-93227000D01*
X167845250Y-93227000D01*
X167952000Y-93120250D01*
X167952000Y-92765065D01*
X167894812Y-92627000D01*
X167981710Y-92627000D01*
X168373000Y-93018291D01*
G36*
X152384001Y-87500000D02*
X152424116Y-87701675D01*
X152538356Y-87872645D01*
X152805202Y-88139491D01*
X152827355Y-88172645D01*
X152928000Y-88273290D01*
X152928000Y-90938128D01*
X152847150Y-90992150D01*
X152820662Y-91031793D01*
X152726876Y-90938007D01*
X152569935Y-90873000D01*
X152314750Y-90873000D01*
X152208000Y-90979750D01*
X152208000Y-92277000D01*
X152228000Y-92277000D01*
X152228000Y-92323000D01*
X152208000Y-92323000D01*
X152208000Y-93620250D01*
X152314750Y-93727000D01*
X152569935Y-93727000D01*
X152726876Y-93661993D01*
X152820662Y-93568207D01*
X152847150Y-93607850D01*
X152988393Y-93702225D01*
X153155000Y-93735365D01*
X153755000Y-93735365D01*
X153921607Y-93702225D01*
X154062850Y-93607850D01*
X154090000Y-93567217D01*
X154117150Y-93607850D01*
X154258393Y-93702225D01*
X154425000Y-93735365D01*
X155025000Y-93735365D01*
X155191607Y-93702225D01*
X155332850Y-93607850D01*
X155360000Y-93567217D01*
X155387150Y-93607850D01*
X155528393Y-93702225D01*
X155695000Y-93735365D01*
X156295000Y-93735365D01*
X156461607Y-93702225D01*
X156602850Y-93607850D01*
X156630000Y-93567217D01*
X156657150Y-93607850D01*
X156798393Y-93702225D01*
X156965000Y-93735365D01*
X157565000Y-93735365D01*
X157731607Y-93702225D01*
X157872850Y-93607850D01*
X157900000Y-93567217D01*
X157927150Y-93607850D01*
X158068393Y-93702225D01*
X158235000Y-93735365D01*
X158835000Y-93735365D01*
X159001607Y-93702225D01*
X159142850Y-93607850D01*
X159170000Y-93567217D01*
X159197150Y-93607850D01*
X159338393Y-93702225D01*
X159505000Y-93735365D01*
X160105000Y-93735365D01*
X160271607Y-93702225D01*
X160412850Y-93607850D01*
X160440000Y-93567217D01*
X160467150Y-93607850D01*
X160608393Y-93702225D01*
X160775000Y-93735365D01*
X161375000Y-93735365D01*
X161541607Y-93702225D01*
X161682850Y-93607850D01*
X161710000Y-93567217D01*
X161737150Y-93607850D01*
X161878393Y-93702225D01*
X162045000Y-93735365D01*
X162645000Y-93735365D01*
X162811607Y-93702225D01*
X162952850Y-93607850D01*
X162980000Y-93567217D01*
X163007150Y-93607850D01*
X163088000Y-93661872D01*
X163088000Y-93873000D01*
X152118291Y-93873000D01*
X151972291Y-93727000D01*
X152055250Y-93727000D01*
X152162000Y-93620250D01*
X152162000Y-92323000D01*
X152142000Y-92323000D01*
X152142000Y-92277000D01*
X152162000Y-92277000D01*
X152162000Y-90979750D01*
X152055250Y-90873000D01*
X151811346Y-90873000D01*
X151893020Y-90839253D01*
X152138391Y-90594310D01*
X152271349Y-90274113D01*
X152271651Y-89927408D01*
X152139253Y-89606980D01*
X151894310Y-89361609D01*
X151574113Y-89228651D01*
X151227408Y-89228349D01*
X151127000Y-89269837D01*
X151127000Y-88618290D01*
X151731862Y-88013428D01*
X151865303Y-87986885D01*
X152036273Y-87872645D01*
X152201145Y-87707773D01*
X152315385Y-87536803D01*
X152328077Y-87472995D01*
X152352853Y-87348435D01*
X152384001Y-87335565D01*
X152384001Y-87500000D01*
X152384001Y-87500000D01*
G37*
X152384001Y-87500000D02*
X152424116Y-87701675D01*
X152538356Y-87872645D01*
X152805202Y-88139491D01*
X152827355Y-88172645D01*
X152928000Y-88273290D01*
X152928000Y-90938128D01*
X152847150Y-90992150D01*
X152820662Y-91031793D01*
X152726876Y-90938007D01*
X152569935Y-90873000D01*
X152314750Y-90873000D01*
X152208000Y-90979750D01*
X152208000Y-92277000D01*
X152228000Y-92277000D01*
X152228000Y-92323000D01*
X152208000Y-92323000D01*
X152208000Y-93620250D01*
X152314750Y-93727000D01*
X152569935Y-93727000D01*
X152726876Y-93661993D01*
X152820662Y-93568207D01*
X152847150Y-93607850D01*
X152988393Y-93702225D01*
X153155000Y-93735365D01*
X153755000Y-93735365D01*
X153921607Y-93702225D01*
X154062850Y-93607850D01*
X154090000Y-93567217D01*
X154117150Y-93607850D01*
X154258393Y-93702225D01*
X154425000Y-93735365D01*
X155025000Y-93735365D01*
X155191607Y-93702225D01*
X155332850Y-93607850D01*
X155360000Y-93567217D01*
X155387150Y-93607850D01*
X155528393Y-93702225D01*
X155695000Y-93735365D01*
X156295000Y-93735365D01*
X156461607Y-93702225D01*
X156602850Y-93607850D01*
X156630000Y-93567217D01*
X156657150Y-93607850D01*
X156798393Y-93702225D01*
X156965000Y-93735365D01*
X157565000Y-93735365D01*
X157731607Y-93702225D01*
X157872850Y-93607850D01*
X157900000Y-93567217D01*
X157927150Y-93607850D01*
X158068393Y-93702225D01*
X158235000Y-93735365D01*
X158835000Y-93735365D01*
X159001607Y-93702225D01*
X159142850Y-93607850D01*
X159170000Y-93567217D01*
X159197150Y-93607850D01*
X159338393Y-93702225D01*
X159505000Y-93735365D01*
X160105000Y-93735365D01*
X160271607Y-93702225D01*
X160412850Y-93607850D01*
X160440000Y-93567217D01*
X160467150Y-93607850D01*
X160608393Y-93702225D01*
X160775000Y-93735365D01*
X161375000Y-93735365D01*
X161541607Y-93702225D01*
X161682850Y-93607850D01*
X161710000Y-93567217D01*
X161737150Y-93607850D01*
X161878393Y-93702225D01*
X162045000Y-93735365D01*
X162645000Y-93735365D01*
X162811607Y-93702225D01*
X162952850Y-93607850D01*
X162980000Y-93567217D01*
X163007150Y-93607850D01*
X163088000Y-93661872D01*
X163088000Y-93873000D01*
X152118291Y-93873000D01*
X151972291Y-93727000D01*
X152055250Y-93727000D01*
X152162000Y-93620250D01*
X152162000Y-92323000D01*
X152142000Y-92323000D01*
X152142000Y-92277000D01*
X152162000Y-92277000D01*
X152162000Y-90979750D01*
X152055250Y-90873000D01*
X151811346Y-90873000D01*
X151893020Y-90839253D01*
X152138391Y-90594310D01*
X152271349Y-90274113D01*
X152271651Y-89927408D01*
X152139253Y-89606980D01*
X151894310Y-89361609D01*
X151574113Y-89228651D01*
X151227408Y-89228349D01*
X151127000Y-89269837D01*
X151127000Y-88618290D01*
X151731862Y-88013428D01*
X151865303Y-87986885D01*
X152036273Y-87872645D01*
X152201145Y-87707773D01*
X152315385Y-87536803D01*
X152328077Y-87472995D01*
X152352853Y-87348435D01*
X152384001Y-87335565D01*
X152384001Y-87500000D01*
G36*
X151875169Y-82040558D02*
X151861027Y-82054700D01*
X151875169Y-82068842D01*
X151842642Y-82101369D01*
X151828500Y-82087227D01*
X151108986Y-82806741D01*
X151172730Y-82996420D01*
X151348002Y-83073000D01*
X150155710Y-83073000D01*
X150288583Y-83020932D01*
X150325270Y-82996420D01*
X150389014Y-82806741D01*
X149669500Y-82087227D01*
X148949986Y-82806741D01*
X149013730Y-82996420D01*
X149189002Y-83073000D01*
X147996710Y-83073000D01*
X148129583Y-83020932D01*
X148166270Y-82996420D01*
X148230014Y-82806741D01*
X147510500Y-82087227D01*
X146790986Y-82806741D01*
X146854730Y-82996420D01*
X147030002Y-83073000D01*
X146800000Y-83073000D01*
X146598326Y-83113115D01*
X146427355Y-83227355D01*
X145977356Y-83677354D01*
X145863116Y-83848324D01*
X145838387Y-83972645D01*
X145823001Y-84049999D01*
X145823001Y-85324411D01*
X145576358Y-85221996D01*
X145128606Y-85221605D01*
X144727000Y-85387545D01*
X144727000Y-83010083D01*
X145106028Y-83175688D01*
X145553696Y-83184295D01*
X145970583Y-83020932D01*
X146007270Y-82996420D01*
X146071014Y-82806741D01*
X145351500Y-82087227D01*
X145337358Y-82101369D01*
X145304831Y-82068842D01*
X145318973Y-82054700D01*
X145304831Y-82040558D01*
X145337358Y-82008031D01*
X145351500Y-82022173D01*
X145365642Y-82008031D01*
X145398169Y-82040558D01*
X145384027Y-82054700D01*
X146103541Y-82774214D01*
X146293220Y-82710470D01*
X146433147Y-82390213D01*
X146544268Y-82673783D01*
X146568780Y-82710470D01*
X146758459Y-82774214D01*
X147477973Y-82054700D01*
X147463831Y-82040558D01*
X147496358Y-82008031D01*
X147510500Y-82022173D01*
X147524642Y-82008031D01*
X147557169Y-82040558D01*
X147543027Y-82054700D01*
X148262541Y-82774214D01*
X148452220Y-82710470D01*
X148592147Y-82390213D01*
X148703268Y-82673783D01*
X148727780Y-82710470D01*
X148917459Y-82774214D01*
X149636973Y-82054700D01*
X149622831Y-82040558D01*
X149655358Y-82008031D01*
X149669500Y-82022173D01*
X149683642Y-82008031D01*
X149716169Y-82040558D01*
X149702027Y-82054700D01*
X150421541Y-82774214D01*
X150611220Y-82710470D01*
X150751147Y-82390213D01*
X150862268Y-82673783D01*
X150886780Y-82710470D01*
X151076459Y-82774214D01*
X151795973Y-82054700D01*
X151781831Y-82040558D01*
X151814358Y-82008031D01*
X151828500Y-82022173D01*
X151842642Y-82008031D01*
X151875169Y-82040558D01*
X151875169Y-82040558D01*
G37*
X151875169Y-82040558D02*
X151861027Y-82054700D01*
X151875169Y-82068842D01*
X151842642Y-82101369D01*
X151828500Y-82087227D01*
X151108986Y-82806741D01*
X151172730Y-82996420D01*
X151348002Y-83073000D01*
X150155710Y-83073000D01*
X150288583Y-83020932D01*
X150325270Y-82996420D01*
X150389014Y-82806741D01*
X149669500Y-82087227D01*
X148949986Y-82806741D01*
X149013730Y-82996420D01*
X149189002Y-83073000D01*
X147996710Y-83073000D01*
X148129583Y-83020932D01*
X148166270Y-82996420D01*
X148230014Y-82806741D01*
X147510500Y-82087227D01*
X146790986Y-82806741D01*
X146854730Y-82996420D01*
X147030002Y-83073000D01*
X146800000Y-83073000D01*
X146598326Y-83113115D01*
X146427355Y-83227355D01*
X145977356Y-83677354D01*
X145863116Y-83848324D01*
X145838387Y-83972645D01*
X145823001Y-84049999D01*
X145823001Y-85324411D01*
X145576358Y-85221996D01*
X145128606Y-85221605D01*
X144727000Y-85387545D01*
X144727000Y-83010083D01*
X145106028Y-83175688D01*
X145553696Y-83184295D01*
X145970583Y-83020932D01*
X146007270Y-82996420D01*
X146071014Y-82806741D01*
X145351500Y-82087227D01*
X145337358Y-82101369D01*
X145304831Y-82068842D01*
X145318973Y-82054700D01*
X145304831Y-82040558D01*
X145337358Y-82008031D01*
X145351500Y-82022173D01*
X145365642Y-82008031D01*
X145398169Y-82040558D01*
X145384027Y-82054700D01*
X146103541Y-82774214D01*
X146293220Y-82710470D01*
X146433147Y-82390213D01*
X146544268Y-82673783D01*
X146568780Y-82710470D01*
X146758459Y-82774214D01*
X147477973Y-82054700D01*
X147463831Y-82040558D01*
X147496358Y-82008031D01*
X147510500Y-82022173D01*
X147524642Y-82008031D01*
X147557169Y-82040558D01*
X147543027Y-82054700D01*
X148262541Y-82774214D01*
X148452220Y-82710470D01*
X148592147Y-82390213D01*
X148703268Y-82673783D01*
X148727780Y-82710470D01*
X148917459Y-82774214D01*
X149636973Y-82054700D01*
X149622831Y-82040558D01*
X149655358Y-82008031D01*
X149669500Y-82022173D01*
X149683642Y-82008031D01*
X149716169Y-82040558D01*
X149702027Y-82054700D01*
X150421541Y-82774214D01*
X150611220Y-82710470D01*
X150751147Y-82390213D01*
X150862268Y-82673783D01*
X150886780Y-82710470D01*
X151076459Y-82774214D01*
X151795973Y-82054700D01*
X151781831Y-82040558D01*
X151814358Y-82008031D01*
X151828500Y-82022173D01*
X151842642Y-82008031D01*
X151875169Y-82040558D01*
M02*
